G04 #@! TF.GenerationSoftware,KiCad,Pcbnew,(5.1.4)-1*
G04 #@! TF.CreationDate,2019-10-18T18:31:52+09:00*
G04 #@! TF.ProjectId,AirCleaner,41697243-6c65-4616-9e65-722e6b696361,rev?*
G04 #@! TF.SameCoordinates,Original*
G04 #@! TF.FileFunction,Legend,Top*
G04 #@! TF.FilePolarity,Positive*
%FSLAX46Y46*%
G04 Gerber Fmt 4.6, Leading zero omitted, Abs format (unit mm)*
G04 Created by KiCad (PCBNEW (5.1.4)-1) date 2019-10-18 18:31:52*
%MOMM*%
%LPD*%
G04 APERTURE LIST*
%ADD10C,0.150000*%
%ADD11C,0.120000*%
%ADD12C,0.381000*%
%ADD13C,0.074930*%
%ADD14C,0.076200*%
G04 APERTURE END LIST*
D10*
X-8182380Y-31258333D02*
X-8182380Y-31067857D01*
X-8229999Y-30972619D01*
X-8277619Y-30925000D01*
X-8420476Y-30829761D01*
X-8610952Y-30782142D01*
X-8991904Y-30782142D01*
X-9087142Y-30829761D01*
X-9134761Y-30877380D01*
X-9182380Y-30972619D01*
X-9182380Y-31163095D01*
X-9134761Y-31258333D01*
X-9087142Y-31305952D01*
X-8991904Y-31353571D01*
X-8753809Y-31353571D01*
X-8658571Y-31305952D01*
X-8610952Y-31258333D01*
X-8563333Y-31163095D01*
X-8563333Y-30972619D01*
X-8610952Y-30877380D01*
X-8658571Y-30829761D01*
X-8753809Y-30782142D01*
X-9182380Y-31829761D02*
X-9182380Y-32020238D01*
X-9134761Y-32115476D01*
X-9087142Y-32163095D01*
X-8944285Y-32258333D01*
X-8753809Y-32305952D01*
X-8372857Y-32305952D01*
X-8277619Y-32258333D01*
X-8229999Y-32210714D01*
X-8182380Y-32115476D01*
X-8182380Y-31925000D01*
X-8229999Y-31829761D01*
X-8277619Y-31782142D01*
X-8372857Y-31734523D01*
X-8610952Y-31734523D01*
X-8706190Y-31782142D01*
X-8753809Y-31829761D01*
X-8801428Y-31925000D01*
X-8801428Y-32115476D01*
X-8753809Y-32210714D01*
X-8706190Y-32258333D01*
X-8610952Y-32305952D01*
X-9087142Y-32734523D02*
X-9134761Y-32782142D01*
X-9182380Y-32734523D01*
X-9134761Y-32686904D01*
X-9087142Y-32734523D01*
X-9182380Y-32734523D01*
X-9182380Y-33258333D02*
X-9182380Y-33448809D01*
X-9134761Y-33544047D01*
X-9087142Y-33591666D01*
X-8944285Y-33686904D01*
X-8753809Y-33734523D01*
X-8372857Y-33734523D01*
X-8277619Y-33686904D01*
X-8230000Y-33639285D01*
X-8182380Y-33544047D01*
X-8182380Y-33353571D01*
X-8230000Y-33258333D01*
X-8277619Y-33210714D01*
X-8372857Y-33163095D01*
X-8610952Y-33163095D01*
X-8706190Y-33210714D01*
X-8753809Y-33258333D01*
X-8801428Y-33353571D01*
X-8801428Y-33544047D01*
X-8753809Y-33639285D01*
X-8706190Y-33686904D01*
X-8610952Y-33734523D01*
X-8182380Y-34067857D02*
X-8182380Y-34734523D01*
X-9182380Y-34305952D01*
X-8182380Y-35305952D02*
X-8182380Y-35401190D01*
X-8230000Y-35496428D01*
X-8277619Y-35544047D01*
X-8372857Y-35591666D01*
X-8563333Y-35639285D01*
X-8801428Y-35639285D01*
X-8991904Y-35591666D01*
X-9087142Y-35544047D01*
X-9134761Y-35496428D01*
X-9182380Y-35401190D01*
X-9182380Y-35305952D01*
X-9134761Y-35210714D01*
X-9087142Y-35163095D01*
X-8991904Y-35115476D01*
X-8801428Y-35067857D01*
X-8563333Y-35067857D01*
X-8372857Y-35115476D01*
X-8277619Y-35163095D01*
X-8230000Y-35210714D01*
X-8182380Y-35305952D01*
X-9182380Y-36829761D02*
X-8515714Y-36829761D01*
X-8610952Y-36829761D02*
X-8563333Y-36877380D01*
X-8515714Y-36972619D01*
X-8515714Y-37115476D01*
X-8563333Y-37210714D01*
X-8658571Y-37258333D01*
X-9182380Y-37258333D01*
X-8658571Y-37258333D02*
X-8563333Y-37305952D01*
X-8515714Y-37401190D01*
X-8515714Y-37544047D01*
X-8563333Y-37639285D01*
X-8658571Y-37686904D01*
X-9182380Y-37686904D01*
X-9182380Y-38163095D02*
X-8515714Y-38163095D01*
X-8610952Y-38163095D02*
X-8563333Y-38210714D01*
X-8515714Y-38305952D01*
X-8515714Y-38448809D01*
X-8563333Y-38544047D01*
X-8658571Y-38591666D01*
X-9182380Y-38591666D01*
X-8658571Y-38591666D02*
X-8563333Y-38639285D01*
X-8515714Y-38734523D01*
X-8515714Y-38877380D01*
X-8563333Y-38972619D01*
X-8658571Y-39020238D01*
X-9182380Y-39020238D01*
D11*
X-7460000Y60000D02*
X-7460000Y-69910000D01*
X4220000Y60000D02*
X-8046421Y60000D01*
X4220000Y-69910000D02*
X-8046421Y-69910000D01*
X-7460000Y-69910000D02*
X-8046421Y-68783496D01*
X-7460000Y-69910000D02*
X-6873579Y-68783496D01*
X-7460000Y60000D02*
X-8046421Y-1066504D01*
X-7460000Y60000D02*
X-6873579Y-1066504D01*
X89278733Y-107560000D02*
X89621267Y-107560000D01*
X89278733Y-106540000D02*
X89621267Y-106540000D01*
X87220000Y-116730000D02*
X87220000Y-115400000D01*
X88550000Y-116730000D02*
X87220000Y-116730000D01*
X87220000Y-114130000D02*
X87220000Y-111530000D01*
X89820000Y-114130000D02*
X87220000Y-114130000D01*
X89820000Y-116730000D02*
X89820000Y-114130000D01*
X87220000Y-111530000D02*
X94960000Y-111530000D01*
X89820000Y-116730000D02*
X94960000Y-116730000D01*
X94960000Y-116730000D02*
X94960000Y-111530000D01*
X81355000Y-85630000D02*
X81355000Y-80560000D01*
X91125000Y-85630000D02*
X91125000Y-80560000D01*
X91125000Y-80560000D02*
X81355000Y-80560000D01*
X91125000Y-85630000D02*
X81355000Y-85630000D01*
X58710000Y-96600000D02*
X58710000Y-109200000D01*
X63810000Y-96600000D02*
X58710000Y-96600000D01*
X63810000Y-109200000D02*
X63810000Y-96600000D01*
X38040000Y-81720000D02*
X38040000Y-87720000D01*
X48040000Y-81720000D02*
X38040000Y-81720000D01*
X48040000Y-87720000D02*
X38040000Y-87720000D01*
X48040000Y-81720000D02*
X48040000Y-87720000D01*
X14190000Y-126570000D02*
X50890000Y-126570000D01*
X50890000Y-126570000D02*
X50890000Y-78870000D01*
X14190000Y-78870000D02*
X50890000Y-78870000D01*
X14190000Y-126570000D02*
X14190000Y-78870000D01*
X46300000Y-82940000D02*
X46300000Y-84070000D01*
X45540000Y-82940000D02*
X46300000Y-82940000D01*
X46235000Y-85647530D02*
X46235000Y-86470000D01*
X46235000Y-84830000D02*
X46235000Y-85032470D01*
X46103471Y-84830000D02*
X46235000Y-84830000D01*
X44833471Y-84830000D02*
X44976529Y-84830000D01*
X44780000Y-84633471D02*
X44780000Y-84776529D01*
X44780000Y-82940000D02*
X44780000Y-83506529D01*
X46235000Y-86470000D02*
X39765000Y-86470000D01*
X44780000Y-82940000D02*
X39765000Y-82940000D01*
X39765000Y-84377530D02*
X39765000Y-85032470D01*
X39765000Y-85647530D02*
X39765000Y-86470000D01*
X39765000Y-82940000D02*
X39765000Y-83762470D01*
X71520000Y-124496000D02*
X71520000Y-118486000D01*
X78340000Y-122246000D02*
X78340000Y-118486000D01*
X71520000Y-118486000D02*
X72780000Y-118486000D01*
X78340000Y-118486000D02*
X77080000Y-118486000D01*
X102040000Y-100000000D02*
G75*
G03X102040000Y-100000000I-4500000J0D01*
G01*
X74250733Y-112016000D02*
X74593267Y-112016000D01*
X74250733Y-110996000D02*
X74593267Y-110996000D01*
X58083267Y-82802000D02*
X57740733Y-82802000D01*
X58083267Y-83822000D02*
X57740733Y-83822000D01*
X57740733Y-85600000D02*
X58083267Y-85600000D01*
X57740733Y-84580000D02*
X58083267Y-84580000D01*
X54527267Y-84580000D02*
X54184733Y-84580000D01*
X54527267Y-85600000D02*
X54184733Y-85600000D01*
X54527267Y-82802000D02*
X54184733Y-82802000D01*
X54527267Y-83822000D02*
X54184733Y-83822000D01*
X84410733Y-92966000D02*
X84753267Y-92966000D01*
X84410733Y-91946000D02*
X84753267Y-91946000D01*
X79638000Y-110771000D02*
X77178000Y-110771000D01*
X79638000Y-112241000D02*
X79638000Y-110771000D01*
X77178000Y-112241000D02*
X79638000Y-112241000D01*
X55300000Y-103148733D02*
X55300000Y-103491267D01*
X56320000Y-103148733D02*
X56320000Y-103491267D01*
X56320000Y-100091267D02*
X56320000Y-99748733D01*
X55300000Y-100091267D02*
X55300000Y-99748733D01*
X84410733Y-94744000D02*
X84753267Y-94744000D01*
X84410733Y-93724000D02*
X84753267Y-93724000D01*
X69744000Y-122268064D02*
X69744000Y-121063936D01*
X67924000Y-122268064D02*
X67924000Y-121063936D01*
X82190000Y-122268064D02*
X82190000Y-121063936D01*
X80370000Y-122268064D02*
X80370000Y-121063936D01*
X137810000Y-38171267D02*
X137810000Y-37828733D01*
X136790000Y-38171267D02*
X136790000Y-37828733D01*
X137910000Y-20171267D02*
X137910000Y-19828733D01*
X136890000Y-20171267D02*
X136890000Y-19828733D01*
X130265000Y-32854423D02*
X132725000Y-32854423D01*
X130265000Y-31384423D02*
X130265000Y-32854423D01*
X132725000Y-31384423D02*
X130265000Y-31384423D01*
X130265000Y-14815000D02*
X132725000Y-14815000D01*
X130265000Y-13345000D02*
X130265000Y-14815000D01*
X132725000Y-13345000D02*
X130265000Y-13345000D01*
X121265000Y-32854423D02*
X123725000Y-32854423D01*
X121265000Y-31384423D02*
X121265000Y-32854423D01*
X123725000Y-31384423D02*
X121265000Y-31384423D01*
X121265000Y-14815000D02*
X123725000Y-14815000D01*
X121265000Y-13345000D02*
X121265000Y-14815000D01*
X123725000Y-13345000D02*
X121265000Y-13345000D01*
X52938000Y-122268064D02*
X52938000Y-121063936D01*
X54758000Y-122268064D02*
X54758000Y-121063936D01*
X66950000Y-122268064D02*
X66950000Y-121063936D01*
X65130000Y-122268064D02*
X65130000Y-121063936D01*
X84410733Y-105408000D02*
X84753267Y-105408000D01*
X84410733Y-106428000D02*
X84753267Y-106428000D01*
X84424734Y-103643001D02*
X84767268Y-103643001D01*
X84424734Y-104663001D02*
X84767268Y-104663001D01*
X84410733Y-101094000D02*
X84753267Y-101094000D01*
X84410733Y-100074000D02*
X84753267Y-100074000D01*
X84410733Y-102872000D02*
X84753267Y-102872000D01*
X84410733Y-101852000D02*
X84753267Y-101852000D01*
X41225000Y-13345000D02*
X38765000Y-13345000D01*
X38765000Y-13345000D02*
X38765000Y-14815000D01*
X38765000Y-14815000D02*
X41225000Y-14815000D01*
X68725000Y-13345000D02*
X66265000Y-13345000D01*
X66265000Y-13345000D02*
X66265000Y-14815000D01*
X66265000Y-14815000D02*
X68725000Y-14815000D01*
X96225000Y-13345000D02*
X93765000Y-13345000D01*
X93765000Y-13345000D02*
X93765000Y-14815000D01*
X93765000Y-14815000D02*
X96225000Y-14815000D01*
X151225000Y-13345000D02*
X148765000Y-13345000D01*
X148765000Y-13345000D02*
X148765000Y-14815000D01*
X148765000Y-14815000D02*
X151225000Y-14815000D01*
X41225000Y-31384423D02*
X38765000Y-31384423D01*
X38765000Y-31384423D02*
X38765000Y-32854423D01*
X38765000Y-32854423D02*
X41225000Y-32854423D01*
X68725000Y-31384423D02*
X66265000Y-31384423D01*
X66265000Y-31384423D02*
X66265000Y-32854423D01*
X66265000Y-32854423D02*
X68725000Y-32854423D01*
X96225000Y-31384423D02*
X93765000Y-31384423D01*
X93765000Y-31384423D02*
X93765000Y-32854423D01*
X93765000Y-32854423D02*
X96225000Y-32854423D01*
X148765000Y-32854423D02*
X151225000Y-32854423D01*
X148765000Y-31384423D02*
X148765000Y-32854423D01*
X151225000Y-31384423D02*
X148765000Y-31384423D01*
X47765000Y-14815000D02*
X50225000Y-14815000D01*
X47765000Y-13345000D02*
X47765000Y-14815000D01*
X50225000Y-13345000D02*
X47765000Y-13345000D01*
X75265000Y-14815000D02*
X77725000Y-14815000D01*
X75265000Y-13345000D02*
X75265000Y-14815000D01*
X77725000Y-13345000D02*
X75265000Y-13345000D01*
X102765000Y-14815000D02*
X105225000Y-14815000D01*
X102765000Y-13345000D02*
X102765000Y-14815000D01*
X105225000Y-13345000D02*
X102765000Y-13345000D01*
X157765000Y-14815000D02*
X160225000Y-14815000D01*
X157765000Y-13345000D02*
X157765000Y-14815000D01*
X160225000Y-13345000D02*
X157765000Y-13345000D01*
X47765000Y-32854423D02*
X50225000Y-32854423D01*
X47765000Y-31384423D02*
X47765000Y-32854423D01*
X50225000Y-31384423D02*
X47765000Y-31384423D01*
X75265000Y-32854423D02*
X77725000Y-32854423D01*
X75265000Y-31384423D02*
X75265000Y-32854423D01*
X77725000Y-31384423D02*
X75265000Y-31384423D01*
X102765000Y-32854423D02*
X105225000Y-32854423D01*
X102765000Y-31384423D02*
X102765000Y-32854423D01*
X105225000Y-31384423D02*
X102765000Y-31384423D01*
X160225000Y-31384423D02*
X157765000Y-31384423D01*
X157765000Y-31384423D02*
X157765000Y-32854423D01*
X157765000Y-32854423D02*
X160225000Y-32854423D01*
X95016000Y-124368000D02*
X95016000Y-119248000D01*
X95016000Y-119248000D02*
X88396000Y-119248000D01*
X88396000Y-119248000D02*
X87396000Y-120248000D01*
X87396000Y-120248000D02*
X87396000Y-124368000D01*
X87396000Y-124368000D02*
X95016000Y-124368000D01*
X95316000Y-121358000D02*
X95316000Y-118948000D01*
X95316000Y-118948000D02*
X92906000Y-118948000D01*
X107254000Y-118948000D02*
X104844000Y-118948000D01*
X107254000Y-121358000D02*
X107254000Y-118948000D01*
X96834000Y-124368000D02*
X106954000Y-124368000D01*
X96834000Y-120248000D02*
X96834000Y-124368000D01*
X97834000Y-119248000D02*
X96834000Y-120248000D01*
X106954000Y-119248000D02*
X97834000Y-119248000D01*
X106954000Y-124368000D02*
X106954000Y-119248000D01*
X56090000Y-20171267D02*
X56090000Y-19828733D01*
X57110000Y-20171267D02*
X57110000Y-19828733D01*
X83110000Y-20171267D02*
X83110000Y-19828733D01*
X82090000Y-20171267D02*
X82090000Y-19828733D01*
X109690000Y-20171267D02*
X109690000Y-19828733D01*
X110710000Y-20171267D02*
X110710000Y-19828733D01*
X165310000Y-20171267D02*
X165310000Y-19828733D01*
X164290000Y-20171267D02*
X164290000Y-19828733D01*
X55590000Y-38171267D02*
X55590000Y-37828733D01*
X56610000Y-38171267D02*
X56610000Y-37828733D01*
X82910000Y-38171267D02*
X82910000Y-37828733D01*
X81890000Y-38171267D02*
X81890000Y-37828733D01*
X109290000Y-38171267D02*
X109290000Y-37828733D01*
X110310000Y-38171267D02*
X110310000Y-37828733D01*
X165210000Y-38171267D02*
X165210000Y-37828733D01*
X164190000Y-38171267D02*
X164190000Y-37828733D01*
D12*
X56494680Y-119781320D02*
X56494680Y-112882680D01*
X63393320Y-119781320D02*
X56494680Y-119781320D01*
X63393320Y-112882680D02*
X63393320Y-119781320D01*
X56494680Y-112882680D02*
X63393320Y-112882680D01*
X58595260Y-124632720D02*
X58595260Y-119781320D01*
X56692800Y-124632720D02*
X58595260Y-124632720D01*
X56692800Y-124632720D02*
X56692800Y-119781320D01*
X63195200Y-124680980D02*
X63195200Y-119781320D01*
X61292740Y-124680980D02*
X63195200Y-124680980D01*
X61292740Y-124680980D02*
X61292740Y-119781320D01*
D10*
X70575000Y-99160000D02*
X69150000Y-99160000D01*
X77825000Y-98935000D02*
X77500000Y-98935000D01*
X77825000Y-106185000D02*
X77500000Y-106185000D01*
X70575000Y-106185000D02*
X70900000Y-106185000D01*
X70575000Y-98935000D02*
X70900000Y-98935000D01*
X70575000Y-106185000D02*
X70575000Y-105860000D01*
X77825000Y-106185000D02*
X77825000Y-105860000D01*
X77825000Y-98935000D02*
X77825000Y-99260000D01*
X70575000Y-98935000D02*
X70575000Y-99160000D01*
X88807142Y-106072380D02*
X88473809Y-105596190D01*
X88235714Y-106072380D02*
X88235714Y-105072380D01*
X88616666Y-105072380D01*
X88711904Y-105120000D01*
X88759523Y-105167619D01*
X88807142Y-105262857D01*
X88807142Y-105405714D01*
X88759523Y-105500952D01*
X88711904Y-105548571D01*
X88616666Y-105596190D01*
X88235714Y-105596190D01*
X89759523Y-106072380D02*
X89188095Y-106072380D01*
X89473809Y-106072380D02*
X89473809Y-105072380D01*
X89378571Y-105215238D01*
X89283333Y-105310476D01*
X89188095Y-105358095D01*
X90330952Y-105500952D02*
X90235714Y-105453333D01*
X90188095Y-105405714D01*
X90140476Y-105310476D01*
X90140476Y-105262857D01*
X90188095Y-105167619D01*
X90235714Y-105120000D01*
X90330952Y-105072380D01*
X90521428Y-105072380D01*
X90616666Y-105120000D01*
X90664285Y-105167619D01*
X90711904Y-105262857D01*
X90711904Y-105310476D01*
X90664285Y-105405714D01*
X90616666Y-105453333D01*
X90521428Y-105500952D01*
X90330952Y-105500952D01*
X90235714Y-105548571D01*
X90188095Y-105596190D01*
X90140476Y-105691428D01*
X90140476Y-105881904D01*
X90188095Y-105977142D01*
X90235714Y-106024761D01*
X90330952Y-106072380D01*
X90521428Y-106072380D01*
X90616666Y-106024761D01*
X90664285Y-105977142D01*
X90711904Y-105881904D01*
X90711904Y-105691428D01*
X90664285Y-105596190D01*
X90616666Y-105548571D01*
X90521428Y-105500952D01*
X85672380Y-114463333D02*
X86386666Y-114463333D01*
X86529523Y-114510952D01*
X86624761Y-114606190D01*
X86672380Y-114749047D01*
X86672380Y-114844285D01*
X85672380Y-114082380D02*
X85672380Y-113415714D01*
X86672380Y-113844285D01*
X85644761Y-87212380D02*
X85311428Y-86736190D01*
X85073333Y-87212380D02*
X85073333Y-86212380D01*
X85454285Y-86212380D01*
X85549523Y-86260000D01*
X85597142Y-86307619D01*
X85644761Y-86402857D01*
X85644761Y-86545714D01*
X85597142Y-86640952D01*
X85549523Y-86688571D01*
X85454285Y-86736190D01*
X85073333Y-86736190D01*
X85930476Y-86212380D02*
X86263809Y-87212380D01*
X86597142Y-86212380D01*
X87454285Y-87212380D02*
X86882857Y-87212380D01*
X87168571Y-87212380D02*
X87168571Y-86212380D01*
X87073333Y-86355238D01*
X86978095Y-86450476D01*
X86882857Y-86498095D01*
X113666666Y-76252380D02*
X113333333Y-75776190D01*
X113095238Y-76252380D02*
X113095238Y-75252380D01*
X113476190Y-75252380D01*
X113571428Y-75300000D01*
X113619047Y-75347619D01*
X113666666Y-75442857D01*
X113666666Y-75585714D01*
X113619047Y-75680952D01*
X113571428Y-75728571D01*
X113476190Y-75776190D01*
X113095238Y-75776190D01*
X114095238Y-75728571D02*
X114428571Y-75728571D01*
X114571428Y-76252380D02*
X114095238Y-76252380D01*
X114095238Y-75252380D01*
X114571428Y-75252380D01*
X115333333Y-75728571D02*
X115000000Y-75728571D01*
X115000000Y-76252380D02*
X115000000Y-75252380D01*
X115476190Y-75252380D01*
X116000000Y-75252380D02*
X116000000Y-75490476D01*
X115761904Y-75395238D02*
X116000000Y-75490476D01*
X116238095Y-75395238D01*
X115857142Y-75680952D02*
X116000000Y-75490476D01*
X116142857Y-75680952D01*
X116761904Y-75252380D02*
X116761904Y-75490476D01*
X116523809Y-75395238D02*
X116761904Y-75490476D01*
X117000000Y-75395238D01*
X116619047Y-75680952D02*
X116761904Y-75490476D01*
X116904761Y-75680952D01*
X113666666Y-121252380D02*
X113333333Y-120776190D01*
X113095238Y-121252380D02*
X113095238Y-120252380D01*
X113476190Y-120252380D01*
X113571428Y-120300000D01*
X113619047Y-120347619D01*
X113666666Y-120442857D01*
X113666666Y-120585714D01*
X113619047Y-120680952D01*
X113571428Y-120728571D01*
X113476190Y-120776190D01*
X113095238Y-120776190D01*
X114095238Y-120728571D02*
X114428571Y-120728571D01*
X114571428Y-121252380D02*
X114095238Y-121252380D01*
X114095238Y-120252380D01*
X114571428Y-120252380D01*
X115333333Y-120728571D02*
X115000000Y-120728571D01*
X115000000Y-121252380D02*
X115000000Y-120252380D01*
X115476190Y-120252380D01*
X116000000Y-120252380D02*
X116000000Y-120490476D01*
X115761904Y-120395238D02*
X116000000Y-120490476D01*
X116238095Y-120395238D01*
X115857142Y-120680952D02*
X116000000Y-120490476D01*
X116142857Y-120680952D01*
X116761904Y-120252380D02*
X116761904Y-120490476D01*
X116523809Y-120395238D02*
X116761904Y-120490476D01*
X117000000Y-120395238D01*
X116619047Y-120680952D02*
X116761904Y-120490476D01*
X116904761Y-120680952D01*
X3666666Y-121252380D02*
X3333333Y-120776190D01*
X3095238Y-121252380D02*
X3095238Y-120252380D01*
X3476190Y-120252380D01*
X3571428Y-120300000D01*
X3619047Y-120347619D01*
X3666666Y-120442857D01*
X3666666Y-120585714D01*
X3619047Y-120680952D01*
X3571428Y-120728571D01*
X3476190Y-120776190D01*
X3095238Y-120776190D01*
X4095238Y-120728571D02*
X4428571Y-120728571D01*
X4571428Y-121252380D02*
X4095238Y-121252380D01*
X4095238Y-120252380D01*
X4571428Y-120252380D01*
X5333333Y-120728571D02*
X5000000Y-120728571D01*
X5000000Y-121252380D02*
X5000000Y-120252380D01*
X5476190Y-120252380D01*
X6000000Y-120252380D02*
X6000000Y-120490476D01*
X5761904Y-120395238D02*
X6000000Y-120490476D01*
X6238095Y-120395238D01*
X5857142Y-120680952D02*
X6000000Y-120490476D01*
X6142857Y-120680952D01*
X6761904Y-120252380D02*
X6761904Y-120490476D01*
X6523809Y-120395238D02*
X6761904Y-120490476D01*
X7000000Y-120395238D01*
X6619047Y-120680952D02*
X6761904Y-120490476D01*
X6904761Y-120680952D01*
X3666666Y-76252380D02*
X3333333Y-75776190D01*
X3095238Y-76252380D02*
X3095238Y-75252380D01*
X3476190Y-75252380D01*
X3571428Y-75300000D01*
X3619047Y-75347619D01*
X3666666Y-75442857D01*
X3666666Y-75585714D01*
X3619047Y-75680952D01*
X3571428Y-75728571D01*
X3476190Y-75776190D01*
X3095238Y-75776190D01*
X4095238Y-75728571D02*
X4428571Y-75728571D01*
X4571428Y-76252380D02*
X4095238Y-76252380D01*
X4095238Y-75252380D01*
X4571428Y-75252380D01*
X5333333Y-75728571D02*
X5000000Y-75728571D01*
X5000000Y-76252380D02*
X5000000Y-75252380D01*
X5476190Y-75252380D01*
X6000000Y-75252380D02*
X6000000Y-75490476D01*
X5761904Y-75395238D02*
X6000000Y-75490476D01*
X6238095Y-75395238D01*
X5857142Y-75680952D02*
X6000000Y-75490476D01*
X6142857Y-75680952D01*
X6761904Y-75252380D02*
X6761904Y-75490476D01*
X6523809Y-75395238D02*
X6761904Y-75490476D01*
X7000000Y-75395238D01*
X6619047Y-75680952D02*
X6761904Y-75490476D01*
X6904761Y-75680952D01*
X193484666Y-37400380D02*
X193151333Y-36924190D01*
X192913238Y-37400380D02*
X192913238Y-36400380D01*
X193294190Y-36400380D01*
X193389428Y-36448000D01*
X193437047Y-36495619D01*
X193484666Y-36590857D01*
X193484666Y-36733714D01*
X193437047Y-36828952D01*
X193389428Y-36876571D01*
X193294190Y-36924190D01*
X192913238Y-36924190D01*
X193913238Y-36876571D02*
X194246571Y-36876571D01*
X194389428Y-37400380D02*
X193913238Y-37400380D01*
X193913238Y-36400380D01*
X194389428Y-36400380D01*
X195151333Y-36876571D02*
X194818000Y-36876571D01*
X194818000Y-37400380D02*
X194818000Y-36400380D01*
X195294190Y-36400380D01*
X195818000Y-36400380D02*
X195818000Y-36638476D01*
X195579904Y-36543238D02*
X195818000Y-36638476D01*
X196056095Y-36543238D01*
X195675142Y-36828952D02*
X195818000Y-36638476D01*
X195960857Y-36828952D01*
X196579904Y-36400380D02*
X196579904Y-36638476D01*
X196341809Y-36543238D02*
X196579904Y-36638476D01*
X196818000Y-36543238D01*
X196437047Y-36828952D02*
X196579904Y-36638476D01*
X196722761Y-36828952D01*
X193230666Y-6158380D02*
X192897333Y-5682190D01*
X192659238Y-6158380D02*
X192659238Y-5158380D01*
X193040190Y-5158380D01*
X193135428Y-5206000D01*
X193183047Y-5253619D01*
X193230666Y-5348857D01*
X193230666Y-5491714D01*
X193183047Y-5586952D01*
X193135428Y-5634571D01*
X193040190Y-5682190D01*
X192659238Y-5682190D01*
X193659238Y-5634571D02*
X193992571Y-5634571D01*
X194135428Y-6158380D02*
X193659238Y-6158380D01*
X193659238Y-5158380D01*
X194135428Y-5158380D01*
X194897333Y-5634571D02*
X194564000Y-5634571D01*
X194564000Y-6158380D02*
X194564000Y-5158380D01*
X195040190Y-5158380D01*
X195564000Y-5158380D02*
X195564000Y-5396476D01*
X195325904Y-5301238D02*
X195564000Y-5396476D01*
X195802095Y-5301238D01*
X195421142Y-5586952D02*
X195564000Y-5396476D01*
X195706857Y-5586952D01*
X196325904Y-5158380D02*
X196325904Y-5396476D01*
X196087809Y-5301238D02*
X196325904Y-5396476D01*
X196564000Y-5301238D01*
X196183047Y-5586952D02*
X196325904Y-5396476D01*
X196468761Y-5586952D01*
X4762666Y-5904380D02*
X4429333Y-5428190D01*
X4191238Y-5904380D02*
X4191238Y-4904380D01*
X4572190Y-4904380D01*
X4667428Y-4952000D01*
X4715047Y-4999619D01*
X4762666Y-5094857D01*
X4762666Y-5237714D01*
X4715047Y-5332952D01*
X4667428Y-5380571D01*
X4572190Y-5428190D01*
X4191238Y-5428190D01*
X5191238Y-5380571D02*
X5524571Y-5380571D01*
X5667428Y-5904380D02*
X5191238Y-5904380D01*
X5191238Y-4904380D01*
X5667428Y-4904380D01*
X6429333Y-5380571D02*
X6096000Y-5380571D01*
X6096000Y-5904380D02*
X6096000Y-4904380D01*
X6572190Y-4904380D01*
X7096000Y-4904380D02*
X7096000Y-5142476D01*
X6857904Y-5047238D02*
X7096000Y-5142476D01*
X7334095Y-5047238D01*
X6953142Y-5332952D02*
X7096000Y-5142476D01*
X7238857Y-5332952D01*
X7857904Y-4904380D02*
X7857904Y-5142476D01*
X7619809Y-5047238D02*
X7857904Y-5142476D01*
X8096000Y-5047238D01*
X7715047Y-5332952D02*
X7857904Y-5142476D01*
X8000761Y-5332952D01*
X4762666Y-36130380D02*
X4429333Y-35654190D01*
X4191238Y-36130380D02*
X4191238Y-35130380D01*
X4572190Y-35130380D01*
X4667428Y-35178000D01*
X4715047Y-35225619D01*
X4762666Y-35320857D01*
X4762666Y-35463714D01*
X4715047Y-35558952D01*
X4667428Y-35606571D01*
X4572190Y-35654190D01*
X4191238Y-35654190D01*
X5191238Y-35606571D02*
X5524571Y-35606571D01*
X5667428Y-36130380D02*
X5191238Y-36130380D01*
X5191238Y-35130380D01*
X5667428Y-35130380D01*
X6429333Y-35606571D02*
X6096000Y-35606571D01*
X6096000Y-36130380D02*
X6096000Y-35130380D01*
X6572190Y-35130380D01*
X7096000Y-35130380D02*
X7096000Y-35368476D01*
X6857904Y-35273238D02*
X7096000Y-35368476D01*
X7334095Y-35273238D01*
X6953142Y-35558952D02*
X7096000Y-35368476D01*
X7238857Y-35558952D01*
X7857904Y-35130380D02*
X7857904Y-35368476D01*
X7619809Y-35273238D02*
X7857904Y-35368476D01*
X8096000Y-35273238D01*
X7715047Y-35558952D02*
X7857904Y-35368476D01*
X8000761Y-35558952D01*
X64786190Y-103776190D02*
X65262380Y-103776190D01*
X64262380Y-104109523D02*
X64786190Y-103776190D01*
X64262380Y-103442857D01*
X64357619Y-103157142D02*
X64310000Y-103109523D01*
X64262380Y-103014285D01*
X64262380Y-102776190D01*
X64310000Y-102680952D01*
X64357619Y-102633333D01*
X64452857Y-102585714D01*
X64548095Y-102585714D01*
X64690952Y-102633333D01*
X65262380Y-103204761D01*
X65262380Y-102585714D01*
X52542380Y-85231904D02*
X53351904Y-85231904D01*
X53447142Y-85184285D01*
X53494761Y-85136666D01*
X53542380Y-85041428D01*
X53542380Y-84850952D01*
X53494761Y-84755714D01*
X53447142Y-84708095D01*
X53351904Y-84660476D01*
X52542380Y-84660476D01*
X53542380Y-84136666D02*
X53542380Y-83946190D01*
X53494761Y-83850952D01*
X53447142Y-83803333D01*
X53304285Y-83708095D01*
X53113809Y-83660476D01*
X52732857Y-83660476D01*
X52637619Y-83708095D01*
X52590000Y-83755714D01*
X52542380Y-83850952D01*
X52542380Y-84041428D01*
X52590000Y-84136666D01*
X52637619Y-84184285D01*
X52732857Y-84231904D01*
X52970952Y-84231904D01*
X53066190Y-84184285D01*
X53113809Y-84136666D01*
X53161428Y-84041428D01*
X53161428Y-83850952D01*
X53113809Y-83755714D01*
X53066190Y-83708095D01*
X52970952Y-83660476D01*
X71628095Y-114514380D02*
X71628095Y-115323904D01*
X71675714Y-115419142D01*
X71723333Y-115466761D01*
X71818571Y-115514380D01*
X72009047Y-115514380D01*
X72104285Y-115466761D01*
X72151904Y-115419142D01*
X72199523Y-115323904D01*
X72199523Y-114514380D01*
X72818571Y-114942952D02*
X72723333Y-114895333D01*
X72675714Y-114847714D01*
X72628095Y-114752476D01*
X72628095Y-114704857D01*
X72675714Y-114609619D01*
X72723333Y-114562000D01*
X72818571Y-114514380D01*
X73009047Y-114514380D01*
X73104285Y-114562000D01*
X73151904Y-114609619D01*
X73199523Y-114704857D01*
X73199523Y-114752476D01*
X73151904Y-114847714D01*
X73104285Y-114895333D01*
X73009047Y-114942952D01*
X72818571Y-114942952D01*
X72723333Y-114990571D01*
X72675714Y-115038190D01*
X72628095Y-115133428D01*
X72628095Y-115323904D01*
X72675714Y-115419142D01*
X72723333Y-115466761D01*
X72818571Y-115514380D01*
X73009047Y-115514380D01*
X73104285Y-115466761D01*
X73151904Y-115419142D01*
X73199523Y-115323904D01*
X73199523Y-115133428D01*
X73151904Y-115038190D01*
X73104285Y-114990571D01*
X73009047Y-114942952D01*
X99568095Y-106386380D02*
X99568095Y-107195904D01*
X99615714Y-107291142D01*
X99663333Y-107338761D01*
X99758571Y-107386380D01*
X99949047Y-107386380D01*
X100044285Y-107338761D01*
X100091904Y-107291142D01*
X100139523Y-107195904D01*
X100139523Y-106386380D01*
X100520476Y-106386380D02*
X101187142Y-106386380D01*
X100758571Y-107386380D01*
X73779142Y-113482380D02*
X73445809Y-113006190D01*
X73207714Y-113482380D02*
X73207714Y-112482380D01*
X73588666Y-112482380D01*
X73683904Y-112530000D01*
X73731523Y-112577619D01*
X73779142Y-112672857D01*
X73779142Y-112815714D01*
X73731523Y-112910952D01*
X73683904Y-112958571D01*
X73588666Y-113006190D01*
X73207714Y-113006190D01*
X74731523Y-113482380D02*
X74160095Y-113482380D01*
X74445809Y-113482380D02*
X74445809Y-112482380D01*
X74350571Y-112625238D01*
X74255333Y-112720476D01*
X74160095Y-112768095D01*
X75588666Y-112482380D02*
X75398190Y-112482380D01*
X75302952Y-112530000D01*
X75255333Y-112577619D01*
X75160095Y-112720476D01*
X75112476Y-112910952D01*
X75112476Y-113291904D01*
X75160095Y-113387142D01*
X75207714Y-113434761D01*
X75302952Y-113482380D01*
X75493428Y-113482380D01*
X75588666Y-113434761D01*
X75636285Y-113387142D01*
X75683904Y-113291904D01*
X75683904Y-113053809D01*
X75636285Y-112958571D01*
X75588666Y-112910952D01*
X75493428Y-112863333D01*
X75302952Y-112863333D01*
X75207714Y-112910952D01*
X75160095Y-112958571D01*
X75112476Y-113053809D01*
X57269142Y-85194380D02*
X56935809Y-84718190D01*
X56697714Y-85194380D02*
X56697714Y-84194380D01*
X57078666Y-84194380D01*
X57173904Y-84242000D01*
X57221523Y-84289619D01*
X57269142Y-84384857D01*
X57269142Y-84527714D01*
X57221523Y-84622952D01*
X57173904Y-84670571D01*
X57078666Y-84718190D01*
X56697714Y-84718190D01*
X58221523Y-85194380D02*
X57650095Y-85194380D01*
X57935809Y-85194380D02*
X57935809Y-84194380D01*
X57840571Y-84337238D01*
X57745333Y-84432476D01*
X57650095Y-84480095D01*
X59126285Y-84194380D02*
X58650095Y-84194380D01*
X58602476Y-84670571D01*
X58650095Y-84622952D01*
X58745333Y-84575333D01*
X58983428Y-84575333D01*
X59078666Y-84622952D01*
X59126285Y-84670571D01*
X59173904Y-84765809D01*
X59173904Y-85003904D01*
X59126285Y-85099142D01*
X59078666Y-85146761D01*
X58983428Y-85194380D01*
X58745333Y-85194380D01*
X58650095Y-85146761D01*
X58602476Y-85099142D01*
X57269142Y-84112380D02*
X56935809Y-83636190D01*
X56697714Y-84112380D02*
X56697714Y-83112380D01*
X57078666Y-83112380D01*
X57173904Y-83160000D01*
X57221523Y-83207619D01*
X57269142Y-83302857D01*
X57269142Y-83445714D01*
X57221523Y-83540952D01*
X57173904Y-83588571D01*
X57078666Y-83636190D01*
X56697714Y-83636190D01*
X58221523Y-84112380D02*
X57650095Y-84112380D01*
X57935809Y-84112380D02*
X57935809Y-83112380D01*
X57840571Y-83255238D01*
X57745333Y-83350476D01*
X57650095Y-83398095D01*
X59078666Y-83445714D02*
X59078666Y-84112380D01*
X58840571Y-83064761D02*
X58602476Y-83779047D01*
X59221523Y-83779047D01*
X53713142Y-86972380D02*
X53379809Y-86496190D01*
X53141714Y-86972380D02*
X53141714Y-85972380D01*
X53522666Y-85972380D01*
X53617904Y-86020000D01*
X53665523Y-86067619D01*
X53713142Y-86162857D01*
X53713142Y-86305714D01*
X53665523Y-86400952D01*
X53617904Y-86448571D01*
X53522666Y-86496190D01*
X53141714Y-86496190D01*
X54665523Y-86972380D02*
X54094095Y-86972380D01*
X54379809Y-86972380D02*
X54379809Y-85972380D01*
X54284571Y-86115238D01*
X54189333Y-86210476D01*
X54094095Y-86258095D01*
X54998857Y-85972380D02*
X55617904Y-85972380D01*
X55284571Y-86353333D01*
X55427428Y-86353333D01*
X55522666Y-86400952D01*
X55570285Y-86448571D01*
X55617904Y-86543809D01*
X55617904Y-86781904D01*
X55570285Y-86877142D01*
X55522666Y-86924761D01*
X55427428Y-86972380D01*
X55141714Y-86972380D01*
X55046476Y-86924761D01*
X54998857Y-86877142D01*
X53713142Y-85194380D02*
X53379809Y-84718190D01*
X53141714Y-85194380D02*
X53141714Y-84194380D01*
X53522666Y-84194380D01*
X53617904Y-84242000D01*
X53665523Y-84289619D01*
X53713142Y-84384857D01*
X53713142Y-84527714D01*
X53665523Y-84622952D01*
X53617904Y-84670571D01*
X53522666Y-84718190D01*
X53141714Y-84718190D01*
X54665523Y-85194380D02*
X54094095Y-85194380D01*
X54379809Y-85194380D02*
X54379809Y-84194380D01*
X54284571Y-84337238D01*
X54189333Y-84432476D01*
X54094095Y-84480095D01*
X55046476Y-84289619D02*
X55094095Y-84242000D01*
X55189333Y-84194380D01*
X55427428Y-84194380D01*
X55522666Y-84242000D01*
X55570285Y-84289619D01*
X55617904Y-84384857D01*
X55617904Y-84480095D01*
X55570285Y-84622952D01*
X54998857Y-85194380D01*
X55617904Y-85194380D01*
X83939142Y-91478380D02*
X83605809Y-91002190D01*
X83367714Y-91478380D02*
X83367714Y-90478380D01*
X83748666Y-90478380D01*
X83843904Y-90526000D01*
X83891523Y-90573619D01*
X83939142Y-90668857D01*
X83939142Y-90811714D01*
X83891523Y-90906952D01*
X83843904Y-90954571D01*
X83748666Y-91002190D01*
X83367714Y-91002190D01*
X84891523Y-91478380D02*
X84320095Y-91478380D01*
X84605809Y-91478380D02*
X84605809Y-90478380D01*
X84510571Y-90621238D01*
X84415333Y-90716476D01*
X84320095Y-90764095D01*
X85843904Y-91478380D02*
X85272476Y-91478380D01*
X85558190Y-91478380D02*
X85558190Y-90478380D01*
X85462952Y-90621238D01*
X85367714Y-90716476D01*
X85272476Y-90764095D01*
X76763714Y-113388380D02*
X76763714Y-112388380D01*
X77001809Y-112388380D01*
X77144666Y-112436000D01*
X77239904Y-112531238D01*
X77287523Y-112626476D01*
X77335142Y-112816952D01*
X77335142Y-112959809D01*
X77287523Y-113150285D01*
X77239904Y-113245523D01*
X77144666Y-113340761D01*
X77001809Y-113388380D01*
X76763714Y-113388380D01*
X77716095Y-112483619D02*
X77763714Y-112436000D01*
X77858952Y-112388380D01*
X78097047Y-112388380D01*
X78192285Y-112436000D01*
X78239904Y-112483619D01*
X78287523Y-112578857D01*
X78287523Y-112674095D01*
X78239904Y-112816952D01*
X77668476Y-113388380D01*
X78287523Y-113388380D01*
X79239904Y-113388380D02*
X78668476Y-113388380D01*
X78954190Y-113388380D02*
X78954190Y-112388380D01*
X78858952Y-112531238D01*
X78763714Y-112626476D01*
X78668476Y-112674095D01*
X57597142Y-103962857D02*
X57644761Y-104010476D01*
X57692380Y-104153333D01*
X57692380Y-104248571D01*
X57644761Y-104391428D01*
X57549523Y-104486666D01*
X57454285Y-104534285D01*
X57263809Y-104581904D01*
X57120952Y-104581904D01*
X56930476Y-104534285D01*
X56835238Y-104486666D01*
X56740000Y-104391428D01*
X56692380Y-104248571D01*
X56692380Y-104153333D01*
X56740000Y-104010476D01*
X56787619Y-103962857D01*
X57692380Y-103010476D02*
X57692380Y-103581904D01*
X57692380Y-103296190D02*
X56692380Y-103296190D01*
X56835238Y-103391428D01*
X56930476Y-103486666D01*
X56978095Y-103581904D01*
X57692380Y-102534285D02*
X57692380Y-102343809D01*
X57644761Y-102248571D01*
X57597142Y-102200952D01*
X57454285Y-102105714D01*
X57263809Y-102058095D01*
X56882857Y-102058095D01*
X56787619Y-102105714D01*
X56740000Y-102153333D01*
X56692380Y-102248571D01*
X56692380Y-102439047D01*
X56740000Y-102534285D01*
X56787619Y-102581904D01*
X56882857Y-102629523D01*
X57120952Y-102629523D01*
X57216190Y-102581904D01*
X57263809Y-102534285D01*
X57311428Y-102439047D01*
X57311428Y-102248571D01*
X57263809Y-102153333D01*
X57216190Y-102105714D01*
X57120952Y-102058095D01*
X54737142Y-100562857D02*
X54784761Y-100610476D01*
X54832380Y-100753333D01*
X54832380Y-100848571D01*
X54784761Y-100991428D01*
X54689523Y-101086666D01*
X54594285Y-101134285D01*
X54403809Y-101181904D01*
X54260952Y-101181904D01*
X54070476Y-101134285D01*
X53975238Y-101086666D01*
X53880000Y-100991428D01*
X53832380Y-100848571D01*
X53832380Y-100753333D01*
X53880000Y-100610476D01*
X53927619Y-100562857D01*
X54832380Y-99610476D02*
X54832380Y-100181904D01*
X54832380Y-99896190D02*
X53832380Y-99896190D01*
X53975238Y-99991428D01*
X54070476Y-100086666D01*
X54118095Y-100181904D01*
X54260952Y-99039047D02*
X54213333Y-99134285D01*
X54165714Y-99181904D01*
X54070476Y-99229523D01*
X54022857Y-99229523D01*
X53927619Y-99181904D01*
X53880000Y-99134285D01*
X53832380Y-99039047D01*
X53832380Y-98848571D01*
X53880000Y-98753333D01*
X53927619Y-98705714D01*
X54022857Y-98658095D01*
X54070476Y-98658095D01*
X54165714Y-98705714D01*
X54213333Y-98753333D01*
X54260952Y-98848571D01*
X54260952Y-99039047D01*
X54308571Y-99134285D01*
X54356190Y-99181904D01*
X54451428Y-99229523D01*
X54641904Y-99229523D01*
X54737142Y-99181904D01*
X54784761Y-99134285D01*
X54832380Y-99039047D01*
X54832380Y-98848571D01*
X54784761Y-98753333D01*
X54737142Y-98705714D01*
X54641904Y-98658095D01*
X54451428Y-98658095D01*
X54356190Y-98705714D01*
X54308571Y-98753333D01*
X54260952Y-98848571D01*
X83939142Y-93161142D02*
X83891523Y-93208761D01*
X83748666Y-93256380D01*
X83653428Y-93256380D01*
X83510571Y-93208761D01*
X83415333Y-93113523D01*
X83367714Y-93018285D01*
X83320095Y-92827809D01*
X83320095Y-92684952D01*
X83367714Y-92494476D01*
X83415333Y-92399238D01*
X83510571Y-92304000D01*
X83653428Y-92256380D01*
X83748666Y-92256380D01*
X83891523Y-92304000D01*
X83939142Y-92351619D01*
X84891523Y-93256380D02*
X84320095Y-93256380D01*
X84605809Y-93256380D02*
X84605809Y-92256380D01*
X84510571Y-92399238D01*
X84415333Y-92494476D01*
X84320095Y-92542095D01*
X85224857Y-92256380D02*
X85891523Y-92256380D01*
X85462952Y-93256380D01*
X67371142Y-122308857D02*
X67418761Y-122356476D01*
X67466380Y-122499333D01*
X67466380Y-122594571D01*
X67418761Y-122737428D01*
X67323523Y-122832666D01*
X67228285Y-122880285D01*
X67037809Y-122927904D01*
X66894952Y-122927904D01*
X66704476Y-122880285D01*
X66609238Y-122832666D01*
X66514000Y-122737428D01*
X66466380Y-122594571D01*
X66466380Y-122499333D01*
X66514000Y-122356476D01*
X66561619Y-122308857D01*
X67466380Y-121356476D02*
X67466380Y-121927904D01*
X67466380Y-121642190D02*
X66466380Y-121642190D01*
X66609238Y-121737428D01*
X66704476Y-121832666D01*
X66752095Y-121927904D01*
X66466380Y-120499333D02*
X66466380Y-120689809D01*
X66514000Y-120785047D01*
X66561619Y-120832666D01*
X66704476Y-120927904D01*
X66894952Y-120975523D01*
X67275904Y-120975523D01*
X67371142Y-120927904D01*
X67418761Y-120880285D01*
X67466380Y-120785047D01*
X67466380Y-120594571D01*
X67418761Y-120499333D01*
X67371142Y-120451714D01*
X67275904Y-120404095D01*
X67037809Y-120404095D01*
X66942571Y-120451714D01*
X66894952Y-120499333D01*
X66847333Y-120594571D01*
X66847333Y-120785047D01*
X66894952Y-120880285D01*
X66942571Y-120927904D01*
X67037809Y-120975523D01*
X79817142Y-122308857D02*
X79864761Y-122356476D01*
X79912380Y-122499333D01*
X79912380Y-122594571D01*
X79864761Y-122737428D01*
X79769523Y-122832666D01*
X79674285Y-122880285D01*
X79483809Y-122927904D01*
X79340952Y-122927904D01*
X79150476Y-122880285D01*
X79055238Y-122832666D01*
X78960000Y-122737428D01*
X78912380Y-122594571D01*
X78912380Y-122499333D01*
X78960000Y-122356476D01*
X79007619Y-122308857D01*
X79912380Y-121356476D02*
X79912380Y-121927904D01*
X79912380Y-121642190D02*
X78912380Y-121642190D01*
X79055238Y-121737428D01*
X79150476Y-121832666D01*
X79198095Y-121927904D01*
X78912380Y-120451714D02*
X78912380Y-120927904D01*
X79388571Y-120975523D01*
X79340952Y-120927904D01*
X79293333Y-120832666D01*
X79293333Y-120594571D01*
X79340952Y-120499333D01*
X79388571Y-120451714D01*
X79483809Y-120404095D01*
X79721904Y-120404095D01*
X79817142Y-120451714D01*
X79864761Y-120499333D01*
X79912380Y-120594571D01*
X79912380Y-120832666D01*
X79864761Y-120927904D01*
X79817142Y-120975523D01*
X136322380Y-38642857D02*
X135846190Y-38976190D01*
X136322380Y-39214285D02*
X135322380Y-39214285D01*
X135322380Y-38833333D01*
X135370000Y-38738095D01*
X135417619Y-38690476D01*
X135512857Y-38642857D01*
X135655714Y-38642857D01*
X135750952Y-38690476D01*
X135798571Y-38738095D01*
X135846190Y-38833333D01*
X135846190Y-39214285D01*
X136322380Y-37690476D02*
X136322380Y-38261904D01*
X136322380Y-37976190D02*
X135322380Y-37976190D01*
X135465238Y-38071428D01*
X135560476Y-38166666D01*
X135608095Y-38261904D01*
X135322380Y-37071428D02*
X135322380Y-36976190D01*
X135370000Y-36880952D01*
X135417619Y-36833333D01*
X135512857Y-36785714D01*
X135703333Y-36738095D01*
X135941428Y-36738095D01*
X136131904Y-36785714D01*
X136227142Y-36833333D01*
X136274761Y-36880952D01*
X136322380Y-36976190D01*
X136322380Y-37071428D01*
X136274761Y-37166666D01*
X136227142Y-37214285D01*
X136131904Y-37261904D01*
X135941428Y-37309523D01*
X135703333Y-37309523D01*
X135512857Y-37261904D01*
X135417619Y-37214285D01*
X135370000Y-37166666D01*
X135322380Y-37071428D01*
X136422380Y-20166666D02*
X135946190Y-20500000D01*
X136422380Y-20738095D02*
X135422380Y-20738095D01*
X135422380Y-20357142D01*
X135470000Y-20261904D01*
X135517619Y-20214285D01*
X135612857Y-20166666D01*
X135755714Y-20166666D01*
X135850952Y-20214285D01*
X135898571Y-20261904D01*
X135946190Y-20357142D01*
X135946190Y-20738095D01*
X136422380Y-19690476D02*
X136422380Y-19500000D01*
X136374761Y-19404761D01*
X136327142Y-19357142D01*
X136184285Y-19261904D01*
X135993809Y-19214285D01*
X135612857Y-19214285D01*
X135517619Y-19261904D01*
X135470000Y-19309523D01*
X135422380Y-19404761D01*
X135422380Y-19595238D01*
X135470000Y-19690476D01*
X135517619Y-19738095D01*
X135612857Y-19785714D01*
X135850952Y-19785714D01*
X135946190Y-19738095D01*
X135993809Y-19690476D01*
X136041428Y-19595238D01*
X136041428Y-19404761D01*
X135993809Y-19309523D01*
X135946190Y-19261904D01*
X135850952Y-19214285D01*
X130710714Y-31141803D02*
X130710714Y-30141803D01*
X130948809Y-30141803D01*
X131091666Y-30189423D01*
X131186904Y-30284661D01*
X131234523Y-30379899D01*
X131282142Y-30570375D01*
X131282142Y-30713232D01*
X131234523Y-30903708D01*
X131186904Y-30998946D01*
X131091666Y-31094184D01*
X130948809Y-31141803D01*
X130710714Y-31141803D01*
X131663095Y-30237042D02*
X131710714Y-30189423D01*
X131805952Y-30141803D01*
X132044047Y-30141803D01*
X132139285Y-30189423D01*
X132186904Y-30237042D01*
X132234523Y-30332280D01*
X132234523Y-30427518D01*
X132186904Y-30570375D01*
X131615476Y-31141803D01*
X132234523Y-31141803D01*
X132853571Y-30141803D02*
X132948809Y-30141803D01*
X133044047Y-30189423D01*
X133091666Y-30237042D01*
X133139285Y-30332280D01*
X133186904Y-30522756D01*
X133186904Y-30760851D01*
X133139285Y-30951327D01*
X133091666Y-31046565D01*
X133044047Y-31094184D01*
X132948809Y-31141803D01*
X132853571Y-31141803D01*
X132758333Y-31094184D01*
X132710714Y-31046565D01*
X132663095Y-30951327D01*
X132615476Y-30760851D01*
X132615476Y-30522756D01*
X132663095Y-30332280D01*
X132710714Y-30237042D01*
X132758333Y-30189423D01*
X132853571Y-30141803D01*
X130710714Y-13102380D02*
X130710714Y-12102380D01*
X130948809Y-12102380D01*
X131091666Y-12150000D01*
X131186904Y-12245238D01*
X131234523Y-12340476D01*
X131282142Y-12530952D01*
X131282142Y-12673809D01*
X131234523Y-12864285D01*
X131186904Y-12959523D01*
X131091666Y-13054761D01*
X130948809Y-13102380D01*
X130710714Y-13102380D01*
X132234523Y-13102380D02*
X131663095Y-13102380D01*
X131948809Y-13102380D02*
X131948809Y-12102380D01*
X131853571Y-12245238D01*
X131758333Y-12340476D01*
X131663095Y-12388095D01*
X132710714Y-13102380D02*
X132901190Y-13102380D01*
X132996428Y-13054761D01*
X133044047Y-13007142D01*
X133139285Y-12864285D01*
X133186904Y-12673809D01*
X133186904Y-12292857D01*
X133139285Y-12197619D01*
X133091666Y-12150000D01*
X132996428Y-12102380D01*
X132805952Y-12102380D01*
X132710714Y-12150000D01*
X132663095Y-12197619D01*
X132615476Y-12292857D01*
X132615476Y-12530952D01*
X132663095Y-12626190D01*
X132710714Y-12673809D01*
X132805952Y-12721428D01*
X132996428Y-12721428D01*
X133091666Y-12673809D01*
X133139285Y-12626190D01*
X133186904Y-12530952D01*
X121710714Y-31141803D02*
X121710714Y-30141803D01*
X121948809Y-30141803D01*
X122091666Y-30189423D01*
X122186904Y-30284661D01*
X122234523Y-30379899D01*
X122282142Y-30570375D01*
X122282142Y-30713232D01*
X122234523Y-30903708D01*
X122186904Y-30998946D01*
X122091666Y-31094184D01*
X121948809Y-31141803D01*
X121710714Y-31141803D01*
X123234523Y-31141803D02*
X122663095Y-31141803D01*
X122948809Y-31141803D02*
X122948809Y-30141803D01*
X122853571Y-30284661D01*
X122758333Y-30379899D01*
X122663095Y-30427518D01*
X123805952Y-30570375D02*
X123710714Y-30522756D01*
X123663095Y-30475137D01*
X123615476Y-30379899D01*
X123615476Y-30332280D01*
X123663095Y-30237042D01*
X123710714Y-30189423D01*
X123805952Y-30141803D01*
X123996428Y-30141803D01*
X124091666Y-30189423D01*
X124139285Y-30237042D01*
X124186904Y-30332280D01*
X124186904Y-30379899D01*
X124139285Y-30475137D01*
X124091666Y-30522756D01*
X123996428Y-30570375D01*
X123805952Y-30570375D01*
X123710714Y-30617994D01*
X123663095Y-30665613D01*
X123615476Y-30760851D01*
X123615476Y-30951327D01*
X123663095Y-31046565D01*
X123710714Y-31094184D01*
X123805952Y-31141803D01*
X123996428Y-31141803D01*
X124091666Y-31094184D01*
X124139285Y-31046565D01*
X124186904Y-30951327D01*
X124186904Y-30760851D01*
X124139285Y-30665613D01*
X124091666Y-30617994D01*
X123996428Y-30570375D01*
X121710714Y-13102380D02*
X121710714Y-12102380D01*
X121948809Y-12102380D01*
X122091666Y-12150000D01*
X122186904Y-12245238D01*
X122234523Y-12340476D01*
X122282142Y-12530952D01*
X122282142Y-12673809D01*
X122234523Y-12864285D01*
X122186904Y-12959523D01*
X122091666Y-13054761D01*
X121948809Y-13102380D01*
X121710714Y-13102380D01*
X123234523Y-13102380D02*
X122663095Y-13102380D01*
X122948809Y-13102380D02*
X122948809Y-12102380D01*
X122853571Y-12245238D01*
X122758333Y-12340476D01*
X122663095Y-12388095D01*
X123567857Y-12102380D02*
X124234523Y-12102380D01*
X123805952Y-13102380D01*
X52385142Y-121832666D02*
X52432761Y-121880285D01*
X52480380Y-122023142D01*
X52480380Y-122118380D01*
X52432761Y-122261238D01*
X52337523Y-122356476D01*
X52242285Y-122404095D01*
X52051809Y-122451714D01*
X51908952Y-122451714D01*
X51718476Y-122404095D01*
X51623238Y-122356476D01*
X51528000Y-122261238D01*
X51480380Y-122118380D01*
X51480380Y-122023142D01*
X51528000Y-121880285D01*
X51575619Y-121832666D01*
X51480380Y-121499333D02*
X51480380Y-120832666D01*
X52480380Y-121261238D01*
X64577142Y-121832666D02*
X64624761Y-121880285D01*
X64672380Y-122023142D01*
X64672380Y-122118380D01*
X64624761Y-122261238D01*
X64529523Y-122356476D01*
X64434285Y-122404095D01*
X64243809Y-122451714D01*
X64100952Y-122451714D01*
X63910476Y-122404095D01*
X63815238Y-122356476D01*
X63720000Y-122261238D01*
X63672380Y-122118380D01*
X63672380Y-122023142D01*
X63720000Y-121880285D01*
X63767619Y-121832666D01*
X64100952Y-121261238D02*
X64053333Y-121356476D01*
X64005714Y-121404095D01*
X63910476Y-121451714D01*
X63862857Y-121451714D01*
X63767619Y-121404095D01*
X63720000Y-121356476D01*
X63672380Y-121261238D01*
X63672380Y-121070761D01*
X63720000Y-120975523D01*
X63767619Y-120927904D01*
X63862857Y-120880285D01*
X63910476Y-120880285D01*
X64005714Y-120927904D01*
X64053333Y-120975523D01*
X64100952Y-121070761D01*
X64100952Y-121261238D01*
X64148571Y-121356476D01*
X64196190Y-121404095D01*
X64291428Y-121451714D01*
X64481904Y-121451714D01*
X64577142Y-121404095D01*
X64624761Y-121356476D01*
X64672380Y-121261238D01*
X64672380Y-121070761D01*
X64624761Y-120975523D01*
X64577142Y-120927904D01*
X64481904Y-120880285D01*
X64291428Y-120880285D01*
X64196190Y-120927904D01*
X64148571Y-120975523D01*
X64100952Y-121070761D01*
X84415333Y-104845142D02*
X84367714Y-104892761D01*
X84224857Y-104940380D01*
X84129619Y-104940380D01*
X83986761Y-104892761D01*
X83891523Y-104797523D01*
X83843904Y-104702285D01*
X83796285Y-104511809D01*
X83796285Y-104368952D01*
X83843904Y-104178476D01*
X83891523Y-104083238D01*
X83986761Y-103988000D01*
X84129619Y-103940380D01*
X84224857Y-103940380D01*
X84367714Y-103988000D01*
X84415333Y-104035619D01*
X84891523Y-104940380D02*
X85082000Y-104940380D01*
X85177238Y-104892761D01*
X85224857Y-104845142D01*
X85320095Y-104702285D01*
X85367714Y-104511809D01*
X85367714Y-104130857D01*
X85320095Y-104035619D01*
X85272476Y-103988000D01*
X85177238Y-103940380D01*
X84986761Y-103940380D01*
X84891523Y-103988000D01*
X84843904Y-104035619D01*
X84796285Y-104130857D01*
X84796285Y-104368952D01*
X84843904Y-104464190D01*
X84891523Y-104511809D01*
X84986761Y-104559428D01*
X85177238Y-104559428D01*
X85272476Y-104511809D01*
X85320095Y-104464190D01*
X85367714Y-104368952D01*
X83953143Y-103080143D02*
X83905524Y-103127762D01*
X83762667Y-103175381D01*
X83667429Y-103175381D01*
X83524572Y-103127762D01*
X83429334Y-103032524D01*
X83381715Y-102937286D01*
X83334096Y-102746810D01*
X83334096Y-102603953D01*
X83381715Y-102413477D01*
X83429334Y-102318239D01*
X83524572Y-102223001D01*
X83667429Y-102175381D01*
X83762667Y-102175381D01*
X83905524Y-102223001D01*
X83953143Y-102270620D01*
X84905524Y-103175381D02*
X84334096Y-103175381D01*
X84619810Y-103175381D02*
X84619810Y-102175381D01*
X84524572Y-102318239D01*
X84429334Y-102413477D01*
X84334096Y-102461096D01*
X85524572Y-102175381D02*
X85619810Y-102175381D01*
X85715048Y-102223001D01*
X85762667Y-102270620D01*
X85810286Y-102365858D01*
X85857905Y-102556334D01*
X85857905Y-102794429D01*
X85810286Y-102984905D01*
X85762667Y-103080143D01*
X85715048Y-103127762D01*
X85619810Y-103175381D01*
X85524572Y-103175381D01*
X85429334Y-103127762D01*
X85381715Y-103080143D01*
X85334096Y-102984905D01*
X85286477Y-102794429D01*
X85286477Y-102556334D01*
X85334096Y-102365858D01*
X85381715Y-102270620D01*
X85429334Y-102223001D01*
X85524572Y-102175381D01*
X83939142Y-99511142D02*
X83891523Y-99558761D01*
X83748666Y-99606380D01*
X83653428Y-99606380D01*
X83510571Y-99558761D01*
X83415333Y-99463523D01*
X83367714Y-99368285D01*
X83320095Y-99177809D01*
X83320095Y-99034952D01*
X83367714Y-98844476D01*
X83415333Y-98749238D01*
X83510571Y-98654000D01*
X83653428Y-98606380D01*
X83748666Y-98606380D01*
X83891523Y-98654000D01*
X83939142Y-98701619D01*
X84891523Y-99606380D02*
X84320095Y-99606380D01*
X84605809Y-99606380D02*
X84605809Y-98606380D01*
X84510571Y-98749238D01*
X84415333Y-98844476D01*
X84320095Y-98892095D01*
X85843904Y-99606380D02*
X85272476Y-99606380D01*
X85558190Y-99606380D02*
X85558190Y-98606380D01*
X85462952Y-98749238D01*
X85367714Y-98844476D01*
X85272476Y-98892095D01*
X83939142Y-101289142D02*
X83891523Y-101336761D01*
X83748666Y-101384380D01*
X83653428Y-101384380D01*
X83510571Y-101336761D01*
X83415333Y-101241523D01*
X83367714Y-101146285D01*
X83320095Y-100955809D01*
X83320095Y-100812952D01*
X83367714Y-100622476D01*
X83415333Y-100527238D01*
X83510571Y-100432000D01*
X83653428Y-100384380D01*
X83748666Y-100384380D01*
X83891523Y-100432000D01*
X83939142Y-100479619D01*
X84891523Y-101384380D02*
X84320095Y-101384380D01*
X84605809Y-101384380D02*
X84605809Y-100384380D01*
X84510571Y-100527238D01*
X84415333Y-100622476D01*
X84320095Y-100670095D01*
X85272476Y-100479619D02*
X85320095Y-100432000D01*
X85415333Y-100384380D01*
X85653428Y-100384380D01*
X85748666Y-100432000D01*
X85796285Y-100479619D01*
X85843904Y-100574857D01*
X85843904Y-100670095D01*
X85796285Y-100812952D01*
X85224857Y-101384380D01*
X85843904Y-101384380D01*
X39686904Y-13102380D02*
X39686904Y-12102380D01*
X39925000Y-12102380D01*
X40067857Y-12150000D01*
X40163095Y-12245238D01*
X40210714Y-12340476D01*
X40258333Y-12530952D01*
X40258333Y-12673809D01*
X40210714Y-12864285D01*
X40163095Y-12959523D01*
X40067857Y-13054761D01*
X39925000Y-13102380D01*
X39686904Y-13102380D01*
X41210714Y-13102380D02*
X40639285Y-13102380D01*
X40925000Y-13102380D02*
X40925000Y-12102380D01*
X40829761Y-12245238D01*
X40734523Y-12340476D01*
X40639285Y-12388095D01*
X67186904Y-13102380D02*
X67186904Y-12102380D01*
X67425000Y-12102380D01*
X67567857Y-12150000D01*
X67663095Y-12245238D01*
X67710714Y-12340476D01*
X67758333Y-12530952D01*
X67758333Y-12673809D01*
X67710714Y-12864285D01*
X67663095Y-12959523D01*
X67567857Y-13054761D01*
X67425000Y-13102380D01*
X67186904Y-13102380D01*
X68139285Y-12197619D02*
X68186904Y-12150000D01*
X68282142Y-12102380D01*
X68520238Y-12102380D01*
X68615476Y-12150000D01*
X68663095Y-12197619D01*
X68710714Y-12292857D01*
X68710714Y-12388095D01*
X68663095Y-12530952D01*
X68091666Y-13102380D01*
X68710714Y-13102380D01*
X94686904Y-13102380D02*
X94686904Y-12102380D01*
X94925000Y-12102380D01*
X95067857Y-12150000D01*
X95163095Y-12245238D01*
X95210714Y-12340476D01*
X95258333Y-12530952D01*
X95258333Y-12673809D01*
X95210714Y-12864285D01*
X95163095Y-12959523D01*
X95067857Y-13054761D01*
X94925000Y-13102380D01*
X94686904Y-13102380D01*
X95591666Y-12102380D02*
X96210714Y-12102380D01*
X95877380Y-12483333D01*
X96020238Y-12483333D01*
X96115476Y-12530952D01*
X96163095Y-12578571D01*
X96210714Y-12673809D01*
X96210714Y-12911904D01*
X96163095Y-13007142D01*
X96115476Y-13054761D01*
X96020238Y-13102380D01*
X95734523Y-13102380D01*
X95639285Y-13054761D01*
X95591666Y-13007142D01*
X149686904Y-13102380D02*
X149686904Y-12102380D01*
X149925000Y-12102380D01*
X150067857Y-12150000D01*
X150163095Y-12245238D01*
X150210714Y-12340476D01*
X150258333Y-12530952D01*
X150258333Y-12673809D01*
X150210714Y-12864285D01*
X150163095Y-12959523D01*
X150067857Y-13054761D01*
X149925000Y-13102380D01*
X149686904Y-13102380D01*
X151115476Y-12435714D02*
X151115476Y-13102380D01*
X150877380Y-12054761D02*
X150639285Y-12769047D01*
X151258333Y-12769047D01*
X39686904Y-31141803D02*
X39686904Y-30141803D01*
X39925000Y-30141803D01*
X40067857Y-30189423D01*
X40163095Y-30284661D01*
X40210714Y-30379899D01*
X40258333Y-30570375D01*
X40258333Y-30713232D01*
X40210714Y-30903708D01*
X40163095Y-30998946D01*
X40067857Y-31094184D01*
X39925000Y-31141803D01*
X39686904Y-31141803D01*
X41163095Y-30141803D02*
X40686904Y-30141803D01*
X40639285Y-30617994D01*
X40686904Y-30570375D01*
X40782142Y-30522756D01*
X41020238Y-30522756D01*
X41115476Y-30570375D01*
X41163095Y-30617994D01*
X41210714Y-30713232D01*
X41210714Y-30951327D01*
X41163095Y-31046565D01*
X41115476Y-31094184D01*
X41020238Y-31141803D01*
X40782142Y-31141803D01*
X40686904Y-31094184D01*
X40639285Y-31046565D01*
X67186904Y-31141803D02*
X67186904Y-30141803D01*
X67425000Y-30141803D01*
X67567857Y-30189423D01*
X67663095Y-30284661D01*
X67710714Y-30379899D01*
X67758333Y-30570375D01*
X67758333Y-30713232D01*
X67710714Y-30903708D01*
X67663095Y-30998946D01*
X67567857Y-31094184D01*
X67425000Y-31141803D01*
X67186904Y-31141803D01*
X68615476Y-30141803D02*
X68425000Y-30141803D01*
X68329761Y-30189423D01*
X68282142Y-30237042D01*
X68186904Y-30379899D01*
X68139285Y-30570375D01*
X68139285Y-30951327D01*
X68186904Y-31046565D01*
X68234523Y-31094184D01*
X68329761Y-31141803D01*
X68520238Y-31141803D01*
X68615476Y-31094184D01*
X68663095Y-31046565D01*
X68710714Y-30951327D01*
X68710714Y-30713232D01*
X68663095Y-30617994D01*
X68615476Y-30570375D01*
X68520238Y-30522756D01*
X68329761Y-30522756D01*
X68234523Y-30570375D01*
X68186904Y-30617994D01*
X68139285Y-30713232D01*
X94686904Y-31141803D02*
X94686904Y-30141803D01*
X94925000Y-30141803D01*
X95067857Y-30189423D01*
X95163095Y-30284661D01*
X95210714Y-30379899D01*
X95258333Y-30570375D01*
X95258333Y-30713232D01*
X95210714Y-30903708D01*
X95163095Y-30998946D01*
X95067857Y-31094184D01*
X94925000Y-31141803D01*
X94686904Y-31141803D01*
X95591666Y-30141803D02*
X96258333Y-30141803D01*
X95829761Y-31141803D01*
X149686904Y-31141803D02*
X149686904Y-30141803D01*
X149925000Y-30141803D01*
X150067857Y-30189423D01*
X150163095Y-30284661D01*
X150210714Y-30379899D01*
X150258333Y-30570375D01*
X150258333Y-30713232D01*
X150210714Y-30903708D01*
X150163095Y-30998946D01*
X150067857Y-31094184D01*
X149925000Y-31141803D01*
X149686904Y-31141803D01*
X150829761Y-30570375D02*
X150734523Y-30522756D01*
X150686904Y-30475137D01*
X150639285Y-30379899D01*
X150639285Y-30332280D01*
X150686904Y-30237042D01*
X150734523Y-30189423D01*
X150829761Y-30141803D01*
X151020238Y-30141803D01*
X151115476Y-30189423D01*
X151163095Y-30237042D01*
X151210714Y-30332280D01*
X151210714Y-30379899D01*
X151163095Y-30475137D01*
X151115476Y-30522756D01*
X151020238Y-30570375D01*
X150829761Y-30570375D01*
X150734523Y-30617994D01*
X150686904Y-30665613D01*
X150639285Y-30760851D01*
X150639285Y-30951327D01*
X150686904Y-31046565D01*
X150734523Y-31094184D01*
X150829761Y-31141803D01*
X151020238Y-31141803D01*
X151115476Y-31094184D01*
X151163095Y-31046565D01*
X151210714Y-30951327D01*
X151210714Y-30760851D01*
X151163095Y-30665613D01*
X151115476Y-30617994D01*
X151020238Y-30570375D01*
X48686904Y-13102380D02*
X48686904Y-12102380D01*
X48925000Y-12102380D01*
X49067857Y-12150000D01*
X49163095Y-12245238D01*
X49210714Y-12340476D01*
X49258333Y-12530952D01*
X49258333Y-12673809D01*
X49210714Y-12864285D01*
X49163095Y-12959523D01*
X49067857Y-13054761D01*
X48925000Y-13102380D01*
X48686904Y-13102380D01*
X49734523Y-13102380D02*
X49925000Y-13102380D01*
X50020238Y-13054761D01*
X50067857Y-13007142D01*
X50163095Y-12864285D01*
X50210714Y-12673809D01*
X50210714Y-12292857D01*
X50163095Y-12197619D01*
X50115476Y-12150000D01*
X50020238Y-12102380D01*
X49829761Y-12102380D01*
X49734523Y-12150000D01*
X49686904Y-12197619D01*
X49639285Y-12292857D01*
X49639285Y-12530952D01*
X49686904Y-12626190D01*
X49734523Y-12673809D01*
X49829761Y-12721428D01*
X50020238Y-12721428D01*
X50115476Y-12673809D01*
X50163095Y-12626190D01*
X50210714Y-12530952D01*
X75710714Y-13102380D02*
X75710714Y-12102380D01*
X75948809Y-12102380D01*
X76091666Y-12150000D01*
X76186904Y-12245238D01*
X76234523Y-12340476D01*
X76282142Y-12530952D01*
X76282142Y-12673809D01*
X76234523Y-12864285D01*
X76186904Y-12959523D01*
X76091666Y-13054761D01*
X75948809Y-13102380D01*
X75710714Y-13102380D01*
X77234523Y-13102380D02*
X76663095Y-13102380D01*
X76948809Y-13102380D02*
X76948809Y-12102380D01*
X76853571Y-12245238D01*
X76758333Y-12340476D01*
X76663095Y-12388095D01*
X77853571Y-12102380D02*
X77948809Y-12102380D01*
X78044047Y-12150000D01*
X78091666Y-12197619D01*
X78139285Y-12292857D01*
X78186904Y-12483333D01*
X78186904Y-12721428D01*
X78139285Y-12911904D01*
X78091666Y-13007142D01*
X78044047Y-13054761D01*
X77948809Y-13102380D01*
X77853571Y-13102380D01*
X77758333Y-13054761D01*
X77710714Y-13007142D01*
X77663095Y-12911904D01*
X77615476Y-12721428D01*
X77615476Y-12483333D01*
X77663095Y-12292857D01*
X77710714Y-12197619D01*
X77758333Y-12150000D01*
X77853571Y-12102380D01*
X103210714Y-13102380D02*
X103210714Y-12102380D01*
X103448809Y-12102380D01*
X103591666Y-12150000D01*
X103686904Y-12245238D01*
X103734523Y-12340476D01*
X103782142Y-12530952D01*
X103782142Y-12673809D01*
X103734523Y-12864285D01*
X103686904Y-12959523D01*
X103591666Y-13054761D01*
X103448809Y-13102380D01*
X103210714Y-13102380D01*
X104734523Y-13102380D02*
X104163095Y-13102380D01*
X104448809Y-13102380D02*
X104448809Y-12102380D01*
X104353571Y-12245238D01*
X104258333Y-12340476D01*
X104163095Y-12388095D01*
X105686904Y-13102380D02*
X105115476Y-13102380D01*
X105401190Y-13102380D02*
X105401190Y-12102380D01*
X105305952Y-12245238D01*
X105210714Y-12340476D01*
X105115476Y-12388095D01*
X158210714Y-13102380D02*
X158210714Y-12102380D01*
X158448809Y-12102380D01*
X158591666Y-12150000D01*
X158686904Y-12245238D01*
X158734523Y-12340476D01*
X158782142Y-12530952D01*
X158782142Y-12673809D01*
X158734523Y-12864285D01*
X158686904Y-12959523D01*
X158591666Y-13054761D01*
X158448809Y-13102380D01*
X158210714Y-13102380D01*
X159734523Y-13102380D02*
X159163095Y-13102380D01*
X159448809Y-13102380D02*
X159448809Y-12102380D01*
X159353571Y-12245238D01*
X159258333Y-12340476D01*
X159163095Y-12388095D01*
X160115476Y-12197619D02*
X160163095Y-12150000D01*
X160258333Y-12102380D01*
X160496428Y-12102380D01*
X160591666Y-12150000D01*
X160639285Y-12197619D01*
X160686904Y-12292857D01*
X160686904Y-12388095D01*
X160639285Y-12530952D01*
X160067857Y-13102380D01*
X160686904Y-13102380D01*
X48210714Y-31141803D02*
X48210714Y-30141803D01*
X48448809Y-30141803D01*
X48591666Y-30189423D01*
X48686904Y-30284661D01*
X48734523Y-30379899D01*
X48782142Y-30570375D01*
X48782142Y-30713232D01*
X48734523Y-30903708D01*
X48686904Y-30998946D01*
X48591666Y-31094184D01*
X48448809Y-31141803D01*
X48210714Y-31141803D01*
X49734523Y-31141803D02*
X49163095Y-31141803D01*
X49448809Y-31141803D02*
X49448809Y-30141803D01*
X49353571Y-30284661D01*
X49258333Y-30379899D01*
X49163095Y-30427518D01*
X50067857Y-30141803D02*
X50686904Y-30141803D01*
X50353571Y-30522756D01*
X50496428Y-30522756D01*
X50591666Y-30570375D01*
X50639285Y-30617994D01*
X50686904Y-30713232D01*
X50686904Y-30951327D01*
X50639285Y-31046565D01*
X50591666Y-31094184D01*
X50496428Y-31141803D01*
X50210714Y-31141803D01*
X50115476Y-31094184D01*
X50067857Y-31046565D01*
X75710714Y-31141803D02*
X75710714Y-30141803D01*
X75948809Y-30141803D01*
X76091666Y-30189423D01*
X76186904Y-30284661D01*
X76234523Y-30379899D01*
X76282142Y-30570375D01*
X76282142Y-30713232D01*
X76234523Y-30903708D01*
X76186904Y-30998946D01*
X76091666Y-31094184D01*
X75948809Y-31141803D01*
X75710714Y-31141803D01*
X77234523Y-31141803D02*
X76663095Y-31141803D01*
X76948809Y-31141803D02*
X76948809Y-30141803D01*
X76853571Y-30284661D01*
X76758333Y-30379899D01*
X76663095Y-30427518D01*
X78091666Y-30475137D02*
X78091666Y-31141803D01*
X77853571Y-30094184D02*
X77615476Y-30808470D01*
X78234523Y-30808470D01*
X103210714Y-31141803D02*
X103210714Y-30141803D01*
X103448809Y-30141803D01*
X103591666Y-30189423D01*
X103686904Y-30284661D01*
X103734523Y-30379899D01*
X103782142Y-30570375D01*
X103782142Y-30713232D01*
X103734523Y-30903708D01*
X103686904Y-30998946D01*
X103591666Y-31094184D01*
X103448809Y-31141803D01*
X103210714Y-31141803D01*
X104734523Y-31141803D02*
X104163095Y-31141803D01*
X104448809Y-31141803D02*
X104448809Y-30141803D01*
X104353571Y-30284661D01*
X104258333Y-30379899D01*
X104163095Y-30427518D01*
X105639285Y-30141803D02*
X105163095Y-30141803D01*
X105115476Y-30617994D01*
X105163095Y-30570375D01*
X105258333Y-30522756D01*
X105496428Y-30522756D01*
X105591666Y-30570375D01*
X105639285Y-30617994D01*
X105686904Y-30713232D01*
X105686904Y-30951327D01*
X105639285Y-31046565D01*
X105591666Y-31094184D01*
X105496428Y-31141803D01*
X105258333Y-31141803D01*
X105163095Y-31094184D01*
X105115476Y-31046565D01*
X158210714Y-31141803D02*
X158210714Y-30141803D01*
X158448809Y-30141803D01*
X158591666Y-30189423D01*
X158686904Y-30284661D01*
X158734523Y-30379899D01*
X158782142Y-30570375D01*
X158782142Y-30713232D01*
X158734523Y-30903708D01*
X158686904Y-30998946D01*
X158591666Y-31094184D01*
X158448809Y-31141803D01*
X158210714Y-31141803D01*
X159734523Y-31141803D02*
X159163095Y-31141803D01*
X159448809Y-31141803D02*
X159448809Y-30141803D01*
X159353571Y-30284661D01*
X159258333Y-30379899D01*
X159163095Y-30427518D01*
X160591666Y-30141803D02*
X160401190Y-30141803D01*
X160305952Y-30189423D01*
X160258333Y-30237042D01*
X160163095Y-30379899D01*
X160115476Y-30570375D01*
X160115476Y-30951327D01*
X160163095Y-31046565D01*
X160210714Y-31094184D01*
X160305952Y-31141803D01*
X160496428Y-31141803D01*
X160591666Y-31094184D01*
X160639285Y-31046565D01*
X160686904Y-30951327D01*
X160686904Y-30713232D01*
X160639285Y-30617994D01*
X160591666Y-30570375D01*
X160496428Y-30522756D01*
X160305952Y-30522756D01*
X160210714Y-30570375D01*
X160163095Y-30617994D01*
X160115476Y-30713232D01*
X90872666Y-124910380D02*
X90872666Y-125624666D01*
X90825047Y-125767523D01*
X90729809Y-125862761D01*
X90586952Y-125910380D01*
X90491714Y-125910380D01*
X91777428Y-125243714D02*
X91777428Y-125910380D01*
X91539333Y-124862761D02*
X91301238Y-125577047D01*
X91920285Y-125577047D01*
X101560666Y-124910380D02*
X101560666Y-125624666D01*
X101513047Y-125767523D01*
X101417809Y-125862761D01*
X101274952Y-125910380D01*
X101179714Y-125910380D01*
X102513047Y-124910380D02*
X102036857Y-124910380D01*
X101989238Y-125386571D01*
X102036857Y-125338952D01*
X102132095Y-125291333D01*
X102370190Y-125291333D01*
X102465428Y-125338952D01*
X102513047Y-125386571D01*
X102560666Y-125481809D01*
X102560666Y-125719904D01*
X102513047Y-125815142D01*
X102465428Y-125862761D01*
X102370190Y-125910380D01*
X102132095Y-125910380D01*
X102036857Y-125862761D01*
X101989238Y-125815142D01*
X55622380Y-20166666D02*
X55146190Y-20500000D01*
X55622380Y-20738095D02*
X54622380Y-20738095D01*
X54622380Y-20357142D01*
X54670000Y-20261904D01*
X54717619Y-20214285D01*
X54812857Y-20166666D01*
X54955714Y-20166666D01*
X55050952Y-20214285D01*
X55098571Y-20261904D01*
X55146190Y-20357142D01*
X55146190Y-20738095D01*
X55622380Y-19214285D02*
X55622380Y-19785714D01*
X55622380Y-19500000D02*
X54622380Y-19500000D01*
X54765238Y-19595238D01*
X54860476Y-19690476D01*
X54908095Y-19785714D01*
X81622380Y-20166666D02*
X81146190Y-20500000D01*
X81622380Y-20738095D02*
X80622380Y-20738095D01*
X80622380Y-20357142D01*
X80670000Y-20261904D01*
X80717619Y-20214285D01*
X80812857Y-20166666D01*
X80955714Y-20166666D01*
X81050952Y-20214285D01*
X81098571Y-20261904D01*
X81146190Y-20357142D01*
X81146190Y-20738095D01*
X80717619Y-19785714D02*
X80670000Y-19738095D01*
X80622380Y-19642857D01*
X80622380Y-19404761D01*
X80670000Y-19309523D01*
X80717619Y-19261904D01*
X80812857Y-19214285D01*
X80908095Y-19214285D01*
X81050952Y-19261904D01*
X81622380Y-19833333D01*
X81622380Y-19214285D01*
X109222380Y-20166666D02*
X108746190Y-20500000D01*
X109222380Y-20738095D02*
X108222380Y-20738095D01*
X108222380Y-20357142D01*
X108270000Y-20261904D01*
X108317619Y-20214285D01*
X108412857Y-20166666D01*
X108555714Y-20166666D01*
X108650952Y-20214285D01*
X108698571Y-20261904D01*
X108746190Y-20357142D01*
X108746190Y-20738095D01*
X108222380Y-19833333D02*
X108222380Y-19214285D01*
X108603333Y-19547619D01*
X108603333Y-19404761D01*
X108650952Y-19309523D01*
X108698571Y-19261904D01*
X108793809Y-19214285D01*
X109031904Y-19214285D01*
X109127142Y-19261904D01*
X109174761Y-19309523D01*
X109222380Y-19404761D01*
X109222380Y-19690476D01*
X109174761Y-19785714D01*
X109127142Y-19833333D01*
X163822380Y-20166666D02*
X163346190Y-20500000D01*
X163822380Y-20738095D02*
X162822380Y-20738095D01*
X162822380Y-20357142D01*
X162870000Y-20261904D01*
X162917619Y-20214285D01*
X163012857Y-20166666D01*
X163155714Y-20166666D01*
X163250952Y-20214285D01*
X163298571Y-20261904D01*
X163346190Y-20357142D01*
X163346190Y-20738095D01*
X163155714Y-19309523D02*
X163822380Y-19309523D01*
X162774761Y-19547619D02*
X163489047Y-19785714D01*
X163489047Y-19166666D01*
X55122380Y-38166666D02*
X54646190Y-38500000D01*
X55122380Y-38738095D02*
X54122380Y-38738095D01*
X54122380Y-38357142D01*
X54170000Y-38261904D01*
X54217619Y-38214285D01*
X54312857Y-38166666D01*
X54455714Y-38166666D01*
X54550952Y-38214285D01*
X54598571Y-38261904D01*
X54646190Y-38357142D01*
X54646190Y-38738095D01*
X54122380Y-37261904D02*
X54122380Y-37738095D01*
X54598571Y-37785714D01*
X54550952Y-37738095D01*
X54503333Y-37642857D01*
X54503333Y-37404761D01*
X54550952Y-37309523D01*
X54598571Y-37261904D01*
X54693809Y-37214285D01*
X54931904Y-37214285D01*
X55027142Y-37261904D01*
X55074761Y-37309523D01*
X55122380Y-37404761D01*
X55122380Y-37642857D01*
X55074761Y-37738095D01*
X55027142Y-37785714D01*
X81422380Y-38166666D02*
X80946190Y-38500000D01*
X81422380Y-38738095D02*
X80422380Y-38738095D01*
X80422380Y-38357142D01*
X80470000Y-38261904D01*
X80517619Y-38214285D01*
X80612857Y-38166666D01*
X80755714Y-38166666D01*
X80850952Y-38214285D01*
X80898571Y-38261904D01*
X80946190Y-38357142D01*
X80946190Y-38738095D01*
X80422380Y-37309523D02*
X80422380Y-37500000D01*
X80470000Y-37595238D01*
X80517619Y-37642857D01*
X80660476Y-37738095D01*
X80850952Y-37785714D01*
X81231904Y-37785714D01*
X81327142Y-37738095D01*
X81374761Y-37690476D01*
X81422380Y-37595238D01*
X81422380Y-37404761D01*
X81374761Y-37309523D01*
X81327142Y-37261904D01*
X81231904Y-37214285D01*
X80993809Y-37214285D01*
X80898571Y-37261904D01*
X80850952Y-37309523D01*
X80803333Y-37404761D01*
X80803333Y-37595238D01*
X80850952Y-37690476D01*
X80898571Y-37738095D01*
X80993809Y-37785714D01*
X108822380Y-38166666D02*
X108346190Y-38500000D01*
X108822380Y-38738095D02*
X107822380Y-38738095D01*
X107822380Y-38357142D01*
X107870000Y-38261904D01*
X107917619Y-38214285D01*
X108012857Y-38166666D01*
X108155714Y-38166666D01*
X108250952Y-38214285D01*
X108298571Y-38261904D01*
X108346190Y-38357142D01*
X108346190Y-38738095D01*
X107822380Y-37833333D02*
X107822380Y-37166666D01*
X108822380Y-37595238D01*
X163722380Y-38166666D02*
X163246190Y-38500000D01*
X163722380Y-38738095D02*
X162722380Y-38738095D01*
X162722380Y-38357142D01*
X162770000Y-38261904D01*
X162817619Y-38214285D01*
X162912857Y-38166666D01*
X163055714Y-38166666D01*
X163150952Y-38214285D01*
X163198571Y-38261904D01*
X163246190Y-38357142D01*
X163246190Y-38738095D01*
X163150952Y-37595238D02*
X163103333Y-37690476D01*
X163055714Y-37738095D01*
X162960476Y-37785714D01*
X162912857Y-37785714D01*
X162817619Y-37738095D01*
X162770000Y-37690476D01*
X162722380Y-37595238D01*
X162722380Y-37404761D01*
X162770000Y-37309523D01*
X162817619Y-37261904D01*
X162912857Y-37214285D01*
X162960476Y-37214285D01*
X163055714Y-37261904D01*
X163103333Y-37309523D01*
X163150952Y-37404761D01*
X163150952Y-37595238D01*
X163198571Y-37690476D01*
X163246190Y-37738095D01*
X163341428Y-37785714D01*
X163531904Y-37785714D01*
X163627142Y-37738095D01*
X163674761Y-37690476D01*
X163722380Y-37595238D01*
X163722380Y-37404761D01*
X163674761Y-37309523D01*
X163627142Y-37261904D01*
X163531904Y-37214285D01*
X163341428Y-37214285D01*
X163246190Y-37261904D01*
X163198571Y-37309523D01*
X163150952Y-37404761D01*
D13*
X59715641Y-112403587D02*
X59715641Y-112646218D01*
X59729914Y-112674762D01*
X59744186Y-112689035D01*
X59772731Y-112703307D01*
X59829820Y-112703307D01*
X59858365Y-112689035D01*
X59872638Y-112674762D01*
X59886910Y-112646218D01*
X59886910Y-112403587D01*
X60172358Y-112403587D02*
X60029634Y-112403587D01*
X60015361Y-112546311D01*
X60029634Y-112532039D01*
X60058179Y-112517766D01*
X60129540Y-112517766D01*
X60158085Y-112532039D01*
X60172358Y-112546311D01*
X60186630Y-112574856D01*
X60186630Y-112646218D01*
X60172358Y-112674762D01*
X60158085Y-112689035D01*
X60129540Y-112703307D01*
X60058179Y-112703307D01*
X60029634Y-112689035D01*
X60015361Y-112674762D01*
D14*
D13*
X59465875Y-118718027D02*
X59323151Y-118718027D01*
X59323151Y-118418307D01*
X59537237Y-118418307D02*
X59737050Y-118418307D01*
X59608599Y-118718027D01*
X59894046Y-118546759D02*
X59865501Y-118532486D01*
X59851229Y-118518214D01*
X59836957Y-118489669D01*
X59836957Y-118475397D01*
X59851229Y-118446852D01*
X59865501Y-118432580D01*
X59894046Y-118418307D01*
X59951136Y-118418307D01*
X59979680Y-118432580D01*
X59993953Y-118446852D01*
X60008225Y-118475397D01*
X60008225Y-118489669D01*
X59993953Y-118518214D01*
X59979680Y-118532486D01*
X59951136Y-118546759D01*
X59894046Y-118546759D01*
X59865501Y-118561031D01*
X59851229Y-118575303D01*
X59836957Y-118603848D01*
X59836957Y-118660938D01*
X59851229Y-118689482D01*
X59865501Y-118703755D01*
X59894046Y-118718027D01*
X59951136Y-118718027D01*
X59979680Y-118703755D01*
X59993953Y-118689482D01*
X60008225Y-118660938D01*
X60008225Y-118603848D01*
X59993953Y-118575303D01*
X59979680Y-118561031D01*
X59951136Y-118546759D01*
X60193766Y-118418307D02*
X60222311Y-118418307D01*
X60250856Y-118432580D01*
X60265128Y-118446852D01*
X60279400Y-118475397D01*
X60293673Y-118532486D01*
X60293673Y-118603848D01*
X60279400Y-118660938D01*
X60265128Y-118689482D01*
X60250856Y-118703755D01*
X60222311Y-118718027D01*
X60193766Y-118718027D01*
X60165221Y-118703755D01*
X60150949Y-118689482D01*
X60136677Y-118660938D01*
X60122404Y-118603848D01*
X60122404Y-118532486D01*
X60136677Y-118475397D01*
X60150949Y-118446852D01*
X60165221Y-118432580D01*
X60193766Y-118418307D01*
X60564848Y-118418307D02*
X60422124Y-118418307D01*
X60407852Y-118561031D01*
X60422124Y-118546759D01*
X60450669Y-118532486D01*
X60522031Y-118532486D01*
X60550576Y-118546759D01*
X60564848Y-118561031D01*
X60579120Y-118589576D01*
X60579120Y-118660938D01*
X60564848Y-118689482D01*
X60550576Y-118703755D01*
X60522031Y-118718027D01*
X60450669Y-118718027D01*
X60422124Y-118703755D01*
X60407852Y-118689482D01*
D14*
D10*
X73438095Y-95962380D02*
X73438095Y-96771904D01*
X73485714Y-96867142D01*
X73533333Y-96914761D01*
X73628571Y-96962380D01*
X73819047Y-96962380D01*
X73914285Y-96914761D01*
X73961904Y-96867142D01*
X74009523Y-96771904D01*
X74009523Y-95962380D01*
X74914285Y-95962380D02*
X74723809Y-95962380D01*
X74628571Y-96010000D01*
X74580952Y-96057619D01*
X74485714Y-96200476D01*
X74438095Y-96390952D01*
X74438095Y-96771904D01*
X74485714Y-96867142D01*
X74533333Y-96914761D01*
X74628571Y-96962380D01*
X74819047Y-96962380D01*
X74914285Y-96914761D01*
X74961904Y-96867142D01*
X75009523Y-96771904D01*
X75009523Y-96533809D01*
X74961904Y-96438571D01*
X74914285Y-96390952D01*
X74819047Y-96343333D01*
X74628571Y-96343333D01*
X74533333Y-96390952D01*
X74485714Y-96438571D01*
X74438095Y-96533809D01*
M02*
