G04 #@! TF.GenerationSoftware,KiCad,Pcbnew,(5.1.4)-1*
G04 #@! TF.CreationDate,2019-10-18T18:31:52+09:00*
G04 #@! TF.ProjectId,AirCleaner,41697243-6c65-4616-9e65-722e6b696361,rev?*
G04 #@! TF.SameCoordinates,Original*
G04 #@! TF.FileFunction,Drawing*
%FSLAX46Y46*%
G04 Gerber Fmt 4.6, Leading zero omitted, Abs format (unit mm)*
G04 Created by KiCad (PCBNEW (5.1.4)-1) date 2019-10-18 18:31:52*
%MOMM*%
%LPD*%
G04 APERTURE LIST*
%ADD10C,0.200000*%
%ADD11C,0.312500*%
%ADD12C,0.120000*%
G04 APERTURE END LIST*
D10*
X120000000Y-75000000D02*
X120000000Y-130000000D01*
X0Y-130000000D02*
X120000000Y-130000000D01*
X0Y-75000000D02*
X0Y-130000000D01*
X0Y-75000000D02*
X120000000Y-75000000D01*
X188050000Y-39939003D02*
X214153594Y-39939003D01*
X212903594Y-12439003D02*
X212903594Y-37439003D01*
X194925000Y-14939003D02*
X194925000Y-34939003D01*
X14425000Y-9939003D02*
G75*
G03X14425000Y-9939003I-2000000J0D01*
G01*
X14425000Y-39939003D02*
G75*
G03X14425000Y-39939003I-2000000J0D01*
G01*
X189425000Y-9939003D02*
G75*
G03X189425000Y-9939003I-2000000J0D01*
G01*
X189425000Y-39939003D02*
G75*
G03X189425000Y-39939003I-2000000J0D01*
G01*
X14425000Y-9939003D02*
G75*
G03X14425000Y-9939003I-2000000J0D01*
G01*
X14425000Y-39939003D02*
G75*
G03X14425000Y-39939003I-2000000J0D01*
G01*
X189425000Y-9939003D02*
G75*
G03X189425000Y-9939003I-2000000J0D01*
G01*
X189425000Y-39939003D02*
G75*
G03X189425000Y-39939003I-2000000J0D01*
G01*
X-75000Y-69939003D02*
X199925000Y-69939003D01*
X199925000Y60997D02*
X199925000Y-69939003D01*
X57425000Y-16580726D02*
X32425000Y-16580726D01*
X32425000Y-16580726D02*
X32425000Y-11580726D01*
X57425000Y-29619423D02*
X57425000Y-34619423D01*
X57425000Y-34619423D02*
X32425000Y-34619423D01*
X32425000Y-34619423D02*
X32425000Y-29619423D01*
X139925000Y-16580726D02*
X114925000Y-16580726D01*
X114925000Y-16580726D02*
X114925000Y-11580726D01*
X87425000Y-11580726D02*
X112425000Y-11580726D01*
X112425000Y-11580726D02*
X112425000Y-16580726D01*
X112425000Y-16580726D02*
X87425000Y-16580726D01*
X194925000Y-34939003D02*
X179925000Y-34939003D01*
X179925000Y-34939003D02*
X179925000Y-64939003D01*
X179925000Y-64939003D02*
X19925000Y-64939003D01*
X19925000Y-64939003D02*
X19925000Y-34939003D01*
X19925000Y-34939003D02*
X4925000Y-34939003D01*
X4925000Y-34939003D02*
X4925000Y-14939003D01*
X4925000Y-14939003D02*
X19925000Y-14939003D01*
X19925000Y-14939003D02*
X19925000Y-4939003D01*
X19925000Y-4939003D02*
X179925000Y-4939003D01*
X179925000Y-4939003D02*
X179925000Y-14939003D01*
X179925000Y-14939003D02*
X194925000Y-14939003D01*
X2425000Y19100000D02*
X197425000Y19100000D01*
X199925000Y685997D02*
X199925000Y20350000D01*
X-75000Y685997D02*
X-75000Y20350000D01*
X139925000Y-34619423D02*
X114925000Y-34619423D01*
X114925000Y-34619423D02*
X114925000Y-29619423D01*
X114925000Y-29619423D02*
X139925000Y-29619423D01*
X114925000Y-11580726D02*
X139925000Y-11580726D01*
X139925000Y-11580726D02*
X139925000Y-16580726D01*
X32425000Y-29619423D02*
X57425000Y-29619423D01*
X188050000Y-9939003D02*
X214153594Y-9939003D01*
X212903594Y-2439003D02*
X212903594Y-7439003D01*
X188050000Y-9939003D02*
X214153594Y-9939003D01*
X14925000Y9176136D02*
X184925000Y9176136D01*
X187425000Y-9314003D02*
X187425000Y10426136D01*
X12425000Y-9314003D02*
X12425000Y10426136D01*
X87425000Y-16580726D02*
X87425000Y-11580726D01*
X112425000Y-29619423D02*
X112425000Y-34619423D01*
X112425000Y-34619423D02*
X87425000Y-34619423D01*
X87425000Y-34619423D02*
X87425000Y-29619423D01*
X87425000Y-29619423D02*
X112425000Y-29619423D01*
X59925000Y-11580726D02*
X84925000Y-11580726D01*
X84925000Y-11580726D02*
X84925000Y-16580726D01*
X84925000Y-16580726D02*
X59925000Y-16580726D01*
X32425000Y-11580726D02*
X57425000Y-11580726D01*
X57425000Y-11580726D02*
X57425000Y-16580726D01*
X2425000Y9176136D02*
X9925000Y9176136D01*
X12425000Y-9314003D02*
X12425000Y10426136D01*
X-75000Y685997D02*
X-75000Y10426136D01*
X84925000Y-29619423D02*
X84925000Y-34619423D01*
X84925000Y-34619423D02*
X59925000Y-34619423D01*
X59925000Y-34619423D02*
X59925000Y-29619423D01*
X59925000Y-29619423D02*
X84925000Y-29619423D01*
X59925000Y-16580726D02*
X59925000Y-11580726D01*
X199925000Y60997D02*
X-75000Y60997D01*
X-75000Y-69939003D02*
X-75000Y60997D01*
X142425000Y-11580726D02*
X167425000Y-11580726D01*
X167425000Y-11580726D02*
X167425000Y-16580726D01*
X167425000Y-16580726D02*
X142425000Y-16580726D01*
X142425000Y-16580726D02*
X142425000Y-11580726D01*
X167425000Y-29619423D02*
X167425000Y-34619423D01*
X167425000Y-34619423D02*
X142425000Y-34619423D01*
X142425000Y-34619423D02*
X142425000Y-29619423D01*
X142425000Y-29619423D02*
X167425000Y-29619423D01*
X139925000Y-29619423D02*
X139925000Y-34619423D01*
D11*
X209659546Y-26760431D02*
X209659546Y-25367574D01*
X210611927Y-26117574D01*
X210611927Y-25796145D01*
X210730974Y-25581860D01*
X210850022Y-25474717D01*
X211088117Y-25367574D01*
X211683355Y-25367574D01*
X211921451Y-25474717D01*
X212040498Y-25581860D01*
X212159546Y-25796145D01*
X212159546Y-26439003D01*
X212040498Y-26653288D01*
X211921451Y-26760431D01*
X209659546Y-23974717D02*
X209659546Y-23760431D01*
X209778594Y-23546145D01*
X209897641Y-23439003D01*
X210135736Y-23331860D01*
X210611927Y-23224717D01*
X211207165Y-23224717D01*
X211683355Y-23331860D01*
X211921451Y-23439003D01*
X212040498Y-23546145D01*
X212159546Y-23760431D01*
X212159546Y-23974717D01*
X212040498Y-24189003D01*
X211921451Y-24296145D01*
X211683355Y-24403288D01*
X211207165Y-24510431D01*
X210611927Y-24510431D01*
X210135736Y-24403288D01*
X209897641Y-24296145D01*
X209778594Y-24189003D01*
X209659546Y-23974717D01*
X212159546Y-5367574D02*
X212159546Y-6653288D01*
X212159546Y-6010431D02*
X209659546Y-6010431D01*
X210016689Y-6224717D01*
X210254784Y-6439003D01*
X210373832Y-6653288D01*
X209659546Y-3974717D02*
X209659546Y-3760431D01*
X209778594Y-3546145D01*
X209897641Y-3439003D01*
X210135736Y-3331860D01*
X210611927Y-3224717D01*
X211207165Y-3224717D01*
X211683355Y-3331860D01*
X211921451Y-3439003D01*
X212040498Y-3546145D01*
X212159546Y-3760431D01*
X212159546Y-3974717D01*
X212040498Y-4189003D01*
X211921451Y-4296145D01*
X211683355Y-4403288D01*
X211207165Y-4510431D01*
X210611927Y-4510431D01*
X210135736Y-4403288D01*
X209897641Y-4296145D01*
X209778594Y-4189003D01*
X209659546Y-3974717D01*
X98425000Y9920183D02*
X97139285Y9920183D01*
X97782142Y9920183D02*
X97782142Y12420183D01*
X97567857Y12063040D01*
X97353571Y11824945D01*
X97139285Y11705897D01*
X99175000Y12420183D02*
X100675000Y12420183D01*
X99710714Y9920183D01*
X102603571Y12420183D02*
X101532142Y12420183D01*
X101425000Y11229707D01*
X101532142Y11348755D01*
X101746428Y11467802D01*
X102282142Y11467802D01*
X102496428Y11348755D01*
X102603571Y11229707D01*
X102710714Y10991612D01*
X102710714Y10396374D01*
X102603571Y10158278D01*
X102496428Y10039231D01*
X102282142Y9920183D01*
X101746428Y9920183D01*
X101532142Y10039231D01*
X101425000Y10158278D01*
X4139285Y9920183D02*
X2853571Y9920183D01*
X3496428Y9920183D02*
X3496428Y12420183D01*
X3282142Y12063040D01*
X3067857Y11824945D01*
X2853571Y11705897D01*
X4996428Y12182088D02*
X5103571Y12301136D01*
X5317857Y12420183D01*
X5853571Y12420183D01*
X6067857Y12301136D01*
X6175000Y12182088D01*
X6282142Y11943993D01*
X6282142Y11705897D01*
X6175000Y11348755D01*
X4889285Y9920183D01*
X6282142Y9920183D01*
X7246428Y10158278D02*
X7353571Y10039231D01*
X7246428Y9920183D01*
X7139285Y10039231D01*
X7246428Y10158278D01*
X7246428Y9920183D01*
X9389285Y12420183D02*
X8317857Y12420183D01*
X8210714Y11229707D01*
X8317857Y11348755D01*
X8532142Y11467802D01*
X9067857Y11467802D01*
X9282142Y11348755D01*
X9389285Y11229707D01*
X9496428Y10991612D01*
X9496428Y10396374D01*
X9389285Y10158278D01*
X9282142Y10039231D01*
X9067857Y9920183D01*
X8532142Y9920183D01*
X8317857Y10039231D01*
X8210714Y10158278D01*
X97139285Y22105952D02*
X97246428Y22225000D01*
X97460714Y22344047D01*
X97996428Y22344047D01*
X98210714Y22225000D01*
X98317857Y22105952D01*
X98425000Y21867857D01*
X98425000Y21629761D01*
X98317857Y21272619D01*
X97032142Y19844047D01*
X98425000Y19844047D01*
X99817857Y22344047D02*
X100032142Y22344047D01*
X100246428Y22225000D01*
X100353571Y22105952D01*
X100460714Y21867857D01*
X100567857Y21391666D01*
X100567857Y20796428D01*
X100460714Y20320238D01*
X100353571Y20082142D01*
X100246428Y19963095D01*
X100032142Y19844047D01*
X99817857Y19844047D01*
X99603571Y19963095D01*
X99496428Y20082142D01*
X99389285Y20320238D01*
X99282142Y20796428D01*
X99282142Y21391666D01*
X99389285Y21867857D01*
X99496428Y22105952D01*
X99603571Y22225000D01*
X99817857Y22344047D01*
X101960714Y22344047D02*
X102175000Y22344047D01*
X102389285Y22225000D01*
X102496428Y22105952D01*
X102603571Y21867857D01*
X102710714Y21391666D01*
X102710714Y20796428D01*
X102603571Y20320238D01*
X102496428Y20082142D01*
X102389285Y19963095D01*
X102175000Y19844047D01*
X101960714Y19844047D01*
X101746428Y19963095D01*
X101639285Y20082142D01*
X101532142Y20320238D01*
X101425000Y20796428D01*
X101425000Y21391666D01*
X101532142Y21867857D01*
X101639285Y22105952D01*
X101746428Y22225000D01*
X101960714Y22344047D01*
D12*
X14190000Y-126570000D02*
X50890000Y-126570000D01*
X50890000Y-126570000D02*
X50890000Y-78870000D01*
X14190000Y-126570000D02*
X14190000Y-78870000D01*
X14190000Y-78870000D02*
X50890000Y-78870000D01*
X102040000Y-100000000D02*
G75*
G03X102040000Y-100000000I-4500000J0D01*
G01*
X38000000Y-39450000D02*
X21000000Y-39450000D01*
X38000000Y-59950000D02*
X21000000Y-59950000D01*
X21000000Y-59950000D02*
X21000000Y-39450000D01*
X38000000Y-59950000D02*
X38000000Y-39450000D01*
M02*
