M48
; DRILL file {KiCad (5.1.4)-1} date 19-10-18 금 오후 06:21:39
; FORMAT={-:-/ absolute / metric / decimal}
; #@! TF.CreationDate,2019-10-18T18:21:39+09:00
; #@! TF.GenerationSoftware,Kicad,Pcbnew,(5.1.4)-1
; #@! TF.FileFunction,Plated,1,2,PTH
FMAT,2
METRIC
T1C0.400
T2C0.500
T3C0.650
T4C0.800
T5C0.850
T6C1.000
T7C1.500
T8C2.400
T9C3.200
%
G90
G05
T1
X39.56Y-12.51
X56.11Y-44.09
X56.63Y-24.5
X62.23Y-125.984
X67.03Y-11.9
X67.15Y-93.45
X68.2Y-100.76
X71.79Y-102.96
X72.225Y-94.528
X73.8Y-96.05
X74.168Y-94.488
X76.2Y-110.0
X82.282Y-105.918
X82.36Y-44.13
X82.85Y-114.25
X83.7Y-99.3
X83.701Y-89.499
X86.9Y-93.45
X90.35Y-105.05
X105.45Y-41.65
X109.01Y-43.86
X110.1Y-42.44
X111.7Y-38.4
X111.7Y-42.44
X113.86Y-22.49
X114.6Y-33.95
X116.82Y-13.71
X118.42Y-13.73
X120.6Y-55.45
X127.4Y-31.05
X128.55Y-40.53
X128.57Y-55.78
X131.09Y-56.91
X131.095Y-40.495
X133.635Y-40.635
X133.65Y-54.4
X137.42Y-22.49
X137.445Y-39.585
X137.47Y-43.57
X139.29Y-34.86
X141.395Y-47.525
X141.825Y-32.875
X142.45Y-35.85
X145.43Y-54.05
X145.7Y-41.85
X145.73Y-43.57
X147.07Y-14.08
X147.081Y-32.119
X148.75Y-45.8
T2
X112.6Y-80.0
X113.303Y-78.303
X113.303Y-81.697
X115.0Y-77.6
X115.0Y-82.4
X116.697Y-78.303
X116.697Y-81.697
X117.4Y-80.0
X112.6Y-125.0
X113.303Y-123.303
X113.303Y-126.697
X115.0Y-122.6
X115.0Y-127.4
X116.697Y-123.303
X116.697Y-126.697
X117.4Y-125.0
X3.696Y-39.878
X4.399Y-38.181
X4.399Y-41.575
X6.096Y-37.478
X6.096Y-42.278
X7.793Y-38.181
X7.793Y-41.575
X8.496Y-39.878
X2.6Y-80.0
X3.303Y-78.303
X3.303Y-81.697
X5.0Y-77.6
X5.0Y-82.4
X6.697Y-78.303
X6.697Y-81.697
X7.4Y-80.0
X192.164Y-9.906
X192.867Y-8.209
X192.867Y-11.603
X194.564Y-7.506
X194.564Y-12.306
X196.261Y-8.209
X196.261Y-11.603
X196.964Y-9.906
X3.696Y-9.652
X4.399Y-7.955
X4.399Y-11.349
X6.096Y-7.252
X6.096Y-12.052
X7.793Y-7.955
X7.793Y-11.349
X8.496Y-9.652
X2.6Y-125.0
X3.303Y-123.303
X3.303Y-126.697
X5.0Y-122.6
X5.0Y-127.4
X6.697Y-123.303
X6.697Y-126.697
X7.4Y-125.0
X192.418Y-41.148
X193.121Y-39.451
X193.121Y-42.845
X194.818Y-38.748
X194.818Y-43.548
X196.515Y-39.451
X196.515Y-42.845
X197.218Y-41.148
T3
X40.46Y-84.07
X40.46Y-85.34
X41.73Y-84.07
X41.73Y-85.34
X43.0Y-84.07
X43.0Y-85.34
X44.27Y-84.07
X44.27Y-85.34
X45.54Y-84.07
X45.54Y-85.34
T4
X83.7Y-83.1
X86.24Y-83.1
X88.78Y-83.1
T5
X99.394Y-121.158
X101.894Y-121.158
X104.394Y-121.158
X116.1Y-59.85
X118.6Y-59.85
X89.956Y-121.158
X92.456Y-121.158
X125.8Y-59.85
X128.3Y-59.85
X130.8Y-59.85
T6
X136.75Y-59.11
X136.75Y-61.65
X139.29Y-59.11
X139.29Y-61.65
X141.83Y-59.11
X141.83Y-61.65
X88.55Y-112.86
X88.55Y-115.4
X91.09Y-112.86
X91.09Y-115.4
X93.63Y-112.86
X93.63Y-115.4
T7
X94.34Y-96.8
X94.34Y-103.2
X97.54Y-95.5
X97.54Y-104.5
X100.74Y-96.8
X100.74Y-103.2
X42.25Y-40.0
X42.25Y-60.8
X87.25Y-40.0
X87.25Y-48.0
T8
X29.5Y-44.95
X29.5Y-54.45
T9
X194.818Y-41.148
X115.0Y-80.0
X115.0Y-125.0
X6.096Y-39.878
X5.0Y-80.0
X194.564Y-9.906
X6.096Y-9.652
X5.0Y-125.0
T0
M30
