G04 #@! TF.GenerationSoftware,KiCad,Pcbnew,(5.1.4)-1*
G04 #@! TF.CreationDate,2019-10-18T18:31:52+09:00*
G04 #@! TF.ProjectId,AirCleaner,41697243-6c65-4616-9e65-722e6b696361,rev?*
G04 #@! TF.SameCoordinates,Original*
G04 #@! TF.FileFunction,Soldermask,Bot*
G04 #@! TF.FilePolarity,Negative*
%FSLAX46Y46*%
G04 Gerber Fmt 4.6, Leading zero omitted, Abs format (unit mm)*
G04 Created by KiCad (PCBNEW (5.1.4)-1) date 2019-10-18 18:31:52*
%MOMM*%
%LPD*%
G04 APERTURE LIST*
%ADD10C,0.100000*%
G04 APERTURE END LIST*
D10*
G36*
X115634239Y-121811467D02*
G01*
X115948282Y-121873934D01*
X116539926Y-122119001D01*
X117072392Y-122474784D01*
X117525216Y-122927608D01*
X117880999Y-123460074D01*
X118126066Y-124051718D01*
X118126066Y-124051719D01*
X118251000Y-124679803D01*
X118251000Y-125320197D01*
X118188533Y-125634239D01*
X118126066Y-125948282D01*
X117880999Y-126539926D01*
X117525216Y-127072392D01*
X117072392Y-127525216D01*
X116539926Y-127880999D01*
X115948282Y-128126066D01*
X115634239Y-128188533D01*
X115320197Y-128251000D01*
X114679803Y-128251000D01*
X114365761Y-128188533D01*
X114051718Y-128126066D01*
X113460074Y-127880999D01*
X112927608Y-127525216D01*
X112474784Y-127072392D01*
X112119001Y-126539926D01*
X111873934Y-125948282D01*
X111811467Y-125634239D01*
X111749000Y-125320197D01*
X111749000Y-124679803D01*
X111873934Y-124051719D01*
X111873934Y-124051718D01*
X112119001Y-123460074D01*
X112474784Y-122927608D01*
X112927608Y-122474784D01*
X113460074Y-122119001D01*
X114051718Y-121873934D01*
X114365761Y-121811467D01*
X114679803Y-121749000D01*
X115320197Y-121749000D01*
X115634239Y-121811467D01*
X115634239Y-121811467D01*
G37*
G36*
X5634239Y-121811467D02*
G01*
X5948282Y-121873934D01*
X6539926Y-122119001D01*
X7072392Y-122474784D01*
X7525216Y-122927608D01*
X7880999Y-123460074D01*
X8126066Y-124051718D01*
X8126066Y-124051719D01*
X8251000Y-124679803D01*
X8251000Y-125320197D01*
X8188533Y-125634239D01*
X8126066Y-125948282D01*
X7880999Y-126539926D01*
X7525216Y-127072392D01*
X7072392Y-127525216D01*
X6539926Y-127880999D01*
X5948282Y-128126066D01*
X5634239Y-128188533D01*
X5320197Y-128251000D01*
X4679803Y-128251000D01*
X4365761Y-128188533D01*
X4051718Y-128126066D01*
X3460074Y-127880999D01*
X2927608Y-127525216D01*
X2474784Y-127072392D01*
X2119001Y-126539926D01*
X1873934Y-125948282D01*
X1811467Y-125634239D01*
X1749000Y-125320197D01*
X1749000Y-124679803D01*
X1873934Y-124051719D01*
X1873934Y-124051718D01*
X2119001Y-123460074D01*
X2474784Y-122927608D01*
X2927608Y-122474784D01*
X3460074Y-122119001D01*
X4051718Y-121873934D01*
X4365761Y-121811467D01*
X4679803Y-121749000D01*
X5320197Y-121749000D01*
X5634239Y-121811467D01*
X5634239Y-121811467D01*
G37*
G36*
X99570627Y-120195037D02*
G01*
X99740466Y-120246557D01*
X99896991Y-120330222D01*
X99932729Y-120359552D01*
X100034186Y-120442814D01*
X100117448Y-120544271D01*
X100146778Y-120580009D01*
X100230443Y-120736535D01*
X100281963Y-120906374D01*
X100295000Y-121038743D01*
X100295000Y-121277258D01*
X100281963Y-121409627D01*
X100230443Y-121579466D01*
X100146778Y-121735991D01*
X100117448Y-121771729D01*
X100034186Y-121873186D01*
X99896989Y-121985779D01*
X99740467Y-122069442D01*
X99740465Y-122069443D01*
X99570626Y-122120963D01*
X99394000Y-122138359D01*
X99217373Y-122120963D01*
X99047534Y-122069443D01*
X98891009Y-121985778D01*
X98848750Y-121951097D01*
X98753814Y-121873186D01*
X98641221Y-121735989D01*
X98557558Y-121579467D01*
X98557557Y-121579465D01*
X98506037Y-121409626D01*
X98493000Y-121277257D01*
X98493000Y-121038742D01*
X98506037Y-120906373D01*
X98557557Y-120736534D01*
X98641222Y-120580009D01*
X98685217Y-120526401D01*
X98753814Y-120442815D01*
X98848751Y-120364903D01*
X98891010Y-120330222D01*
X99047535Y-120246557D01*
X99217374Y-120195037D01*
X99394000Y-120177641D01*
X99570627Y-120195037D01*
X99570627Y-120195037D01*
G37*
G36*
X90132627Y-120195037D02*
G01*
X90302466Y-120246557D01*
X90458991Y-120330222D01*
X90494729Y-120359552D01*
X90596186Y-120442814D01*
X90679448Y-120544271D01*
X90708778Y-120580009D01*
X90792443Y-120736535D01*
X90843963Y-120906374D01*
X90857000Y-121038743D01*
X90857000Y-121277258D01*
X90843963Y-121409627D01*
X90792443Y-121579466D01*
X90708778Y-121735991D01*
X90679448Y-121771729D01*
X90596186Y-121873186D01*
X90458989Y-121985779D01*
X90302467Y-122069442D01*
X90302465Y-122069443D01*
X90132626Y-122120963D01*
X89956000Y-122138359D01*
X89779373Y-122120963D01*
X89609534Y-122069443D01*
X89453009Y-121985778D01*
X89410750Y-121951097D01*
X89315814Y-121873186D01*
X89203221Y-121735989D01*
X89119558Y-121579467D01*
X89119557Y-121579465D01*
X89068037Y-121409626D01*
X89055000Y-121277257D01*
X89055000Y-121038742D01*
X89068037Y-120906373D01*
X89119557Y-120736534D01*
X89203222Y-120580009D01*
X89247217Y-120526401D01*
X89315814Y-120442815D01*
X89410751Y-120364903D01*
X89453010Y-120330222D01*
X89609535Y-120246557D01*
X89779374Y-120195037D01*
X89956000Y-120177641D01*
X90132627Y-120195037D01*
X90132627Y-120195037D01*
G37*
G36*
X102070627Y-120195037D02*
G01*
X102240466Y-120246557D01*
X102396991Y-120330222D01*
X102432729Y-120359552D01*
X102534186Y-120442814D01*
X102617448Y-120544271D01*
X102646778Y-120580009D01*
X102730443Y-120736535D01*
X102781963Y-120906374D01*
X102795000Y-121038743D01*
X102795000Y-121277258D01*
X102781963Y-121409627D01*
X102730443Y-121579466D01*
X102646778Y-121735991D01*
X102617448Y-121771729D01*
X102534186Y-121873186D01*
X102396989Y-121985779D01*
X102240467Y-122069442D01*
X102240465Y-122069443D01*
X102070626Y-122120963D01*
X101894000Y-122138359D01*
X101717373Y-122120963D01*
X101547534Y-122069443D01*
X101391009Y-121985778D01*
X101348750Y-121951097D01*
X101253814Y-121873186D01*
X101141221Y-121735989D01*
X101057558Y-121579467D01*
X101057557Y-121579465D01*
X101006037Y-121409626D01*
X100993000Y-121277257D01*
X100993000Y-121038742D01*
X101006037Y-120906373D01*
X101057557Y-120736534D01*
X101141222Y-120580009D01*
X101185217Y-120526401D01*
X101253814Y-120442815D01*
X101348751Y-120364903D01*
X101391010Y-120330222D01*
X101547535Y-120246557D01*
X101717374Y-120195037D01*
X101894000Y-120177641D01*
X102070627Y-120195037D01*
X102070627Y-120195037D01*
G37*
G36*
X93214600Y-120185989D02*
G01*
X93247652Y-120196015D01*
X93278103Y-120212292D01*
X93304799Y-120234201D01*
X93326708Y-120260897D01*
X93342985Y-120291348D01*
X93353011Y-120324400D01*
X93357000Y-120364903D01*
X93357000Y-121951097D01*
X93353011Y-121991600D01*
X93342985Y-122024652D01*
X93326708Y-122055103D01*
X93304799Y-122081799D01*
X93278103Y-122103708D01*
X93247652Y-122119985D01*
X93214600Y-122130011D01*
X93174097Y-122134000D01*
X91737903Y-122134000D01*
X91697400Y-122130011D01*
X91664348Y-122119985D01*
X91633897Y-122103708D01*
X91607201Y-122081799D01*
X91585292Y-122055103D01*
X91569015Y-122024652D01*
X91558989Y-121991600D01*
X91555000Y-121951097D01*
X91555000Y-120364903D01*
X91558989Y-120324400D01*
X91569015Y-120291348D01*
X91585292Y-120260897D01*
X91607201Y-120234201D01*
X91633897Y-120212292D01*
X91664348Y-120196015D01*
X91697400Y-120185989D01*
X91737903Y-120182000D01*
X93174097Y-120182000D01*
X93214600Y-120185989D01*
X93214600Y-120185989D01*
G37*
G36*
X105152600Y-120185989D02*
G01*
X105185652Y-120196015D01*
X105216103Y-120212292D01*
X105242799Y-120234201D01*
X105264708Y-120260897D01*
X105280985Y-120291348D01*
X105291011Y-120324400D01*
X105295000Y-120364903D01*
X105295000Y-121951097D01*
X105291011Y-121991600D01*
X105280985Y-122024652D01*
X105264708Y-122055103D01*
X105242799Y-122081799D01*
X105216103Y-122103708D01*
X105185652Y-122119985D01*
X105152600Y-122130011D01*
X105112097Y-122134000D01*
X103675903Y-122134000D01*
X103635400Y-122130011D01*
X103602348Y-122119985D01*
X103571897Y-122103708D01*
X103545201Y-122081799D01*
X103523292Y-122055103D01*
X103507015Y-122024652D01*
X103496989Y-121991600D01*
X103493000Y-121951097D01*
X103493000Y-120364903D01*
X103496989Y-120324400D01*
X103507015Y-120291348D01*
X103523292Y-120260897D01*
X103545201Y-120234201D01*
X103571897Y-120212292D01*
X103602348Y-120196015D01*
X103635400Y-120185989D01*
X103675903Y-120182000D01*
X105112097Y-120182000D01*
X105152600Y-120185989D01*
X105152600Y-120185989D01*
G37*
G36*
X93740443Y-114505519D02*
G01*
X93806627Y-114512037D01*
X93976466Y-114563557D01*
X94132991Y-114647222D01*
X94168729Y-114676552D01*
X94270186Y-114759814D01*
X94353448Y-114861271D01*
X94382778Y-114897009D01*
X94466443Y-115053534D01*
X94517963Y-115223373D01*
X94535359Y-115400000D01*
X94517963Y-115576627D01*
X94466443Y-115746466D01*
X94382778Y-115902991D01*
X94353448Y-115938729D01*
X94270186Y-116040186D01*
X94168729Y-116123448D01*
X94132991Y-116152778D01*
X93976466Y-116236443D01*
X93806627Y-116287963D01*
X93740442Y-116294482D01*
X93674260Y-116301000D01*
X93585740Y-116301000D01*
X93519558Y-116294482D01*
X93453373Y-116287963D01*
X93283534Y-116236443D01*
X93127009Y-116152778D01*
X93091271Y-116123448D01*
X92989814Y-116040186D01*
X92906552Y-115938729D01*
X92877222Y-115902991D01*
X92793557Y-115746466D01*
X92742037Y-115576627D01*
X92724641Y-115400000D01*
X92742037Y-115223373D01*
X92793557Y-115053534D01*
X92877222Y-114897009D01*
X92906552Y-114861271D01*
X92989814Y-114759814D01*
X93091271Y-114676552D01*
X93127009Y-114647222D01*
X93283534Y-114563557D01*
X93453373Y-114512037D01*
X93519557Y-114505519D01*
X93585740Y-114499000D01*
X93674260Y-114499000D01*
X93740443Y-114505519D01*
X93740443Y-114505519D01*
G37*
G36*
X91200443Y-114505519D02*
G01*
X91266627Y-114512037D01*
X91436466Y-114563557D01*
X91592991Y-114647222D01*
X91628729Y-114676552D01*
X91730186Y-114759814D01*
X91813448Y-114861271D01*
X91842778Y-114897009D01*
X91926443Y-115053534D01*
X91977963Y-115223373D01*
X91995359Y-115400000D01*
X91977963Y-115576627D01*
X91926443Y-115746466D01*
X91842778Y-115902991D01*
X91813448Y-115938729D01*
X91730186Y-116040186D01*
X91628729Y-116123448D01*
X91592991Y-116152778D01*
X91436466Y-116236443D01*
X91266627Y-116287963D01*
X91200442Y-116294482D01*
X91134260Y-116301000D01*
X91045740Y-116301000D01*
X90979558Y-116294482D01*
X90913373Y-116287963D01*
X90743534Y-116236443D01*
X90587009Y-116152778D01*
X90551271Y-116123448D01*
X90449814Y-116040186D01*
X90366552Y-115938729D01*
X90337222Y-115902991D01*
X90253557Y-115746466D01*
X90202037Y-115576627D01*
X90184641Y-115400000D01*
X90202037Y-115223373D01*
X90253557Y-115053534D01*
X90337222Y-114897009D01*
X90366552Y-114861271D01*
X90449814Y-114759814D01*
X90551271Y-114676552D01*
X90587009Y-114647222D01*
X90743534Y-114563557D01*
X90913373Y-114512037D01*
X90979557Y-114505519D01*
X91045740Y-114499000D01*
X91134260Y-114499000D01*
X91200443Y-114505519D01*
X91200443Y-114505519D01*
G37*
G36*
X89451000Y-116301000D02*
G01*
X87649000Y-116301000D01*
X87649000Y-114499000D01*
X89451000Y-114499000D01*
X89451000Y-116301000D01*
X89451000Y-116301000D01*
G37*
G36*
X93740442Y-111965518D02*
G01*
X93806627Y-111972037D01*
X93976466Y-112023557D01*
X94132991Y-112107222D01*
X94168729Y-112136552D01*
X94270186Y-112219814D01*
X94353448Y-112321271D01*
X94382778Y-112357009D01*
X94466443Y-112513534D01*
X94517963Y-112683373D01*
X94535359Y-112860000D01*
X94517963Y-113036627D01*
X94466443Y-113206466D01*
X94382778Y-113362991D01*
X94353448Y-113398729D01*
X94270186Y-113500186D01*
X94168729Y-113583448D01*
X94132991Y-113612778D01*
X93976466Y-113696443D01*
X93806627Y-113747963D01*
X93740443Y-113754481D01*
X93674260Y-113761000D01*
X93585740Y-113761000D01*
X93519557Y-113754481D01*
X93453373Y-113747963D01*
X93283534Y-113696443D01*
X93127009Y-113612778D01*
X93091271Y-113583448D01*
X92989814Y-113500186D01*
X92906552Y-113398729D01*
X92877222Y-113362991D01*
X92793557Y-113206466D01*
X92742037Y-113036627D01*
X92724641Y-112860000D01*
X92742037Y-112683373D01*
X92793557Y-112513534D01*
X92877222Y-112357009D01*
X92906552Y-112321271D01*
X92989814Y-112219814D01*
X93091271Y-112136552D01*
X93127009Y-112107222D01*
X93283534Y-112023557D01*
X93453373Y-111972037D01*
X93519558Y-111965518D01*
X93585740Y-111959000D01*
X93674260Y-111959000D01*
X93740442Y-111965518D01*
X93740442Y-111965518D01*
G37*
G36*
X88660442Y-111965518D02*
G01*
X88726627Y-111972037D01*
X88896466Y-112023557D01*
X89052991Y-112107222D01*
X89088729Y-112136552D01*
X89190186Y-112219814D01*
X89273448Y-112321271D01*
X89302778Y-112357009D01*
X89386443Y-112513534D01*
X89437963Y-112683373D01*
X89455359Y-112860000D01*
X89437963Y-113036627D01*
X89386443Y-113206466D01*
X89302778Y-113362991D01*
X89273448Y-113398729D01*
X89190186Y-113500186D01*
X89088729Y-113583448D01*
X89052991Y-113612778D01*
X88896466Y-113696443D01*
X88726627Y-113747963D01*
X88660443Y-113754481D01*
X88594260Y-113761000D01*
X88505740Y-113761000D01*
X88439557Y-113754481D01*
X88373373Y-113747963D01*
X88203534Y-113696443D01*
X88047009Y-113612778D01*
X88011271Y-113583448D01*
X87909814Y-113500186D01*
X87826552Y-113398729D01*
X87797222Y-113362991D01*
X87713557Y-113206466D01*
X87662037Y-113036627D01*
X87644641Y-112860000D01*
X87662037Y-112683373D01*
X87713557Y-112513534D01*
X87797222Y-112357009D01*
X87826552Y-112321271D01*
X87909814Y-112219814D01*
X88011271Y-112136552D01*
X88047009Y-112107222D01*
X88203534Y-112023557D01*
X88373373Y-111972037D01*
X88439558Y-111965518D01*
X88505740Y-111959000D01*
X88594260Y-111959000D01*
X88660442Y-111965518D01*
X88660442Y-111965518D01*
G37*
G36*
X91200442Y-111965518D02*
G01*
X91266627Y-111972037D01*
X91436466Y-112023557D01*
X91592991Y-112107222D01*
X91628729Y-112136552D01*
X91730186Y-112219814D01*
X91813448Y-112321271D01*
X91842778Y-112357009D01*
X91926443Y-112513534D01*
X91977963Y-112683373D01*
X91995359Y-112860000D01*
X91977963Y-113036627D01*
X91926443Y-113206466D01*
X91842778Y-113362991D01*
X91813448Y-113398729D01*
X91730186Y-113500186D01*
X91628729Y-113583448D01*
X91592991Y-113612778D01*
X91436466Y-113696443D01*
X91266627Y-113747963D01*
X91200443Y-113754481D01*
X91134260Y-113761000D01*
X91045740Y-113761000D01*
X90979557Y-113754481D01*
X90913373Y-113747963D01*
X90743534Y-113696443D01*
X90587009Y-113612778D01*
X90551271Y-113583448D01*
X90449814Y-113500186D01*
X90366552Y-113398729D01*
X90337222Y-113362991D01*
X90253557Y-113206466D01*
X90202037Y-113036627D01*
X90184641Y-112860000D01*
X90202037Y-112683373D01*
X90253557Y-112513534D01*
X90337222Y-112357009D01*
X90366552Y-112321271D01*
X90449814Y-112219814D01*
X90551271Y-112136552D01*
X90587009Y-112107222D01*
X90743534Y-112023557D01*
X90913373Y-111972037D01*
X90979558Y-111965518D01*
X91045740Y-111959000D01*
X91134260Y-111959000D01*
X91200442Y-111965518D01*
X91200442Y-111965518D01*
G37*
G36*
X97764549Y-103371116D02*
G01*
X97875734Y-103393232D01*
X98085203Y-103479997D01*
X98273720Y-103605960D01*
X98434040Y-103766280D01*
X98560003Y-103954797D01*
X98646768Y-104164266D01*
X98691000Y-104386636D01*
X98691000Y-104613364D01*
X98646768Y-104835734D01*
X98560003Y-105045203D01*
X98434040Y-105233720D01*
X98273720Y-105394040D01*
X98085203Y-105520003D01*
X97875734Y-105606768D01*
X97764549Y-105628884D01*
X97653365Y-105651000D01*
X97426635Y-105651000D01*
X97315451Y-105628884D01*
X97204266Y-105606768D01*
X96994797Y-105520003D01*
X96806280Y-105394040D01*
X96645960Y-105233720D01*
X96519997Y-105045203D01*
X96433232Y-104835734D01*
X96389000Y-104613364D01*
X96389000Y-104386636D01*
X96433232Y-104164266D01*
X96519997Y-103954797D01*
X96645960Y-103766280D01*
X96806280Y-103605960D01*
X96994797Y-103479997D01*
X97204266Y-103393232D01*
X97315451Y-103371116D01*
X97426635Y-103349000D01*
X97653365Y-103349000D01*
X97764549Y-103371116D01*
X97764549Y-103371116D01*
G37*
G36*
X94564549Y-102071116D02*
G01*
X94675734Y-102093232D01*
X94885203Y-102179997D01*
X95073720Y-102305960D01*
X95234040Y-102466280D01*
X95360003Y-102654797D01*
X95446768Y-102864266D01*
X95491000Y-103086636D01*
X95491000Y-103313364D01*
X95446768Y-103535734D01*
X95360003Y-103745203D01*
X95234040Y-103933720D01*
X95073720Y-104094040D01*
X94885203Y-104220003D01*
X94675734Y-104306768D01*
X94564549Y-104328884D01*
X94453365Y-104351000D01*
X94226635Y-104351000D01*
X94115451Y-104328884D01*
X94004266Y-104306768D01*
X93794797Y-104220003D01*
X93606280Y-104094040D01*
X93445960Y-103933720D01*
X93319997Y-103745203D01*
X93233232Y-103535734D01*
X93189000Y-103313364D01*
X93189000Y-103086636D01*
X93233232Y-102864266D01*
X93319997Y-102654797D01*
X93445960Y-102466280D01*
X93606280Y-102305960D01*
X93794797Y-102179997D01*
X94004266Y-102093232D01*
X94115451Y-102071116D01*
X94226635Y-102049000D01*
X94453365Y-102049000D01*
X94564549Y-102071116D01*
X94564549Y-102071116D01*
G37*
G36*
X100964549Y-102071116D02*
G01*
X101075734Y-102093232D01*
X101285203Y-102179997D01*
X101473720Y-102305960D01*
X101634040Y-102466280D01*
X101760003Y-102654797D01*
X101846768Y-102864266D01*
X101891000Y-103086636D01*
X101891000Y-103313364D01*
X101846768Y-103535734D01*
X101760003Y-103745203D01*
X101634040Y-103933720D01*
X101473720Y-104094040D01*
X101285203Y-104220003D01*
X101075734Y-104306768D01*
X100964549Y-104328884D01*
X100853365Y-104351000D01*
X100626635Y-104351000D01*
X100515451Y-104328884D01*
X100404266Y-104306768D01*
X100194797Y-104220003D01*
X100006280Y-104094040D01*
X99845960Y-103933720D01*
X99719997Y-103745203D01*
X99633232Y-103535734D01*
X99589000Y-103313364D01*
X99589000Y-103086636D01*
X99633232Y-102864266D01*
X99719997Y-102654797D01*
X99845960Y-102466280D01*
X100006280Y-102305960D01*
X100194797Y-102179997D01*
X100404266Y-102093232D01*
X100515451Y-102071116D01*
X100626635Y-102049000D01*
X100853365Y-102049000D01*
X100964549Y-102071116D01*
X100964549Y-102071116D01*
G37*
G36*
X94564549Y-95671116D02*
G01*
X94675734Y-95693232D01*
X94885203Y-95779997D01*
X95073720Y-95905960D01*
X95234040Y-96066280D01*
X95360003Y-96254797D01*
X95446768Y-96464266D01*
X95491000Y-96686636D01*
X95491000Y-96913364D01*
X95446768Y-97135734D01*
X95360003Y-97345203D01*
X95234040Y-97533720D01*
X95073720Y-97694040D01*
X94885203Y-97820003D01*
X94675734Y-97906768D01*
X94564549Y-97928884D01*
X94453365Y-97951000D01*
X94226635Y-97951000D01*
X94115451Y-97928884D01*
X94004266Y-97906768D01*
X93794797Y-97820003D01*
X93606280Y-97694040D01*
X93445960Y-97533720D01*
X93319997Y-97345203D01*
X93233232Y-97135734D01*
X93189000Y-96913364D01*
X93189000Y-96686636D01*
X93233232Y-96464266D01*
X93319997Y-96254797D01*
X93445960Y-96066280D01*
X93606280Y-95905960D01*
X93794797Y-95779997D01*
X94004266Y-95693232D01*
X94115451Y-95671116D01*
X94226635Y-95649000D01*
X94453365Y-95649000D01*
X94564549Y-95671116D01*
X94564549Y-95671116D01*
G37*
G36*
X100964549Y-95671116D02*
G01*
X101075734Y-95693232D01*
X101285203Y-95779997D01*
X101473720Y-95905960D01*
X101634040Y-96066280D01*
X101760003Y-96254797D01*
X101846768Y-96464266D01*
X101891000Y-96686636D01*
X101891000Y-96913364D01*
X101846768Y-97135734D01*
X101760003Y-97345203D01*
X101634040Y-97533720D01*
X101473720Y-97694040D01*
X101285203Y-97820003D01*
X101075734Y-97906768D01*
X100964549Y-97928884D01*
X100853365Y-97951000D01*
X100626635Y-97951000D01*
X100515451Y-97928884D01*
X100404266Y-97906768D01*
X100194797Y-97820003D01*
X100006280Y-97694040D01*
X99845960Y-97533720D01*
X99719997Y-97345203D01*
X99633232Y-97135734D01*
X99589000Y-96913364D01*
X99589000Y-96686636D01*
X99633232Y-96464266D01*
X99719997Y-96254797D01*
X99845960Y-96066280D01*
X100006280Y-95905960D01*
X100194797Y-95779997D01*
X100404266Y-95693232D01*
X100515451Y-95671116D01*
X100626635Y-95649000D01*
X100853365Y-95649000D01*
X100964549Y-95671116D01*
X100964549Y-95671116D01*
G37*
G36*
X97764549Y-94371116D02*
G01*
X97875734Y-94393232D01*
X98085203Y-94479997D01*
X98273720Y-94605960D01*
X98434040Y-94766280D01*
X98560003Y-94954797D01*
X98646768Y-95164266D01*
X98691000Y-95386636D01*
X98691000Y-95613364D01*
X98646768Y-95835734D01*
X98560003Y-96045203D01*
X98434040Y-96233720D01*
X98273720Y-96394040D01*
X98085203Y-96520003D01*
X97875734Y-96606768D01*
X97764549Y-96628884D01*
X97653365Y-96651000D01*
X97426635Y-96651000D01*
X97315451Y-96628884D01*
X97204266Y-96606768D01*
X96994797Y-96520003D01*
X96806280Y-96394040D01*
X96645960Y-96233720D01*
X96519997Y-96045203D01*
X96433232Y-95835734D01*
X96389000Y-95613364D01*
X96389000Y-95386636D01*
X96433232Y-95164266D01*
X96519997Y-94954797D01*
X96645960Y-94766280D01*
X96806280Y-94605960D01*
X96994797Y-94479997D01*
X97204266Y-94393232D01*
X97315451Y-94371116D01*
X97426635Y-94349000D01*
X97653365Y-94349000D01*
X97764549Y-94371116D01*
X97764549Y-94371116D01*
G37*
G36*
X40568015Y-83526973D02*
G01*
X40671879Y-83558479D01*
X40699055Y-83573005D01*
X40767600Y-83609643D01*
X40851501Y-83678499D01*
X40920357Y-83762400D01*
X40931662Y-83783551D01*
X40971521Y-83858121D01*
X40975388Y-83870869D01*
X40984760Y-83893496D01*
X40998374Y-83913870D01*
X41015701Y-83931197D01*
X41036075Y-83944811D01*
X41058714Y-83954188D01*
X41082747Y-83958969D01*
X41107251Y-83958969D01*
X41131285Y-83954189D01*
X41153924Y-83944812D01*
X41174298Y-83931198D01*
X41191625Y-83913871D01*
X41205239Y-83893497D01*
X41214612Y-83870869D01*
X41218479Y-83858121D01*
X41258338Y-83783551D01*
X41269643Y-83762400D01*
X41338499Y-83678499D01*
X41422400Y-83609643D01*
X41490945Y-83573005D01*
X41518121Y-83558479D01*
X41621985Y-83526973D01*
X41702933Y-83519000D01*
X41757067Y-83519000D01*
X41838015Y-83526973D01*
X41941879Y-83558479D01*
X41969055Y-83573005D01*
X42037600Y-83609643D01*
X42121501Y-83678499D01*
X42190357Y-83762400D01*
X42201662Y-83783551D01*
X42241521Y-83858121D01*
X42245388Y-83870869D01*
X42254760Y-83893496D01*
X42268374Y-83913870D01*
X42285701Y-83931197D01*
X42306075Y-83944811D01*
X42328714Y-83954188D01*
X42352747Y-83958969D01*
X42377251Y-83958969D01*
X42401285Y-83954189D01*
X42423924Y-83944812D01*
X42444298Y-83931198D01*
X42461625Y-83913871D01*
X42475239Y-83893497D01*
X42484612Y-83870869D01*
X42488479Y-83858121D01*
X42528338Y-83783551D01*
X42539643Y-83762400D01*
X42608499Y-83678499D01*
X42692400Y-83609643D01*
X42760945Y-83573005D01*
X42788121Y-83558479D01*
X42891985Y-83526973D01*
X42972933Y-83519000D01*
X43027067Y-83519000D01*
X43108015Y-83526973D01*
X43211879Y-83558479D01*
X43239055Y-83573005D01*
X43307600Y-83609643D01*
X43391501Y-83678499D01*
X43460357Y-83762400D01*
X43471662Y-83783551D01*
X43511521Y-83858121D01*
X43515388Y-83870869D01*
X43524760Y-83893496D01*
X43538374Y-83913870D01*
X43555701Y-83931197D01*
X43576075Y-83944811D01*
X43598714Y-83954188D01*
X43622747Y-83958969D01*
X43647251Y-83958969D01*
X43671285Y-83954189D01*
X43693924Y-83944812D01*
X43714298Y-83931198D01*
X43731625Y-83913871D01*
X43745239Y-83893497D01*
X43754612Y-83870869D01*
X43758479Y-83858121D01*
X43798338Y-83783551D01*
X43809643Y-83762400D01*
X43878499Y-83678499D01*
X43962400Y-83609643D01*
X44030945Y-83573005D01*
X44058121Y-83558479D01*
X44161985Y-83526973D01*
X44242933Y-83519000D01*
X44297067Y-83519000D01*
X44378015Y-83526973D01*
X44481879Y-83558479D01*
X44509055Y-83573005D01*
X44577600Y-83609643D01*
X44661501Y-83678499D01*
X44730356Y-83762400D01*
X44753764Y-83806193D01*
X44767375Y-83826563D01*
X44784702Y-83843890D01*
X44805076Y-83857504D01*
X44827715Y-83866881D01*
X44851748Y-83871662D01*
X44876252Y-83871662D01*
X44900286Y-83866882D01*
X44922924Y-83857505D01*
X44943299Y-83843891D01*
X44960626Y-83826564D01*
X44974240Y-83806190D01*
X44983617Y-83783551D01*
X44988398Y-83759518D01*
X44989000Y-83747265D01*
X44989000Y-83519000D01*
X46091000Y-83519000D01*
X46091000Y-84621000D01*
X45862735Y-84621000D01*
X45838349Y-84623402D01*
X45814900Y-84630515D01*
X45793289Y-84642066D01*
X45774347Y-84657611D01*
X45758802Y-84676553D01*
X45747251Y-84698164D01*
X45740138Y-84721613D01*
X45737736Y-84745999D01*
X45740138Y-84770385D01*
X45747251Y-84793834D01*
X45758802Y-84815445D01*
X45774347Y-84834387D01*
X45793289Y-84849932D01*
X45803802Y-84856233D01*
X45847600Y-84879644D01*
X45847602Y-84879645D01*
X45847601Y-84879645D01*
X45931501Y-84948499D01*
X46000357Y-85032400D01*
X46036995Y-85100945D01*
X46051521Y-85128121D01*
X46083027Y-85231985D01*
X46093666Y-85340000D01*
X46083027Y-85448015D01*
X46051521Y-85551879D01*
X46051519Y-85551882D01*
X46000357Y-85647600D01*
X45931501Y-85731501D01*
X45847600Y-85800357D01*
X45779055Y-85836995D01*
X45751879Y-85851521D01*
X45648015Y-85883027D01*
X45567067Y-85891000D01*
X45512933Y-85891000D01*
X45431985Y-85883027D01*
X45328121Y-85851521D01*
X45300945Y-85836995D01*
X45232400Y-85800357D01*
X45148499Y-85731501D01*
X45079643Y-85647600D01*
X45028481Y-85551882D01*
X45028479Y-85551879D01*
X45024612Y-85539131D01*
X45015240Y-85516504D01*
X45001626Y-85496130D01*
X44984299Y-85478803D01*
X44963925Y-85465189D01*
X44941286Y-85455812D01*
X44917253Y-85451031D01*
X44892749Y-85451031D01*
X44868715Y-85455811D01*
X44846076Y-85465188D01*
X44825702Y-85478802D01*
X44808375Y-85496129D01*
X44794761Y-85516503D01*
X44785388Y-85539131D01*
X44781521Y-85551879D01*
X44781519Y-85551882D01*
X44730357Y-85647600D01*
X44661501Y-85731501D01*
X44577600Y-85800357D01*
X44509055Y-85836995D01*
X44481879Y-85851521D01*
X44378015Y-85883027D01*
X44297067Y-85891000D01*
X44242933Y-85891000D01*
X44161985Y-85883027D01*
X44058121Y-85851521D01*
X44030945Y-85836995D01*
X43962400Y-85800357D01*
X43878499Y-85731501D01*
X43809643Y-85647600D01*
X43758481Y-85551882D01*
X43758479Y-85551879D01*
X43754612Y-85539131D01*
X43745240Y-85516504D01*
X43731626Y-85496130D01*
X43714299Y-85478803D01*
X43693925Y-85465189D01*
X43671286Y-85455812D01*
X43647253Y-85451031D01*
X43622749Y-85451031D01*
X43598715Y-85455811D01*
X43576076Y-85465188D01*
X43555702Y-85478802D01*
X43538375Y-85496129D01*
X43524761Y-85516503D01*
X43515388Y-85539131D01*
X43511521Y-85551879D01*
X43511519Y-85551882D01*
X43460357Y-85647600D01*
X43391501Y-85731501D01*
X43307600Y-85800357D01*
X43239055Y-85836995D01*
X43211879Y-85851521D01*
X43108015Y-85883027D01*
X43027067Y-85891000D01*
X42972933Y-85891000D01*
X42891985Y-85883027D01*
X42788121Y-85851521D01*
X42760945Y-85836995D01*
X42692400Y-85800357D01*
X42608499Y-85731501D01*
X42539643Y-85647600D01*
X42488481Y-85551882D01*
X42488479Y-85551879D01*
X42484612Y-85539131D01*
X42475240Y-85516504D01*
X42461626Y-85496130D01*
X42444299Y-85478803D01*
X42423925Y-85465189D01*
X42401286Y-85455812D01*
X42377253Y-85451031D01*
X42352749Y-85451031D01*
X42328715Y-85455811D01*
X42306076Y-85465188D01*
X42285702Y-85478802D01*
X42268375Y-85496129D01*
X42254761Y-85516503D01*
X42245388Y-85539131D01*
X42241521Y-85551879D01*
X42241519Y-85551882D01*
X42190357Y-85647600D01*
X42121501Y-85731501D01*
X42037600Y-85800357D01*
X41969055Y-85836995D01*
X41941879Y-85851521D01*
X41838015Y-85883027D01*
X41757067Y-85891000D01*
X41702933Y-85891000D01*
X41621985Y-85883027D01*
X41518121Y-85851521D01*
X41490945Y-85836995D01*
X41422400Y-85800357D01*
X41338499Y-85731501D01*
X41269643Y-85647600D01*
X41218481Y-85551882D01*
X41218479Y-85551879D01*
X41214612Y-85539131D01*
X41205240Y-85516504D01*
X41191626Y-85496130D01*
X41174299Y-85478803D01*
X41153925Y-85465189D01*
X41131286Y-85455812D01*
X41107253Y-85451031D01*
X41082749Y-85451031D01*
X41058715Y-85455811D01*
X41036076Y-85465188D01*
X41015702Y-85478802D01*
X40998375Y-85496129D01*
X40984761Y-85516503D01*
X40975388Y-85539131D01*
X40971521Y-85551879D01*
X40971519Y-85551882D01*
X40920357Y-85647600D01*
X40851501Y-85731501D01*
X40767600Y-85800357D01*
X40699055Y-85836995D01*
X40671879Y-85851521D01*
X40568015Y-85883027D01*
X40487067Y-85891000D01*
X40432933Y-85891000D01*
X40351985Y-85883027D01*
X40248121Y-85851521D01*
X40220945Y-85836995D01*
X40152400Y-85800357D01*
X40068499Y-85731501D01*
X39999643Y-85647600D01*
X39948481Y-85551882D01*
X39948479Y-85551879D01*
X39916973Y-85448015D01*
X39906334Y-85340000D01*
X39916973Y-85231985D01*
X39948479Y-85128121D01*
X39963005Y-85100945D01*
X39999643Y-85032400D01*
X40068499Y-84948499D01*
X40152400Y-84879643D01*
X40221656Y-84842625D01*
X40248121Y-84828479D01*
X40260869Y-84824612D01*
X40283496Y-84815240D01*
X40303870Y-84801626D01*
X40321197Y-84784299D01*
X40334811Y-84763925D01*
X40344188Y-84741286D01*
X40348969Y-84717253D01*
X40348969Y-84692749D01*
X40348969Y-84692747D01*
X40571031Y-84692747D01*
X40571031Y-84717251D01*
X40575811Y-84741285D01*
X40585188Y-84763924D01*
X40598802Y-84784298D01*
X40616129Y-84801625D01*
X40636503Y-84815239D01*
X40659131Y-84824612D01*
X40671879Y-84828479D01*
X40698344Y-84842625D01*
X40767600Y-84879643D01*
X40851501Y-84948499D01*
X40920357Y-85032400D01*
X40956995Y-85100945D01*
X40971521Y-85128121D01*
X40975388Y-85140869D01*
X40984760Y-85163496D01*
X40998374Y-85183870D01*
X41015701Y-85201197D01*
X41036075Y-85214811D01*
X41058714Y-85224188D01*
X41082747Y-85228969D01*
X41107251Y-85228969D01*
X41131285Y-85224189D01*
X41153924Y-85214812D01*
X41174298Y-85201198D01*
X41191625Y-85183871D01*
X41205239Y-85163497D01*
X41214612Y-85140869D01*
X41218479Y-85128121D01*
X41233005Y-85100945D01*
X41269643Y-85032400D01*
X41338499Y-84948499D01*
X41422400Y-84879643D01*
X41491656Y-84842625D01*
X41518121Y-84828479D01*
X41530869Y-84824612D01*
X41553496Y-84815240D01*
X41573870Y-84801626D01*
X41591197Y-84784299D01*
X41604811Y-84763925D01*
X41614188Y-84741286D01*
X41618969Y-84717253D01*
X41618969Y-84692749D01*
X41618969Y-84692747D01*
X41841031Y-84692747D01*
X41841031Y-84717251D01*
X41845811Y-84741285D01*
X41855188Y-84763924D01*
X41868802Y-84784298D01*
X41886129Y-84801625D01*
X41906503Y-84815239D01*
X41929131Y-84824612D01*
X41941879Y-84828479D01*
X41968344Y-84842625D01*
X42037600Y-84879643D01*
X42121501Y-84948499D01*
X42190357Y-85032400D01*
X42226995Y-85100945D01*
X42241521Y-85128121D01*
X42245388Y-85140869D01*
X42254760Y-85163496D01*
X42268374Y-85183870D01*
X42285701Y-85201197D01*
X42306075Y-85214811D01*
X42328714Y-85224188D01*
X42352747Y-85228969D01*
X42377251Y-85228969D01*
X42401285Y-85224189D01*
X42423924Y-85214812D01*
X42444298Y-85201198D01*
X42461625Y-85183871D01*
X42475239Y-85163497D01*
X42484612Y-85140869D01*
X42488479Y-85128121D01*
X42503005Y-85100945D01*
X42539643Y-85032400D01*
X42608499Y-84948499D01*
X42692400Y-84879643D01*
X42761656Y-84842625D01*
X42788121Y-84828479D01*
X42800869Y-84824612D01*
X42823496Y-84815240D01*
X42843870Y-84801626D01*
X42861197Y-84784299D01*
X42874811Y-84763925D01*
X42884188Y-84741286D01*
X42888969Y-84717253D01*
X42888969Y-84692749D01*
X42888969Y-84692747D01*
X43111031Y-84692747D01*
X43111031Y-84717251D01*
X43115811Y-84741285D01*
X43125188Y-84763924D01*
X43138802Y-84784298D01*
X43156129Y-84801625D01*
X43176503Y-84815239D01*
X43199131Y-84824612D01*
X43211879Y-84828479D01*
X43238344Y-84842625D01*
X43307600Y-84879643D01*
X43391501Y-84948499D01*
X43460357Y-85032400D01*
X43496995Y-85100945D01*
X43511521Y-85128121D01*
X43515388Y-85140869D01*
X43524760Y-85163496D01*
X43538374Y-85183870D01*
X43555701Y-85201197D01*
X43576075Y-85214811D01*
X43598714Y-85224188D01*
X43622747Y-85228969D01*
X43647251Y-85228969D01*
X43671285Y-85224189D01*
X43693924Y-85214812D01*
X43714298Y-85201198D01*
X43731625Y-85183871D01*
X43745239Y-85163497D01*
X43754612Y-85140869D01*
X43758479Y-85128121D01*
X43773005Y-85100945D01*
X43809643Y-85032400D01*
X43878499Y-84948499D01*
X43962400Y-84879643D01*
X44031656Y-84842625D01*
X44058121Y-84828479D01*
X44070869Y-84824612D01*
X44093496Y-84815240D01*
X44113870Y-84801626D01*
X44131197Y-84784299D01*
X44144811Y-84763925D01*
X44154188Y-84741286D01*
X44158969Y-84717253D01*
X44158969Y-84692749D01*
X44158969Y-84692747D01*
X44381031Y-84692747D01*
X44381031Y-84717251D01*
X44385811Y-84741285D01*
X44395188Y-84763924D01*
X44408802Y-84784298D01*
X44426129Y-84801625D01*
X44446503Y-84815239D01*
X44469131Y-84824612D01*
X44481879Y-84828479D01*
X44508344Y-84842625D01*
X44577600Y-84879643D01*
X44661501Y-84948499D01*
X44730357Y-85032400D01*
X44766995Y-85100945D01*
X44781521Y-85128121D01*
X44785388Y-85140869D01*
X44794760Y-85163496D01*
X44808374Y-85183870D01*
X44825701Y-85201197D01*
X44846075Y-85214811D01*
X44868714Y-85224188D01*
X44892747Y-85228969D01*
X44917251Y-85228969D01*
X44941285Y-85224189D01*
X44963924Y-85214812D01*
X44984298Y-85201198D01*
X45001625Y-85183871D01*
X45015239Y-85163497D01*
X45024612Y-85140869D01*
X45028479Y-85128121D01*
X45043005Y-85100945D01*
X45079643Y-85032400D01*
X45148499Y-84948499D01*
X45232399Y-84879645D01*
X45232398Y-84879645D01*
X45232400Y-84879644D01*
X45276193Y-84856236D01*
X45296563Y-84842625D01*
X45313890Y-84825298D01*
X45327504Y-84804924D01*
X45336881Y-84782285D01*
X45341662Y-84758252D01*
X45341662Y-84733748D01*
X45336882Y-84709714D01*
X45327505Y-84687076D01*
X45313891Y-84666701D01*
X45296564Y-84649374D01*
X45276190Y-84635760D01*
X45253551Y-84626383D01*
X45229518Y-84621602D01*
X45217265Y-84621000D01*
X44989000Y-84621000D01*
X44989000Y-84392735D01*
X44986598Y-84368349D01*
X44979485Y-84344900D01*
X44967934Y-84323289D01*
X44952389Y-84304347D01*
X44933447Y-84288802D01*
X44911836Y-84277251D01*
X44888387Y-84270138D01*
X44864001Y-84267736D01*
X44839615Y-84270138D01*
X44816166Y-84277251D01*
X44794555Y-84288802D01*
X44775613Y-84304347D01*
X44760068Y-84323289D01*
X44753767Y-84333802D01*
X44730356Y-84377600D01*
X44730355Y-84377601D01*
X44661501Y-84461501D01*
X44577600Y-84530357D01*
X44509055Y-84566995D01*
X44481879Y-84581521D01*
X44469131Y-84585388D01*
X44446504Y-84594760D01*
X44426130Y-84608374D01*
X44408803Y-84625701D01*
X44395189Y-84646075D01*
X44385812Y-84668714D01*
X44381031Y-84692747D01*
X44158969Y-84692747D01*
X44154189Y-84668715D01*
X44144812Y-84646076D01*
X44131198Y-84625702D01*
X44113871Y-84608375D01*
X44093497Y-84594761D01*
X44070869Y-84585388D01*
X44058121Y-84581521D01*
X44030945Y-84566995D01*
X43962400Y-84530357D01*
X43878499Y-84461501D01*
X43809643Y-84377600D01*
X43770489Y-84304347D01*
X43758479Y-84281879D01*
X43754612Y-84269131D01*
X43745240Y-84246504D01*
X43731626Y-84226130D01*
X43714299Y-84208803D01*
X43693925Y-84195189D01*
X43671286Y-84185812D01*
X43647253Y-84181031D01*
X43622749Y-84181031D01*
X43598715Y-84185811D01*
X43576076Y-84195188D01*
X43555702Y-84208802D01*
X43538375Y-84226129D01*
X43524761Y-84246503D01*
X43515388Y-84269131D01*
X43511521Y-84281879D01*
X43499511Y-84304347D01*
X43460357Y-84377600D01*
X43391501Y-84461501D01*
X43307600Y-84530357D01*
X43239055Y-84566995D01*
X43211879Y-84581521D01*
X43199131Y-84585388D01*
X43176504Y-84594760D01*
X43156130Y-84608374D01*
X43138803Y-84625701D01*
X43125189Y-84646075D01*
X43115812Y-84668714D01*
X43111031Y-84692747D01*
X42888969Y-84692747D01*
X42884189Y-84668715D01*
X42874812Y-84646076D01*
X42861198Y-84625702D01*
X42843871Y-84608375D01*
X42823497Y-84594761D01*
X42800869Y-84585388D01*
X42788121Y-84581521D01*
X42760945Y-84566995D01*
X42692400Y-84530357D01*
X42608499Y-84461501D01*
X42539643Y-84377600D01*
X42500489Y-84304347D01*
X42488479Y-84281879D01*
X42484612Y-84269131D01*
X42475240Y-84246504D01*
X42461626Y-84226130D01*
X42444299Y-84208803D01*
X42423925Y-84195189D01*
X42401286Y-84185812D01*
X42377253Y-84181031D01*
X42352749Y-84181031D01*
X42328715Y-84185811D01*
X42306076Y-84195188D01*
X42285702Y-84208802D01*
X42268375Y-84226129D01*
X42254761Y-84246503D01*
X42245388Y-84269131D01*
X42241521Y-84281879D01*
X42229511Y-84304347D01*
X42190357Y-84377600D01*
X42121501Y-84461501D01*
X42037600Y-84530357D01*
X41969055Y-84566995D01*
X41941879Y-84581521D01*
X41929131Y-84585388D01*
X41906504Y-84594760D01*
X41886130Y-84608374D01*
X41868803Y-84625701D01*
X41855189Y-84646075D01*
X41845812Y-84668714D01*
X41841031Y-84692747D01*
X41618969Y-84692747D01*
X41614189Y-84668715D01*
X41604812Y-84646076D01*
X41591198Y-84625702D01*
X41573871Y-84608375D01*
X41553497Y-84594761D01*
X41530869Y-84585388D01*
X41518121Y-84581521D01*
X41490945Y-84566995D01*
X41422400Y-84530357D01*
X41338499Y-84461501D01*
X41269643Y-84377600D01*
X41230489Y-84304347D01*
X41218479Y-84281879D01*
X41214612Y-84269131D01*
X41205240Y-84246504D01*
X41191626Y-84226130D01*
X41174299Y-84208803D01*
X41153925Y-84195189D01*
X41131286Y-84185812D01*
X41107253Y-84181031D01*
X41082749Y-84181031D01*
X41058715Y-84185811D01*
X41036076Y-84195188D01*
X41015702Y-84208802D01*
X40998375Y-84226129D01*
X40984761Y-84246503D01*
X40975388Y-84269131D01*
X40971521Y-84281879D01*
X40959511Y-84304347D01*
X40920357Y-84377600D01*
X40851501Y-84461501D01*
X40767600Y-84530357D01*
X40699055Y-84566995D01*
X40671879Y-84581521D01*
X40659131Y-84585388D01*
X40636504Y-84594760D01*
X40616130Y-84608374D01*
X40598803Y-84625701D01*
X40585189Y-84646075D01*
X40575812Y-84668714D01*
X40571031Y-84692747D01*
X40348969Y-84692747D01*
X40344189Y-84668715D01*
X40334812Y-84646076D01*
X40321198Y-84625702D01*
X40303871Y-84608375D01*
X40283497Y-84594761D01*
X40260869Y-84585388D01*
X40248121Y-84581521D01*
X40220945Y-84566995D01*
X40152400Y-84530357D01*
X40068499Y-84461501D01*
X39999643Y-84377600D01*
X39960489Y-84304347D01*
X39948479Y-84281879D01*
X39916973Y-84178015D01*
X39906334Y-84070000D01*
X39916973Y-83961985D01*
X39948479Y-83858121D01*
X39988338Y-83783551D01*
X39999643Y-83762400D01*
X40068499Y-83678499D01*
X40152400Y-83609643D01*
X40220945Y-83573005D01*
X40248121Y-83558479D01*
X40351985Y-83526973D01*
X40432933Y-83519000D01*
X40487067Y-83519000D01*
X40568015Y-83526973D01*
X40568015Y-83526973D01*
G37*
G36*
X88905589Y-82338876D02*
G01*
X89004893Y-82358629D01*
X89145206Y-82416748D01*
X89271484Y-82501125D01*
X89378875Y-82608516D01*
X89463252Y-82734794D01*
X89521371Y-82875107D01*
X89551000Y-83024063D01*
X89551000Y-83175937D01*
X89521371Y-83324893D01*
X89463252Y-83465206D01*
X89378875Y-83591484D01*
X89271484Y-83698875D01*
X89145206Y-83783252D01*
X89004893Y-83841371D01*
X88905589Y-83861124D01*
X88855938Y-83871000D01*
X88704062Y-83871000D01*
X88654411Y-83861124D01*
X88555107Y-83841371D01*
X88414794Y-83783252D01*
X88288516Y-83698875D01*
X88181125Y-83591484D01*
X88096748Y-83465206D01*
X88038629Y-83324893D01*
X88009000Y-83175937D01*
X88009000Y-83024063D01*
X88038629Y-82875107D01*
X88096748Y-82734794D01*
X88181125Y-82608516D01*
X88288516Y-82501125D01*
X88414794Y-82416748D01*
X88555107Y-82358629D01*
X88654411Y-82338876D01*
X88704062Y-82329000D01*
X88855938Y-82329000D01*
X88905589Y-82338876D01*
X88905589Y-82338876D01*
G37*
G36*
X86365589Y-82338876D02*
G01*
X86464893Y-82358629D01*
X86605206Y-82416748D01*
X86731484Y-82501125D01*
X86838875Y-82608516D01*
X86923252Y-82734794D01*
X86981371Y-82875107D01*
X87011000Y-83024063D01*
X87011000Y-83175937D01*
X86981371Y-83324893D01*
X86923252Y-83465206D01*
X86838875Y-83591484D01*
X86731484Y-83698875D01*
X86605206Y-83783252D01*
X86464893Y-83841371D01*
X86365589Y-83861124D01*
X86315938Y-83871000D01*
X86164062Y-83871000D01*
X86114411Y-83861124D01*
X86015107Y-83841371D01*
X85874794Y-83783252D01*
X85748516Y-83698875D01*
X85641125Y-83591484D01*
X85556748Y-83465206D01*
X85498629Y-83324893D01*
X85469000Y-83175937D01*
X85469000Y-83024063D01*
X85498629Y-82875107D01*
X85556748Y-82734794D01*
X85641125Y-82608516D01*
X85748516Y-82501125D01*
X85874794Y-82416748D01*
X86015107Y-82358629D01*
X86114411Y-82338876D01*
X86164062Y-82329000D01*
X86315938Y-82329000D01*
X86365589Y-82338876D01*
X86365589Y-82338876D01*
G37*
G36*
X83825589Y-82338876D02*
G01*
X83924893Y-82358629D01*
X84065206Y-82416748D01*
X84191484Y-82501125D01*
X84298875Y-82608516D01*
X84383252Y-82734794D01*
X84441371Y-82875107D01*
X84471000Y-83024063D01*
X84471000Y-83175937D01*
X84441371Y-83324893D01*
X84383252Y-83465206D01*
X84298875Y-83591484D01*
X84191484Y-83698875D01*
X84065206Y-83783252D01*
X83924893Y-83841371D01*
X83825589Y-83861124D01*
X83775938Y-83871000D01*
X83624062Y-83871000D01*
X83574411Y-83861124D01*
X83475107Y-83841371D01*
X83334794Y-83783252D01*
X83208516Y-83698875D01*
X83101125Y-83591484D01*
X83016748Y-83465206D01*
X82958629Y-83324893D01*
X82929000Y-83175937D01*
X82929000Y-83024063D01*
X82958629Y-82875107D01*
X83016748Y-82734794D01*
X83101125Y-82608516D01*
X83208516Y-82501125D01*
X83334794Y-82416748D01*
X83475107Y-82358629D01*
X83574411Y-82338876D01*
X83624062Y-82329000D01*
X83775938Y-82329000D01*
X83825589Y-82338876D01*
X83825589Y-82338876D01*
G37*
G36*
X115634239Y-76811467D02*
G01*
X115948282Y-76873934D01*
X116539926Y-77119001D01*
X117072392Y-77474784D01*
X117525216Y-77927608D01*
X117880999Y-78460074D01*
X118126066Y-79051718D01*
X118126066Y-79051719D01*
X118251000Y-79679803D01*
X118251000Y-80320197D01*
X118188533Y-80634239D01*
X118126066Y-80948282D01*
X117880999Y-81539926D01*
X117525216Y-82072392D01*
X117072392Y-82525216D01*
X116539926Y-82880999D01*
X115948282Y-83126066D01*
X115697563Y-83175937D01*
X115320197Y-83251000D01*
X114679803Y-83251000D01*
X114302437Y-83175937D01*
X114051718Y-83126066D01*
X113460074Y-82880999D01*
X112927608Y-82525216D01*
X112474784Y-82072392D01*
X112119001Y-81539926D01*
X111873934Y-80948282D01*
X111811467Y-80634239D01*
X111749000Y-80320197D01*
X111749000Y-79679803D01*
X111873934Y-79051719D01*
X111873934Y-79051718D01*
X112119001Y-78460074D01*
X112474784Y-77927608D01*
X112927608Y-77474784D01*
X113460074Y-77119001D01*
X114051718Y-76873934D01*
X114365761Y-76811467D01*
X114679803Y-76749000D01*
X115320197Y-76749000D01*
X115634239Y-76811467D01*
X115634239Y-76811467D01*
G37*
G36*
X5634239Y-76811467D02*
G01*
X5948282Y-76873934D01*
X6539926Y-77119001D01*
X7072392Y-77474784D01*
X7525216Y-77927608D01*
X7880999Y-78460074D01*
X8126066Y-79051718D01*
X8126066Y-79051719D01*
X8251000Y-79679803D01*
X8251000Y-80320197D01*
X8188533Y-80634239D01*
X8126066Y-80948282D01*
X7880999Y-81539926D01*
X7525216Y-82072392D01*
X7072392Y-82525216D01*
X6539926Y-82880999D01*
X5948282Y-83126066D01*
X5697563Y-83175937D01*
X5320197Y-83251000D01*
X4679803Y-83251000D01*
X4302437Y-83175937D01*
X4051718Y-83126066D01*
X3460074Y-82880999D01*
X2927608Y-82525216D01*
X2474784Y-82072392D01*
X2119001Y-81539926D01*
X1873934Y-80948282D01*
X1811467Y-80634239D01*
X1749000Y-80320197D01*
X1749000Y-79679803D01*
X1873934Y-79051719D01*
X1873934Y-79051718D01*
X2119001Y-78460074D01*
X2474784Y-77927608D01*
X2927608Y-77474784D01*
X3460074Y-77119001D01*
X4051718Y-76873934D01*
X4365761Y-76811467D01*
X4679803Y-76749000D01*
X5320197Y-76749000D01*
X5634239Y-76811467D01*
X5634239Y-76811467D01*
G37*
G36*
X136860442Y-60755518D02*
G01*
X136926627Y-60762037D01*
X137096466Y-60813557D01*
X137252991Y-60897222D01*
X137288729Y-60926552D01*
X137390186Y-61009814D01*
X137473448Y-61111271D01*
X137502778Y-61147009D01*
X137586443Y-61303534D01*
X137637963Y-61473373D01*
X137655359Y-61650000D01*
X137637963Y-61826627D01*
X137586443Y-61996466D01*
X137502778Y-62152991D01*
X137473448Y-62188729D01*
X137390186Y-62290186D01*
X137288729Y-62373448D01*
X137252991Y-62402778D01*
X137096466Y-62486443D01*
X136926627Y-62537963D01*
X136860442Y-62544482D01*
X136794260Y-62551000D01*
X136705740Y-62551000D01*
X136639558Y-62544482D01*
X136573373Y-62537963D01*
X136403534Y-62486443D01*
X136247009Y-62402778D01*
X136211271Y-62373448D01*
X136109814Y-62290186D01*
X136026552Y-62188729D01*
X135997222Y-62152991D01*
X135913557Y-61996466D01*
X135862037Y-61826627D01*
X135844641Y-61650000D01*
X135862037Y-61473373D01*
X135913557Y-61303534D01*
X135997222Y-61147009D01*
X136026552Y-61111271D01*
X136109814Y-61009814D01*
X136211271Y-60926552D01*
X136247009Y-60897222D01*
X136403534Y-60813557D01*
X136573373Y-60762037D01*
X136639558Y-60755518D01*
X136705740Y-60749000D01*
X136794260Y-60749000D01*
X136860442Y-60755518D01*
X136860442Y-60755518D01*
G37*
G36*
X139400442Y-60755518D02*
G01*
X139466627Y-60762037D01*
X139636466Y-60813557D01*
X139792991Y-60897222D01*
X139828729Y-60926552D01*
X139930186Y-61009814D01*
X140013448Y-61111271D01*
X140042778Y-61147009D01*
X140126443Y-61303534D01*
X140177963Y-61473373D01*
X140195359Y-61650000D01*
X140177963Y-61826627D01*
X140126443Y-61996466D01*
X140042778Y-62152991D01*
X140013448Y-62188729D01*
X139930186Y-62290186D01*
X139828729Y-62373448D01*
X139792991Y-62402778D01*
X139636466Y-62486443D01*
X139466627Y-62537963D01*
X139400442Y-62544482D01*
X139334260Y-62551000D01*
X139245740Y-62551000D01*
X139179558Y-62544482D01*
X139113373Y-62537963D01*
X138943534Y-62486443D01*
X138787009Y-62402778D01*
X138751271Y-62373448D01*
X138649814Y-62290186D01*
X138566552Y-62188729D01*
X138537222Y-62152991D01*
X138453557Y-61996466D01*
X138402037Y-61826627D01*
X138384641Y-61650000D01*
X138402037Y-61473373D01*
X138453557Y-61303534D01*
X138537222Y-61147009D01*
X138566552Y-61111271D01*
X138649814Y-61009814D01*
X138751271Y-60926552D01*
X138787009Y-60897222D01*
X138943534Y-60813557D01*
X139113373Y-60762037D01*
X139179558Y-60755518D01*
X139245740Y-60749000D01*
X139334260Y-60749000D01*
X139400442Y-60755518D01*
X139400442Y-60755518D01*
G37*
G36*
X142731000Y-62551000D02*
G01*
X140929000Y-62551000D01*
X140929000Y-60749000D01*
X142731000Y-60749000D01*
X142731000Y-62551000D01*
X142731000Y-62551000D01*
G37*
G36*
X43801000Y-62351000D02*
G01*
X40699000Y-62351000D01*
X40699000Y-59249000D01*
X43801000Y-59249000D01*
X43801000Y-62351000D01*
X43801000Y-62351000D01*
G37*
G36*
X109550980Y-62201260D02*
G01*
X102748460Y-62201260D01*
X102748460Y-55398740D01*
X109550980Y-55398740D01*
X109550980Y-62201260D01*
X109550980Y-62201260D01*
G37*
G36*
X101075000Y-61977740D02*
G01*
X97925000Y-61977740D01*
X97925000Y-60224740D01*
X101075000Y-60224740D01*
X101075000Y-61977740D01*
X101075000Y-61977740D01*
G37*
G36*
X95375562Y-60128181D02*
G01*
X95410481Y-60138774D01*
X95442663Y-60155976D01*
X95470873Y-60179127D01*
X95494024Y-60207337D01*
X95511226Y-60239519D01*
X95521819Y-60274438D01*
X95526000Y-60316895D01*
X95526000Y-61458105D01*
X95521819Y-61500562D01*
X95511226Y-61535481D01*
X95494024Y-61567663D01*
X95470873Y-61595873D01*
X95442663Y-61619024D01*
X95410481Y-61636226D01*
X95375562Y-61646819D01*
X95333105Y-61651000D01*
X93866895Y-61651000D01*
X93824438Y-61646819D01*
X93789519Y-61636226D01*
X93757337Y-61619024D01*
X93729127Y-61595873D01*
X93705976Y-61567663D01*
X93688774Y-61535481D01*
X93678181Y-61500562D01*
X93674000Y-61458105D01*
X93674000Y-60316895D01*
X93678181Y-60274438D01*
X93688774Y-60239519D01*
X93705976Y-60207337D01*
X93729127Y-60179127D01*
X93757337Y-60155976D01*
X93789519Y-60138774D01*
X93824438Y-60128181D01*
X93866895Y-60124000D01*
X95333105Y-60124000D01*
X95375562Y-60128181D01*
X95375562Y-60128181D01*
G37*
G36*
X128476626Y-58887037D02*
G01*
X128646465Y-58938557D01*
X128646467Y-58938558D01*
X128802989Y-59022221D01*
X128940186Y-59134814D01*
X129023448Y-59236271D01*
X129052778Y-59272009D01*
X129136443Y-59428534D01*
X129187963Y-59598373D01*
X129201000Y-59730742D01*
X129201000Y-59969257D01*
X129187963Y-60101626D01*
X129136443Y-60271465D01*
X129052778Y-60427991D01*
X129023448Y-60463729D01*
X128940186Y-60565186D01*
X128845250Y-60643097D01*
X128802991Y-60677778D01*
X128646466Y-60761443D01*
X128476627Y-60812963D01*
X128300000Y-60830359D01*
X128123374Y-60812963D01*
X127953535Y-60761443D01*
X127797010Y-60677778D01*
X127717711Y-60612699D01*
X127659814Y-60565185D01*
X127591217Y-60481599D01*
X127547222Y-60427991D01*
X127463557Y-60271466D01*
X127412037Y-60101627D01*
X127399000Y-59969258D01*
X127399000Y-59730743D01*
X127412037Y-59598374D01*
X127463557Y-59428535D01*
X127547222Y-59272010D01*
X127547223Y-59272009D01*
X127659814Y-59134814D01*
X127761271Y-59051552D01*
X127797009Y-59022222D01*
X127953534Y-58938557D01*
X128123373Y-58887037D01*
X128300000Y-58869641D01*
X128476626Y-58887037D01*
X128476626Y-58887037D01*
G37*
G36*
X130976626Y-58887037D02*
G01*
X131146465Y-58938557D01*
X131146467Y-58938558D01*
X131302989Y-59022221D01*
X131440186Y-59134814D01*
X131523448Y-59236271D01*
X131552778Y-59272009D01*
X131636443Y-59428534D01*
X131687963Y-59598373D01*
X131701000Y-59730742D01*
X131701000Y-59969257D01*
X131687963Y-60101626D01*
X131636443Y-60271465D01*
X131552778Y-60427991D01*
X131523448Y-60463729D01*
X131440186Y-60565186D01*
X131345250Y-60643097D01*
X131302991Y-60677778D01*
X131146466Y-60761443D01*
X130976627Y-60812963D01*
X130800000Y-60830359D01*
X130623374Y-60812963D01*
X130453535Y-60761443D01*
X130297010Y-60677778D01*
X130217711Y-60612699D01*
X130159814Y-60565185D01*
X130091217Y-60481599D01*
X130047222Y-60427991D01*
X129963557Y-60271466D01*
X129912037Y-60101627D01*
X129899000Y-59969258D01*
X129899000Y-59730743D01*
X129912037Y-59598374D01*
X129963557Y-59428535D01*
X130047222Y-59272010D01*
X130047223Y-59272009D01*
X130159814Y-59134814D01*
X130261271Y-59051552D01*
X130297009Y-59022222D01*
X130453534Y-58938557D01*
X130623373Y-58887037D01*
X130800000Y-58869641D01*
X130976626Y-58887037D01*
X130976626Y-58887037D01*
G37*
G36*
X118776626Y-58887037D02*
G01*
X118946465Y-58938557D01*
X118946467Y-58938558D01*
X119102989Y-59022221D01*
X119240186Y-59134814D01*
X119323448Y-59236271D01*
X119352778Y-59272009D01*
X119436443Y-59428534D01*
X119487963Y-59598373D01*
X119501000Y-59730742D01*
X119501000Y-59969257D01*
X119487963Y-60101626D01*
X119436443Y-60271465D01*
X119352778Y-60427991D01*
X119323448Y-60463729D01*
X119240186Y-60565186D01*
X119145250Y-60643097D01*
X119102991Y-60677778D01*
X118946466Y-60761443D01*
X118776627Y-60812963D01*
X118600000Y-60830359D01*
X118423374Y-60812963D01*
X118253535Y-60761443D01*
X118097010Y-60677778D01*
X118017711Y-60612699D01*
X117959814Y-60565185D01*
X117891217Y-60481599D01*
X117847222Y-60427991D01*
X117763557Y-60271466D01*
X117712037Y-60101627D01*
X117699000Y-59969258D01*
X117699000Y-59730743D01*
X117712037Y-59598374D01*
X117763557Y-59428535D01*
X117847222Y-59272010D01*
X117847223Y-59272009D01*
X117959814Y-59134814D01*
X118061271Y-59051552D01*
X118097009Y-59022222D01*
X118253534Y-58938557D01*
X118423373Y-58887037D01*
X118600000Y-58869641D01*
X118776626Y-58887037D01*
X118776626Y-58887037D01*
G37*
G36*
X126558600Y-58877989D02*
G01*
X126591652Y-58888015D01*
X126622103Y-58904292D01*
X126648799Y-58926201D01*
X126670708Y-58952897D01*
X126686985Y-58983348D01*
X126697011Y-59016400D01*
X126701000Y-59056903D01*
X126701000Y-60643097D01*
X126697011Y-60683600D01*
X126686985Y-60716652D01*
X126670708Y-60747103D01*
X126648799Y-60773799D01*
X126622103Y-60795708D01*
X126591652Y-60811985D01*
X126558600Y-60822011D01*
X126518097Y-60826000D01*
X125081903Y-60826000D01*
X125041400Y-60822011D01*
X125008348Y-60811985D01*
X124977897Y-60795708D01*
X124951201Y-60773799D01*
X124929292Y-60747103D01*
X124913015Y-60716652D01*
X124902989Y-60683600D01*
X124899000Y-60643097D01*
X124899000Y-59056903D01*
X124902989Y-59016400D01*
X124913015Y-58983348D01*
X124929292Y-58952897D01*
X124951201Y-58926201D01*
X124977897Y-58904292D01*
X125008348Y-58888015D01*
X125041400Y-58877989D01*
X125081903Y-58874000D01*
X126518097Y-58874000D01*
X126558600Y-58877989D01*
X126558600Y-58877989D01*
G37*
G36*
X116858600Y-58877989D02*
G01*
X116891652Y-58888015D01*
X116922103Y-58904292D01*
X116948799Y-58926201D01*
X116970708Y-58952897D01*
X116986985Y-58983348D01*
X116997011Y-59016400D01*
X117001000Y-59056903D01*
X117001000Y-60643097D01*
X116997011Y-60683600D01*
X116986985Y-60716652D01*
X116970708Y-60747103D01*
X116948799Y-60773799D01*
X116922103Y-60795708D01*
X116891652Y-60811985D01*
X116858600Y-60822011D01*
X116818097Y-60826000D01*
X115381903Y-60826000D01*
X115341400Y-60822011D01*
X115308348Y-60811985D01*
X115277897Y-60795708D01*
X115251201Y-60773799D01*
X115229292Y-60747103D01*
X115213015Y-60716652D01*
X115202989Y-60683600D01*
X115199000Y-60643097D01*
X115199000Y-59056903D01*
X115202989Y-59016400D01*
X115213015Y-58983348D01*
X115229292Y-58952897D01*
X115251201Y-58926201D01*
X115277897Y-58904292D01*
X115308348Y-58888015D01*
X115341400Y-58877989D01*
X115381903Y-58874000D01*
X116818097Y-58874000D01*
X116858600Y-58877989D01*
X116858600Y-58877989D01*
G37*
G36*
X139400443Y-58215519D02*
G01*
X139466627Y-58222037D01*
X139636466Y-58273557D01*
X139792991Y-58357222D01*
X139828729Y-58386552D01*
X139930186Y-58469814D01*
X140004593Y-58560481D01*
X140042778Y-58607009D01*
X140126443Y-58763534D01*
X140177963Y-58933373D01*
X140195359Y-59110000D01*
X140177963Y-59286627D01*
X140126443Y-59456466D01*
X140042778Y-59612991D01*
X140013448Y-59648729D01*
X139930186Y-59750186D01*
X139828729Y-59833448D01*
X139792991Y-59862778D01*
X139636466Y-59946443D01*
X139466627Y-59997963D01*
X139400443Y-60004481D01*
X139334260Y-60011000D01*
X139245740Y-60011000D01*
X139179557Y-60004481D01*
X139113373Y-59997963D01*
X138943534Y-59946443D01*
X138787009Y-59862778D01*
X138751271Y-59833448D01*
X138649814Y-59750186D01*
X138566552Y-59648729D01*
X138537222Y-59612991D01*
X138453557Y-59456466D01*
X138402037Y-59286627D01*
X138384641Y-59110000D01*
X138402037Y-58933373D01*
X138453557Y-58763534D01*
X138537222Y-58607009D01*
X138575407Y-58560481D01*
X138649814Y-58469814D01*
X138751271Y-58386552D01*
X138787009Y-58357222D01*
X138943534Y-58273557D01*
X139113373Y-58222037D01*
X139179557Y-58215519D01*
X139245740Y-58209000D01*
X139334260Y-58209000D01*
X139400443Y-58215519D01*
X139400443Y-58215519D01*
G37*
G36*
X141940443Y-58215519D02*
G01*
X142006627Y-58222037D01*
X142176466Y-58273557D01*
X142332991Y-58357222D01*
X142368729Y-58386552D01*
X142470186Y-58469814D01*
X142544593Y-58560481D01*
X142582778Y-58607009D01*
X142666443Y-58763534D01*
X142717963Y-58933373D01*
X142735359Y-59110000D01*
X142717963Y-59286627D01*
X142666443Y-59456466D01*
X142582778Y-59612991D01*
X142553448Y-59648729D01*
X142470186Y-59750186D01*
X142368729Y-59833448D01*
X142332991Y-59862778D01*
X142176466Y-59946443D01*
X142006627Y-59997963D01*
X141940443Y-60004481D01*
X141874260Y-60011000D01*
X141785740Y-60011000D01*
X141719557Y-60004481D01*
X141653373Y-59997963D01*
X141483534Y-59946443D01*
X141327009Y-59862778D01*
X141291271Y-59833448D01*
X141189814Y-59750186D01*
X141106552Y-59648729D01*
X141077222Y-59612991D01*
X140993557Y-59456466D01*
X140942037Y-59286627D01*
X140924641Y-59110000D01*
X140942037Y-58933373D01*
X140993557Y-58763534D01*
X141077222Y-58607009D01*
X141115407Y-58560481D01*
X141189814Y-58469814D01*
X141291271Y-58386552D01*
X141327009Y-58357222D01*
X141483534Y-58273557D01*
X141653373Y-58222037D01*
X141719557Y-58215519D01*
X141785740Y-58209000D01*
X141874260Y-58209000D01*
X141940443Y-58215519D01*
X141940443Y-58215519D01*
G37*
G36*
X136860443Y-58215519D02*
G01*
X136926627Y-58222037D01*
X137096466Y-58273557D01*
X137252991Y-58357222D01*
X137288729Y-58386552D01*
X137390186Y-58469814D01*
X137464593Y-58560481D01*
X137502778Y-58607009D01*
X137586443Y-58763534D01*
X137637963Y-58933373D01*
X137655359Y-59110000D01*
X137637963Y-59286627D01*
X137586443Y-59456466D01*
X137502778Y-59612991D01*
X137473448Y-59648729D01*
X137390186Y-59750186D01*
X137288729Y-59833448D01*
X137252991Y-59862778D01*
X137096466Y-59946443D01*
X136926627Y-59997963D01*
X136860443Y-60004481D01*
X136794260Y-60011000D01*
X136705740Y-60011000D01*
X136639557Y-60004481D01*
X136573373Y-59997963D01*
X136403534Y-59946443D01*
X136247009Y-59862778D01*
X136211271Y-59833448D01*
X136109814Y-59750186D01*
X136026552Y-59648729D01*
X135997222Y-59612991D01*
X135913557Y-59456466D01*
X135862037Y-59286627D01*
X135844641Y-59110000D01*
X135862037Y-58933373D01*
X135913557Y-58763534D01*
X135997222Y-58607009D01*
X136035407Y-58560481D01*
X136109814Y-58469814D01*
X136211271Y-58386552D01*
X136247009Y-58357222D01*
X136403534Y-58273557D01*
X136573373Y-58222037D01*
X136639557Y-58215519D01*
X136705740Y-58209000D01*
X136794260Y-58209000D01*
X136860443Y-58215519D01*
X136860443Y-58215519D01*
G37*
G36*
X95375562Y-57153181D02*
G01*
X95410481Y-57163774D01*
X95442663Y-57180976D01*
X95470873Y-57204127D01*
X95494024Y-57232337D01*
X95511226Y-57264519D01*
X95521819Y-57299438D01*
X95526000Y-57341895D01*
X95526000Y-58483105D01*
X95521819Y-58525562D01*
X95511226Y-58560481D01*
X95494024Y-58592663D01*
X95470873Y-58620873D01*
X95442663Y-58644024D01*
X95410481Y-58661226D01*
X95375562Y-58671819D01*
X95333105Y-58676000D01*
X93866895Y-58676000D01*
X93824438Y-58671819D01*
X93789519Y-58661226D01*
X93757337Y-58644024D01*
X93729127Y-58620873D01*
X93705976Y-58592663D01*
X93688774Y-58560481D01*
X93678181Y-58525562D01*
X93674000Y-58483105D01*
X93674000Y-57341895D01*
X93678181Y-57299438D01*
X93688774Y-57264519D01*
X93705976Y-57232337D01*
X93729127Y-57204127D01*
X93757337Y-57180976D01*
X93789519Y-57163774D01*
X93824438Y-57153181D01*
X93866895Y-57149000D01*
X95333105Y-57149000D01*
X95375562Y-57153181D01*
X95375562Y-57153181D01*
G37*
G36*
X101075000Y-57375260D02*
G01*
X97925000Y-57375260D01*
X97925000Y-55622260D01*
X101075000Y-55622260D01*
X101075000Y-57375260D01*
X101075000Y-57375260D01*
G37*
G36*
X30098254Y-52477818D02*
G01*
X30471511Y-52632426D01*
X30471513Y-52632427D01*
X30807436Y-52856884D01*
X31093116Y-53142564D01*
X31310216Y-53467476D01*
X31317574Y-53478489D01*
X31472182Y-53851746D01*
X31551000Y-54247993D01*
X31551000Y-54652007D01*
X31472182Y-55048254D01*
X31458768Y-55080638D01*
X31317573Y-55421513D01*
X31093116Y-55757436D01*
X30807436Y-56043116D01*
X30471513Y-56267573D01*
X30471512Y-56267574D01*
X30471511Y-56267574D01*
X30098254Y-56422182D01*
X29702007Y-56501000D01*
X29297993Y-56501000D01*
X28901746Y-56422182D01*
X28528489Y-56267574D01*
X28528488Y-56267574D01*
X28528487Y-56267573D01*
X28192564Y-56043116D01*
X27906884Y-55757436D01*
X27682427Y-55421513D01*
X27541232Y-55080638D01*
X27527818Y-55048254D01*
X27449000Y-54652007D01*
X27449000Y-54247993D01*
X27527818Y-53851746D01*
X27682426Y-53478489D01*
X27689785Y-53467476D01*
X27906884Y-53142564D01*
X28192564Y-52856884D01*
X28528487Y-52632427D01*
X28528489Y-52632426D01*
X28901746Y-52477818D01*
X29297993Y-52399000D01*
X29702007Y-52399000D01*
X30098254Y-52477818D01*
X30098254Y-52477818D01*
G37*
G36*
X122339499Y-54878445D02*
G01*
X122376995Y-54889820D01*
X122411554Y-54908292D01*
X122441847Y-54933153D01*
X122466708Y-54963446D01*
X122485180Y-54998005D01*
X122496555Y-55035501D01*
X122501000Y-55080638D01*
X122501000Y-55719362D01*
X122496555Y-55764499D01*
X122485180Y-55801995D01*
X122466708Y-55836554D01*
X122441847Y-55866847D01*
X122411554Y-55891708D01*
X122376995Y-55910180D01*
X122339499Y-55921555D01*
X122294362Y-55926000D01*
X121555638Y-55926000D01*
X121510501Y-55921555D01*
X121473005Y-55910180D01*
X121438446Y-55891708D01*
X121408153Y-55866847D01*
X121383292Y-55836554D01*
X121364820Y-55801995D01*
X121353445Y-55764499D01*
X121349000Y-55719362D01*
X121349000Y-55080638D01*
X121353445Y-55035501D01*
X121364820Y-54998005D01*
X121383292Y-54963446D01*
X121408153Y-54933153D01*
X121438446Y-54908292D01*
X121473005Y-54889820D01*
X121510501Y-54878445D01*
X121555638Y-54874000D01*
X122294362Y-54874000D01*
X122339499Y-54878445D01*
X122339499Y-54878445D01*
G37*
G36*
X124089499Y-54878445D02*
G01*
X124126995Y-54889820D01*
X124161554Y-54908292D01*
X124191847Y-54933153D01*
X124216708Y-54963446D01*
X124235180Y-54998005D01*
X124246555Y-55035501D01*
X124251000Y-55080638D01*
X124251000Y-55719362D01*
X124246555Y-55764499D01*
X124235180Y-55801995D01*
X124216708Y-55836554D01*
X124191847Y-55866847D01*
X124161554Y-55891708D01*
X124126995Y-55910180D01*
X124089499Y-55921555D01*
X124044362Y-55926000D01*
X123305638Y-55926000D01*
X123260501Y-55921555D01*
X123223005Y-55910180D01*
X123188446Y-55891708D01*
X123158153Y-55866847D01*
X123133292Y-55836554D01*
X123114820Y-55801995D01*
X123103445Y-55764499D01*
X123099000Y-55719362D01*
X123099000Y-55080638D01*
X123103445Y-55035501D01*
X123114820Y-54998005D01*
X123133292Y-54963446D01*
X123158153Y-54933153D01*
X123188446Y-54908292D01*
X123223005Y-54889820D01*
X123260501Y-54878445D01*
X123305638Y-54874000D01*
X124044362Y-54874000D01*
X124089499Y-54878445D01*
X124089499Y-54878445D01*
G37*
G36*
X95225562Y-52078181D02*
G01*
X95260481Y-52088774D01*
X95292663Y-52105976D01*
X95320873Y-52129127D01*
X95344024Y-52157337D01*
X95361226Y-52189519D01*
X95371819Y-52224438D01*
X95376000Y-52266895D01*
X95376000Y-53733105D01*
X95371819Y-53775562D01*
X95361226Y-53810481D01*
X95344024Y-53842663D01*
X95320873Y-53870873D01*
X95292663Y-53894024D01*
X95260481Y-53911226D01*
X95225562Y-53921819D01*
X95183105Y-53926000D01*
X94041895Y-53926000D01*
X93999438Y-53921819D01*
X93964519Y-53911226D01*
X93932337Y-53894024D01*
X93904127Y-53870873D01*
X93880976Y-53842663D01*
X93863774Y-53810481D01*
X93853181Y-53775562D01*
X93849000Y-53733105D01*
X93849000Y-52266895D01*
X93853181Y-52224438D01*
X93863774Y-52189519D01*
X93880976Y-52157337D01*
X93904127Y-52129127D01*
X93932337Y-52105976D01*
X93964519Y-52088774D01*
X93999438Y-52078181D01*
X94041895Y-52074000D01*
X95183105Y-52074000D01*
X95225562Y-52078181D01*
X95225562Y-52078181D01*
G37*
G36*
X98200562Y-52078181D02*
G01*
X98235481Y-52088774D01*
X98267663Y-52105976D01*
X98295873Y-52129127D01*
X98319024Y-52157337D01*
X98336226Y-52189519D01*
X98346819Y-52224438D01*
X98351000Y-52266895D01*
X98351000Y-53733105D01*
X98346819Y-53775562D01*
X98336226Y-53810481D01*
X98319024Y-53842663D01*
X98295873Y-53870873D01*
X98267663Y-53894024D01*
X98235481Y-53911226D01*
X98200562Y-53921819D01*
X98158105Y-53926000D01*
X97016895Y-53926000D01*
X96974438Y-53921819D01*
X96939519Y-53911226D01*
X96907337Y-53894024D01*
X96879127Y-53870873D01*
X96855976Y-53842663D01*
X96838774Y-53810481D01*
X96828181Y-53775562D01*
X96824000Y-53733105D01*
X96824000Y-52266895D01*
X96828181Y-52224438D01*
X96838774Y-52189519D01*
X96855976Y-52157337D01*
X96879127Y-52129127D01*
X96907337Y-52105976D01*
X96939519Y-52088774D01*
X96974438Y-52078181D01*
X97016895Y-52074000D01*
X98158105Y-52074000D01*
X98200562Y-52078181D01*
X98200562Y-52078181D01*
G37*
G36*
X128814928Y-51451764D02*
G01*
X128836009Y-51458160D01*
X128855445Y-51468548D01*
X128872476Y-51482524D01*
X128886452Y-51499555D01*
X128896840Y-51518991D01*
X128903236Y-51540072D01*
X128906000Y-51568140D01*
X128906000Y-53381860D01*
X128903236Y-53409928D01*
X128896840Y-53431009D01*
X128886452Y-53450445D01*
X128872476Y-53467476D01*
X128855445Y-53481452D01*
X128836009Y-53491840D01*
X128814928Y-53498236D01*
X128786860Y-53501000D01*
X128323140Y-53501000D01*
X128295072Y-53498236D01*
X128273991Y-53491840D01*
X128254555Y-53481452D01*
X128237524Y-53467476D01*
X128223548Y-53450445D01*
X128213160Y-53431009D01*
X128206764Y-53409928D01*
X128204000Y-53381860D01*
X128204000Y-51568140D01*
X128206764Y-51540072D01*
X128213160Y-51518991D01*
X128223548Y-51499555D01*
X128237524Y-51482524D01*
X128254555Y-51468548D01*
X128273991Y-51458160D01*
X128295072Y-51451764D01*
X128323140Y-51449000D01*
X128786860Y-51449000D01*
X128814928Y-51451764D01*
X128814928Y-51451764D01*
G37*
G36*
X137704928Y-51451764D02*
G01*
X137726009Y-51458160D01*
X137745445Y-51468548D01*
X137762476Y-51482524D01*
X137776452Y-51499555D01*
X137786840Y-51518991D01*
X137793236Y-51540072D01*
X137796000Y-51568140D01*
X137796000Y-53381860D01*
X137793236Y-53409928D01*
X137786840Y-53431009D01*
X137776452Y-53450445D01*
X137762476Y-53467476D01*
X137745445Y-53481452D01*
X137726009Y-53491840D01*
X137704928Y-53498236D01*
X137676860Y-53501000D01*
X137213140Y-53501000D01*
X137185072Y-53498236D01*
X137163991Y-53491840D01*
X137144555Y-53481452D01*
X137127524Y-53467476D01*
X137113548Y-53450445D01*
X137103160Y-53431009D01*
X137096764Y-53409928D01*
X137094000Y-53381860D01*
X137094000Y-51568140D01*
X137096764Y-51540072D01*
X137103160Y-51518991D01*
X137113548Y-51499555D01*
X137127524Y-51482524D01*
X137144555Y-51468548D01*
X137163991Y-51458160D01*
X137185072Y-51451764D01*
X137213140Y-51449000D01*
X137676860Y-51449000D01*
X137704928Y-51451764D01*
X137704928Y-51451764D01*
G37*
G36*
X136434928Y-51451764D02*
G01*
X136456009Y-51458160D01*
X136475445Y-51468548D01*
X136492476Y-51482524D01*
X136506452Y-51499555D01*
X136516840Y-51518991D01*
X136523236Y-51540072D01*
X136526000Y-51568140D01*
X136526000Y-53381860D01*
X136523236Y-53409928D01*
X136516840Y-53431009D01*
X136506452Y-53450445D01*
X136492476Y-53467476D01*
X136475445Y-53481452D01*
X136456009Y-53491840D01*
X136434928Y-53498236D01*
X136406860Y-53501000D01*
X135943140Y-53501000D01*
X135915072Y-53498236D01*
X135893991Y-53491840D01*
X135874555Y-53481452D01*
X135857524Y-53467476D01*
X135843548Y-53450445D01*
X135833160Y-53431009D01*
X135826764Y-53409928D01*
X135824000Y-53381860D01*
X135824000Y-51568140D01*
X135826764Y-51540072D01*
X135833160Y-51518991D01*
X135843548Y-51499555D01*
X135857524Y-51482524D01*
X135874555Y-51468548D01*
X135893991Y-51458160D01*
X135915072Y-51451764D01*
X135943140Y-51449000D01*
X136406860Y-51449000D01*
X136434928Y-51451764D01*
X136434928Y-51451764D01*
G37*
G36*
X135164928Y-51451764D02*
G01*
X135186009Y-51458160D01*
X135205445Y-51468548D01*
X135222476Y-51482524D01*
X135236452Y-51499555D01*
X135246840Y-51518991D01*
X135253236Y-51540072D01*
X135256000Y-51568140D01*
X135256000Y-53381860D01*
X135253236Y-53409928D01*
X135246840Y-53431009D01*
X135236452Y-53450445D01*
X135222476Y-53467476D01*
X135205445Y-53481452D01*
X135186009Y-53491840D01*
X135164928Y-53498236D01*
X135136860Y-53501000D01*
X134673140Y-53501000D01*
X134645072Y-53498236D01*
X134623991Y-53491840D01*
X134604555Y-53481452D01*
X134587524Y-53467476D01*
X134573548Y-53450445D01*
X134563160Y-53431009D01*
X134556764Y-53409928D01*
X134554000Y-53381860D01*
X134554000Y-51568140D01*
X134556764Y-51540072D01*
X134563160Y-51518991D01*
X134573548Y-51499555D01*
X134587524Y-51482524D01*
X134604555Y-51468548D01*
X134623991Y-51458160D01*
X134645072Y-51451764D01*
X134673140Y-51449000D01*
X135136860Y-51449000D01*
X135164928Y-51451764D01*
X135164928Y-51451764D01*
G37*
G36*
X133894928Y-51451764D02*
G01*
X133916009Y-51458160D01*
X133935445Y-51468548D01*
X133952476Y-51482524D01*
X133966452Y-51499555D01*
X133976840Y-51518991D01*
X133983236Y-51540072D01*
X133986000Y-51568140D01*
X133986000Y-53381860D01*
X133983236Y-53409928D01*
X133976840Y-53431009D01*
X133966452Y-53450445D01*
X133952476Y-53467476D01*
X133935445Y-53481452D01*
X133916009Y-53491840D01*
X133894928Y-53498236D01*
X133866860Y-53501000D01*
X133403140Y-53501000D01*
X133375072Y-53498236D01*
X133353991Y-53491840D01*
X133334555Y-53481452D01*
X133317524Y-53467476D01*
X133303548Y-53450445D01*
X133293160Y-53431009D01*
X133286764Y-53409928D01*
X133284000Y-53381860D01*
X133284000Y-51568140D01*
X133286764Y-51540072D01*
X133293160Y-51518991D01*
X133303548Y-51499555D01*
X133317524Y-51482524D01*
X133334555Y-51468548D01*
X133353991Y-51458160D01*
X133375072Y-51451764D01*
X133403140Y-51449000D01*
X133866860Y-51449000D01*
X133894928Y-51451764D01*
X133894928Y-51451764D01*
G37*
G36*
X132624928Y-51451764D02*
G01*
X132646009Y-51458160D01*
X132665445Y-51468548D01*
X132682476Y-51482524D01*
X132696452Y-51499555D01*
X132706840Y-51518991D01*
X132713236Y-51540072D01*
X132716000Y-51568140D01*
X132716000Y-53381860D01*
X132713236Y-53409928D01*
X132706840Y-53431009D01*
X132696452Y-53450445D01*
X132682476Y-53467476D01*
X132665445Y-53481452D01*
X132646009Y-53491840D01*
X132624928Y-53498236D01*
X132596860Y-53501000D01*
X132133140Y-53501000D01*
X132105072Y-53498236D01*
X132083991Y-53491840D01*
X132064555Y-53481452D01*
X132047524Y-53467476D01*
X132033548Y-53450445D01*
X132023160Y-53431009D01*
X132016764Y-53409928D01*
X132014000Y-53381860D01*
X132014000Y-51568140D01*
X132016764Y-51540072D01*
X132023160Y-51518991D01*
X132033548Y-51499555D01*
X132047524Y-51482524D01*
X132064555Y-51468548D01*
X132083991Y-51458160D01*
X132105072Y-51451764D01*
X132133140Y-51449000D01*
X132596860Y-51449000D01*
X132624928Y-51451764D01*
X132624928Y-51451764D01*
G37*
G36*
X131354928Y-51451764D02*
G01*
X131376009Y-51458160D01*
X131395445Y-51468548D01*
X131412476Y-51482524D01*
X131426452Y-51499555D01*
X131436840Y-51518991D01*
X131443236Y-51540072D01*
X131446000Y-51568140D01*
X131446000Y-53381860D01*
X131443236Y-53409928D01*
X131436840Y-53431009D01*
X131426452Y-53450445D01*
X131412476Y-53467476D01*
X131395445Y-53481452D01*
X131376009Y-53491840D01*
X131354928Y-53498236D01*
X131326860Y-53501000D01*
X130863140Y-53501000D01*
X130835072Y-53498236D01*
X130813991Y-53491840D01*
X130794555Y-53481452D01*
X130777524Y-53467476D01*
X130763548Y-53450445D01*
X130753160Y-53431009D01*
X130746764Y-53409928D01*
X130744000Y-53381860D01*
X130744000Y-51568140D01*
X130746764Y-51540072D01*
X130753160Y-51518991D01*
X130763548Y-51499555D01*
X130777524Y-51482524D01*
X130794555Y-51468548D01*
X130813991Y-51458160D01*
X130835072Y-51451764D01*
X130863140Y-51449000D01*
X131326860Y-51449000D01*
X131354928Y-51451764D01*
X131354928Y-51451764D01*
G37*
G36*
X130084928Y-51451764D02*
G01*
X130106009Y-51458160D01*
X130125445Y-51468548D01*
X130142476Y-51482524D01*
X130156452Y-51499555D01*
X130166840Y-51518991D01*
X130173236Y-51540072D01*
X130176000Y-51568140D01*
X130176000Y-53381860D01*
X130173236Y-53409928D01*
X130166840Y-53431009D01*
X130156452Y-53450445D01*
X130142476Y-53467476D01*
X130125445Y-53481452D01*
X130106009Y-53491840D01*
X130084928Y-53498236D01*
X130056860Y-53501000D01*
X129593140Y-53501000D01*
X129565072Y-53498236D01*
X129543991Y-53491840D01*
X129524555Y-53481452D01*
X129507524Y-53467476D01*
X129493548Y-53450445D01*
X129483160Y-53431009D01*
X129476764Y-53409928D01*
X129474000Y-53381860D01*
X129474000Y-51568140D01*
X129476764Y-51540072D01*
X129483160Y-51518991D01*
X129493548Y-51499555D01*
X129507524Y-51482524D01*
X129524555Y-51468548D01*
X129543991Y-51458160D01*
X129565072Y-51451764D01*
X129593140Y-51449000D01*
X130056860Y-51449000D01*
X130084928Y-51451764D01*
X130084928Y-51451764D01*
G37*
G36*
X87552585Y-46478802D02*
G01*
X87702410Y-46508604D01*
X87984674Y-46625521D01*
X88238705Y-46795259D01*
X88454741Y-47011295D01*
X88624479Y-47265326D01*
X88741396Y-47547590D01*
X88801000Y-47847240D01*
X88801000Y-48152760D01*
X88741396Y-48452410D01*
X88624479Y-48734674D01*
X88454741Y-48988705D01*
X88238705Y-49204741D01*
X87984674Y-49374479D01*
X87702410Y-49491396D01*
X87552585Y-49521198D01*
X87402761Y-49551000D01*
X87097239Y-49551000D01*
X86947415Y-49521198D01*
X86797590Y-49491396D01*
X86515326Y-49374479D01*
X86261295Y-49204741D01*
X86045259Y-48988705D01*
X85875521Y-48734674D01*
X85758604Y-48452410D01*
X85699000Y-48152760D01*
X85699000Y-47847240D01*
X85758604Y-47547590D01*
X85875521Y-47265326D01*
X86045259Y-47011295D01*
X86261295Y-46795259D01*
X86515326Y-46625521D01*
X86797590Y-46508604D01*
X86947415Y-46478802D01*
X87097239Y-46449000D01*
X87402761Y-46449000D01*
X87552585Y-46478802D01*
X87552585Y-46478802D01*
G37*
G36*
X137704928Y-46501764D02*
G01*
X137726009Y-46508160D01*
X137745445Y-46518548D01*
X137762476Y-46532524D01*
X137776452Y-46549555D01*
X137786840Y-46568991D01*
X137793236Y-46590072D01*
X137796000Y-46618140D01*
X137796000Y-48431860D01*
X137793236Y-48459928D01*
X137786840Y-48481009D01*
X137776452Y-48500445D01*
X137762476Y-48517476D01*
X137745445Y-48531452D01*
X137726009Y-48541840D01*
X137704928Y-48548236D01*
X137676860Y-48551000D01*
X137213140Y-48551000D01*
X137185072Y-48548236D01*
X137163991Y-48541840D01*
X137144555Y-48531452D01*
X137127524Y-48517476D01*
X137113548Y-48500445D01*
X137103160Y-48481009D01*
X137096764Y-48459928D01*
X137094000Y-48431860D01*
X137094000Y-46618140D01*
X137096764Y-46590072D01*
X137103160Y-46568991D01*
X137113548Y-46549555D01*
X137127524Y-46532524D01*
X137144555Y-46518548D01*
X137163991Y-46508160D01*
X137185072Y-46501764D01*
X137213140Y-46499000D01*
X137676860Y-46499000D01*
X137704928Y-46501764D01*
X137704928Y-46501764D01*
G37*
G36*
X136434928Y-46501764D02*
G01*
X136456009Y-46508160D01*
X136475445Y-46518548D01*
X136492476Y-46532524D01*
X136506452Y-46549555D01*
X136516840Y-46568991D01*
X136523236Y-46590072D01*
X136526000Y-46618140D01*
X136526000Y-48431860D01*
X136523236Y-48459928D01*
X136516840Y-48481009D01*
X136506452Y-48500445D01*
X136492476Y-48517476D01*
X136475445Y-48531452D01*
X136456009Y-48541840D01*
X136434928Y-48548236D01*
X136406860Y-48551000D01*
X135943140Y-48551000D01*
X135915072Y-48548236D01*
X135893991Y-48541840D01*
X135874555Y-48531452D01*
X135857524Y-48517476D01*
X135843548Y-48500445D01*
X135833160Y-48481009D01*
X135826764Y-48459928D01*
X135824000Y-48431860D01*
X135824000Y-46618140D01*
X135826764Y-46590072D01*
X135833160Y-46568991D01*
X135843548Y-46549555D01*
X135857524Y-46532524D01*
X135874555Y-46518548D01*
X135893991Y-46508160D01*
X135915072Y-46501764D01*
X135943140Y-46499000D01*
X136406860Y-46499000D01*
X136434928Y-46501764D01*
X136434928Y-46501764D01*
G37*
G36*
X135164928Y-46501764D02*
G01*
X135186009Y-46508160D01*
X135205445Y-46518548D01*
X135222476Y-46532524D01*
X135236452Y-46549555D01*
X135246840Y-46568991D01*
X135253236Y-46590072D01*
X135256000Y-46618140D01*
X135256000Y-48431860D01*
X135253236Y-48459928D01*
X135246840Y-48481009D01*
X135236452Y-48500445D01*
X135222476Y-48517476D01*
X135205445Y-48531452D01*
X135186009Y-48541840D01*
X135164928Y-48548236D01*
X135136860Y-48551000D01*
X134673140Y-48551000D01*
X134645072Y-48548236D01*
X134623991Y-48541840D01*
X134604555Y-48531452D01*
X134587524Y-48517476D01*
X134573548Y-48500445D01*
X134563160Y-48481009D01*
X134556764Y-48459928D01*
X134554000Y-48431860D01*
X134554000Y-46618140D01*
X134556764Y-46590072D01*
X134563160Y-46568991D01*
X134573548Y-46549555D01*
X134587524Y-46532524D01*
X134604555Y-46518548D01*
X134623991Y-46508160D01*
X134645072Y-46501764D01*
X134673140Y-46499000D01*
X135136860Y-46499000D01*
X135164928Y-46501764D01*
X135164928Y-46501764D01*
G37*
G36*
X133894928Y-46501764D02*
G01*
X133916009Y-46508160D01*
X133935445Y-46518548D01*
X133952476Y-46532524D01*
X133966452Y-46549555D01*
X133976840Y-46568991D01*
X133983236Y-46590072D01*
X133986000Y-46618140D01*
X133986000Y-48431860D01*
X133983236Y-48459928D01*
X133976840Y-48481009D01*
X133966452Y-48500445D01*
X133952476Y-48517476D01*
X133935445Y-48531452D01*
X133916009Y-48541840D01*
X133894928Y-48548236D01*
X133866860Y-48551000D01*
X133403140Y-48551000D01*
X133375072Y-48548236D01*
X133353991Y-48541840D01*
X133334555Y-48531452D01*
X133317524Y-48517476D01*
X133303548Y-48500445D01*
X133293160Y-48481009D01*
X133286764Y-48459928D01*
X133284000Y-48431860D01*
X133284000Y-46618140D01*
X133286764Y-46590072D01*
X133293160Y-46568991D01*
X133303548Y-46549555D01*
X133317524Y-46532524D01*
X133334555Y-46518548D01*
X133353991Y-46508160D01*
X133375072Y-46501764D01*
X133403140Y-46499000D01*
X133866860Y-46499000D01*
X133894928Y-46501764D01*
X133894928Y-46501764D01*
G37*
G36*
X131354928Y-46501764D02*
G01*
X131376009Y-46508160D01*
X131395445Y-46518548D01*
X131412476Y-46532524D01*
X131426452Y-46549555D01*
X131436840Y-46568991D01*
X131443236Y-46590072D01*
X131446000Y-46618140D01*
X131446000Y-48431860D01*
X131443236Y-48459928D01*
X131436840Y-48481009D01*
X131426452Y-48500445D01*
X131412476Y-48517476D01*
X131395445Y-48531452D01*
X131376009Y-48541840D01*
X131354928Y-48548236D01*
X131326860Y-48551000D01*
X130863140Y-48551000D01*
X130835072Y-48548236D01*
X130813991Y-48541840D01*
X130794555Y-48531452D01*
X130777524Y-48517476D01*
X130763548Y-48500445D01*
X130753160Y-48481009D01*
X130746764Y-48459928D01*
X130744000Y-48431860D01*
X130744000Y-46618140D01*
X130746764Y-46590072D01*
X130753160Y-46568991D01*
X130763548Y-46549555D01*
X130777524Y-46532524D01*
X130794555Y-46518548D01*
X130813991Y-46508160D01*
X130835072Y-46501764D01*
X130863140Y-46499000D01*
X131326860Y-46499000D01*
X131354928Y-46501764D01*
X131354928Y-46501764D01*
G37*
G36*
X130084928Y-46501764D02*
G01*
X130106009Y-46508160D01*
X130125445Y-46518548D01*
X130142476Y-46532524D01*
X130156452Y-46549555D01*
X130166840Y-46568991D01*
X130173236Y-46590072D01*
X130176000Y-46618140D01*
X130176000Y-48431860D01*
X130173236Y-48459928D01*
X130166840Y-48481009D01*
X130156452Y-48500445D01*
X130142476Y-48517476D01*
X130125445Y-48531452D01*
X130106009Y-48541840D01*
X130084928Y-48548236D01*
X130056860Y-48551000D01*
X129593140Y-48551000D01*
X129565072Y-48548236D01*
X129543991Y-48541840D01*
X129524555Y-48531452D01*
X129507524Y-48517476D01*
X129493548Y-48500445D01*
X129483160Y-48481009D01*
X129476764Y-48459928D01*
X129474000Y-48431860D01*
X129474000Y-46618140D01*
X129476764Y-46590072D01*
X129483160Y-46568991D01*
X129493548Y-46549555D01*
X129507524Y-46532524D01*
X129524555Y-46518548D01*
X129543991Y-46508160D01*
X129565072Y-46501764D01*
X129593140Y-46499000D01*
X130056860Y-46499000D01*
X130084928Y-46501764D01*
X130084928Y-46501764D01*
G37*
G36*
X128814928Y-46501764D02*
G01*
X128836009Y-46508160D01*
X128855445Y-46518548D01*
X128872476Y-46532524D01*
X128886452Y-46549555D01*
X128896840Y-46568991D01*
X128903236Y-46590072D01*
X128906000Y-46618140D01*
X128906000Y-48431860D01*
X128903236Y-48459928D01*
X128896840Y-48481009D01*
X128886452Y-48500445D01*
X128872476Y-48517476D01*
X128855445Y-48531452D01*
X128836009Y-48541840D01*
X128814928Y-48548236D01*
X128786860Y-48551000D01*
X128323140Y-48551000D01*
X128295072Y-48548236D01*
X128273991Y-48541840D01*
X128254555Y-48531452D01*
X128237524Y-48517476D01*
X128223548Y-48500445D01*
X128213160Y-48481009D01*
X128206764Y-48459928D01*
X128204000Y-48431860D01*
X128204000Y-46618140D01*
X128206764Y-46590072D01*
X128213160Y-46568991D01*
X128223548Y-46549555D01*
X128237524Y-46532524D01*
X128254555Y-46518548D01*
X128273991Y-46508160D01*
X128295072Y-46501764D01*
X128323140Y-46499000D01*
X128786860Y-46499000D01*
X128814928Y-46501764D01*
X128814928Y-46501764D01*
G37*
G36*
X132624928Y-46501764D02*
G01*
X132646009Y-46508160D01*
X132665445Y-46518548D01*
X132682476Y-46532524D01*
X132696452Y-46549555D01*
X132706840Y-46568991D01*
X132713236Y-46590072D01*
X132716000Y-46618140D01*
X132716000Y-48431860D01*
X132713236Y-48459928D01*
X132706840Y-48481009D01*
X132696452Y-48500445D01*
X132682476Y-48517476D01*
X132665445Y-48531452D01*
X132646009Y-48541840D01*
X132624928Y-48548236D01*
X132596860Y-48551000D01*
X132133140Y-48551000D01*
X132105072Y-48548236D01*
X132083991Y-48541840D01*
X132064555Y-48531452D01*
X132047524Y-48517476D01*
X132033548Y-48500445D01*
X132023160Y-48481009D01*
X132016764Y-48459928D01*
X132014000Y-48431860D01*
X132014000Y-46618140D01*
X132016764Y-46590072D01*
X132023160Y-46568991D01*
X132033548Y-46549555D01*
X132047524Y-46532524D01*
X132064555Y-46518548D01*
X132083991Y-46508160D01*
X132105072Y-46501764D01*
X132133140Y-46499000D01*
X132596860Y-46499000D01*
X132624928Y-46501764D01*
X132624928Y-46501764D01*
G37*
G36*
X30098254Y-42977818D02*
G01*
X30471511Y-43132426D01*
X30471513Y-43132427D01*
X30716401Y-43296056D01*
X30807436Y-43356884D01*
X31093116Y-43642564D01*
X31317574Y-43978489D01*
X31472182Y-44351746D01*
X31551000Y-44747993D01*
X31551000Y-45152007D01*
X31472182Y-45548254D01*
X31317574Y-45921511D01*
X31317573Y-45921513D01*
X31093116Y-46257436D01*
X30807436Y-46543116D01*
X30471513Y-46767573D01*
X30471512Y-46767574D01*
X30471511Y-46767574D01*
X30098254Y-46922182D01*
X29702007Y-47001000D01*
X29297993Y-47001000D01*
X28901746Y-46922182D01*
X28528489Y-46767574D01*
X28528488Y-46767574D01*
X28528487Y-46767573D01*
X28192564Y-46543116D01*
X27906884Y-46257436D01*
X27682427Y-45921513D01*
X27682426Y-45921511D01*
X27527818Y-45548254D01*
X27449000Y-45152007D01*
X27449000Y-44747993D01*
X27527818Y-44351746D01*
X27682426Y-43978489D01*
X27906884Y-43642564D01*
X28192564Y-43356884D01*
X28283599Y-43296056D01*
X28528487Y-43132427D01*
X28528489Y-43132426D01*
X28901746Y-42977818D01*
X29297993Y-42899000D01*
X29702007Y-42899000D01*
X30098254Y-42977818D01*
X30098254Y-42977818D01*
G37*
G36*
X195299071Y-37929000D02*
G01*
X195766282Y-38021934D01*
X196357926Y-38267001D01*
X196698195Y-38494362D01*
X196873586Y-38611554D01*
X196890392Y-38622784D01*
X197343216Y-39075608D01*
X197698999Y-39608074D01*
X197944066Y-40199718D01*
X197995178Y-40456677D01*
X198069000Y-40827803D01*
X198069000Y-41468197D01*
X198038909Y-41619476D01*
X197944066Y-42096282D01*
X197698999Y-42687926D01*
X197343216Y-43220392D01*
X196890392Y-43673216D01*
X196357926Y-44028999D01*
X195766282Y-44274066D01*
X195452239Y-44336533D01*
X195138197Y-44399000D01*
X194497803Y-44399000D01*
X194183761Y-44336533D01*
X193869718Y-44274066D01*
X193278074Y-44028999D01*
X192745608Y-43673216D01*
X192292784Y-43220392D01*
X191937001Y-42687926D01*
X191691934Y-42096282D01*
X191597091Y-41619476D01*
X191567000Y-41468197D01*
X191567000Y-40827803D01*
X191640822Y-40456677D01*
X191691934Y-40199718D01*
X191937001Y-39608074D01*
X192292784Y-39075608D01*
X192745608Y-38622784D01*
X192762415Y-38611554D01*
X192937805Y-38494362D01*
X193278074Y-38267001D01*
X193869718Y-38021934D01*
X194336929Y-37929000D01*
X194497803Y-37897000D01*
X195138197Y-37897000D01*
X195299071Y-37929000D01*
X195299071Y-37929000D01*
G37*
G36*
X101251000Y-44001000D02*
G01*
X99149000Y-44001000D01*
X99149000Y-39399000D01*
X101251000Y-39399000D01*
X101251000Y-44001000D01*
X101251000Y-44001000D01*
G37*
G36*
X6662536Y-36676000D02*
G01*
X7044282Y-36751934D01*
X7635926Y-36997001D01*
X7925523Y-37190504D01*
X8168391Y-37352783D01*
X8621217Y-37805609D01*
X8669367Y-37877671D01*
X8976999Y-38338074D01*
X9222066Y-38929718D01*
X9268558Y-39163448D01*
X9347000Y-39557803D01*
X9347000Y-40198197D01*
X9302091Y-40423969D01*
X9222066Y-40826282D01*
X8976999Y-41417926D01*
X8621216Y-41950392D01*
X8168392Y-42403216D01*
X7635926Y-42758999D01*
X7044282Y-43004066D01*
X6730239Y-43066533D01*
X6416197Y-43129000D01*
X5775803Y-43129000D01*
X5461761Y-43066533D01*
X5147718Y-43004066D01*
X4556074Y-42758999D01*
X4023608Y-42403216D01*
X3570784Y-41950392D01*
X3215001Y-41417926D01*
X2969934Y-40826282D01*
X2889909Y-40423969D01*
X2845000Y-40198197D01*
X2845000Y-39557803D01*
X2923442Y-39163448D01*
X2969934Y-38929718D01*
X3215001Y-38338074D01*
X3522633Y-37877671D01*
X3570783Y-37805609D01*
X4023609Y-37352783D01*
X4266477Y-37190504D01*
X4556074Y-36997001D01*
X5147718Y-36751934D01*
X5529464Y-36676000D01*
X5775803Y-36627000D01*
X6416197Y-36627000D01*
X6662536Y-36676000D01*
X6662536Y-36676000D01*
G37*
G36*
X95414499Y-41103445D02*
G01*
X95451995Y-41114820D01*
X95486554Y-41133292D01*
X95516847Y-41158153D01*
X95541708Y-41188446D01*
X95560180Y-41223005D01*
X95571555Y-41260501D01*
X95576000Y-41305638D01*
X95576000Y-42044362D01*
X95571555Y-42089499D01*
X95560180Y-42126995D01*
X95541708Y-42161554D01*
X95516847Y-42191847D01*
X95486554Y-42216708D01*
X95451995Y-42235180D01*
X95414499Y-42246555D01*
X95369362Y-42251000D01*
X94730638Y-42251000D01*
X94685501Y-42246555D01*
X94648005Y-42235180D01*
X94613446Y-42216708D01*
X94583153Y-42191847D01*
X94558292Y-42161554D01*
X94539820Y-42126995D01*
X94528445Y-42089499D01*
X94524000Y-42044362D01*
X94524000Y-41305638D01*
X94528445Y-41260501D01*
X94539820Y-41223005D01*
X94558292Y-41188446D01*
X94583153Y-41158153D01*
X94613446Y-41133292D01*
X94648005Y-41114820D01*
X94685501Y-41103445D01*
X94730638Y-41099000D01*
X95369362Y-41099000D01*
X95414499Y-41103445D01*
X95414499Y-41103445D01*
G37*
G36*
X87460595Y-38460504D02*
G01*
X87702410Y-38508604D01*
X87984674Y-38625521D01*
X88238705Y-38795259D01*
X88454741Y-39011295D01*
X88624479Y-39265326D01*
X88741396Y-39547590D01*
X88741396Y-39547591D01*
X88801000Y-39847239D01*
X88801000Y-40152761D01*
X88791659Y-40199719D01*
X88741396Y-40452410D01*
X88624479Y-40734674D01*
X88454741Y-40988705D01*
X88238705Y-41204741D01*
X87984674Y-41374479D01*
X87702410Y-41491396D01*
X87552585Y-41521198D01*
X87402761Y-41551000D01*
X87097239Y-41551000D01*
X86947415Y-41521198D01*
X86797590Y-41491396D01*
X86515326Y-41374479D01*
X86261295Y-41204741D01*
X86045259Y-40988705D01*
X85875521Y-40734674D01*
X85758604Y-40452410D01*
X85708341Y-40199719D01*
X85699000Y-40152761D01*
X85699000Y-39847239D01*
X85758604Y-39547591D01*
X85758604Y-39547590D01*
X85875521Y-39265326D01*
X86045259Y-39011295D01*
X86261295Y-38795259D01*
X86515326Y-38625521D01*
X86797590Y-38508604D01*
X87039405Y-38460504D01*
X87097239Y-38449000D01*
X87402761Y-38449000D01*
X87460595Y-38460504D01*
X87460595Y-38460504D01*
G37*
G36*
X42460595Y-38460504D02*
G01*
X42702410Y-38508604D01*
X42984674Y-38625521D01*
X43238705Y-38795259D01*
X43454741Y-39011295D01*
X43624479Y-39265326D01*
X43741396Y-39547590D01*
X43741396Y-39547591D01*
X43801000Y-39847239D01*
X43801000Y-40152761D01*
X43791659Y-40199719D01*
X43741396Y-40452410D01*
X43624479Y-40734674D01*
X43454741Y-40988705D01*
X43238705Y-41204741D01*
X42984674Y-41374479D01*
X42702410Y-41491396D01*
X42552585Y-41521198D01*
X42402761Y-41551000D01*
X42097239Y-41551000D01*
X41947415Y-41521198D01*
X41797590Y-41491396D01*
X41515326Y-41374479D01*
X41261295Y-41204741D01*
X41045259Y-40988705D01*
X40875521Y-40734674D01*
X40758604Y-40452410D01*
X40708341Y-40199719D01*
X40699000Y-40152761D01*
X40699000Y-39847239D01*
X40758604Y-39547591D01*
X40758604Y-39547590D01*
X40875521Y-39265326D01*
X41045259Y-39011295D01*
X41261295Y-38795259D01*
X41515326Y-38625521D01*
X41797590Y-38508604D01*
X42039405Y-38460504D01*
X42097239Y-38449000D01*
X42402761Y-38449000D01*
X42460595Y-38460504D01*
X42460595Y-38460504D01*
G37*
G36*
X115226000Y-41051000D02*
G01*
X108974000Y-41051000D01*
X108974000Y-39349000D01*
X115226000Y-39349000D01*
X115226000Y-41051000D01*
X115226000Y-41051000D01*
G37*
G36*
X95414499Y-39353445D02*
G01*
X95451995Y-39364820D01*
X95486554Y-39383292D01*
X95516847Y-39408153D01*
X95541708Y-39438446D01*
X95560180Y-39473005D01*
X95571555Y-39510501D01*
X95576000Y-39555638D01*
X95576000Y-40294362D01*
X95571555Y-40339499D01*
X95560180Y-40376995D01*
X95541708Y-40411554D01*
X95516847Y-40441847D01*
X95486554Y-40466708D01*
X95451995Y-40485180D01*
X95414499Y-40496555D01*
X95369362Y-40501000D01*
X94730638Y-40501000D01*
X94685501Y-40496555D01*
X94648005Y-40485180D01*
X94613446Y-40466708D01*
X94583153Y-40441847D01*
X94558292Y-40411554D01*
X94539820Y-40376995D01*
X94528445Y-40339499D01*
X94524000Y-40294362D01*
X94524000Y-39555638D01*
X94528445Y-39510501D01*
X94539820Y-39473005D01*
X94558292Y-39438446D01*
X94583153Y-39408153D01*
X94613446Y-39383292D01*
X94648005Y-39364820D01*
X94685501Y-39353445D01*
X94730638Y-39349000D01*
X95369362Y-39349000D01*
X95414499Y-39353445D01*
X95414499Y-39353445D01*
G37*
G36*
X117201000Y-39076000D02*
G01*
X115499000Y-39076000D01*
X115499000Y-32824000D01*
X117201000Y-32824000D01*
X117201000Y-39076000D01*
X117201000Y-39076000D01*
G37*
G36*
X108701000Y-39076000D02*
G01*
X106999000Y-39076000D01*
X106999000Y-32824000D01*
X108701000Y-32824000D01*
X108701000Y-39076000D01*
X108701000Y-39076000D01*
G37*
G36*
X137704928Y-36801764D02*
G01*
X137726009Y-36808160D01*
X137745445Y-36818548D01*
X137762476Y-36832524D01*
X137776452Y-36849555D01*
X137786840Y-36868991D01*
X137793236Y-36890072D01*
X137796000Y-36918140D01*
X137796000Y-38731860D01*
X137793236Y-38759928D01*
X137786840Y-38781009D01*
X137776452Y-38800445D01*
X137762476Y-38817476D01*
X137745445Y-38831452D01*
X137726009Y-38841840D01*
X137704928Y-38848236D01*
X137676860Y-38851000D01*
X137213140Y-38851000D01*
X137185072Y-38848236D01*
X137163991Y-38841840D01*
X137144555Y-38831452D01*
X137127524Y-38817476D01*
X137113548Y-38800445D01*
X137103160Y-38781009D01*
X137096764Y-38759928D01*
X137094000Y-38731860D01*
X137094000Y-36918140D01*
X137096764Y-36890072D01*
X137103160Y-36868991D01*
X137113548Y-36849555D01*
X137127524Y-36832524D01*
X137144555Y-36818548D01*
X137163991Y-36808160D01*
X137185072Y-36801764D01*
X137213140Y-36799000D01*
X137676860Y-36799000D01*
X137704928Y-36801764D01*
X137704928Y-36801764D01*
G37*
G36*
X95414499Y-37703445D02*
G01*
X95451995Y-37714820D01*
X95486554Y-37733292D01*
X95516847Y-37758153D01*
X95541708Y-37788446D01*
X95560180Y-37823005D01*
X95571555Y-37860501D01*
X95576000Y-37905638D01*
X95576000Y-38644362D01*
X95571555Y-38689499D01*
X95560180Y-38726995D01*
X95541708Y-38761554D01*
X95516847Y-38791847D01*
X95486554Y-38816708D01*
X95451995Y-38835180D01*
X95414499Y-38846555D01*
X95369362Y-38851000D01*
X94730638Y-38851000D01*
X94685501Y-38846555D01*
X94648005Y-38835180D01*
X94613446Y-38816708D01*
X94583153Y-38791847D01*
X94558292Y-38761554D01*
X94539820Y-38726995D01*
X94528445Y-38689499D01*
X94524000Y-38644362D01*
X94524000Y-37905638D01*
X94528445Y-37860501D01*
X94539820Y-37823005D01*
X94558292Y-37788446D01*
X94583153Y-37758153D01*
X94613446Y-37733292D01*
X94648005Y-37714820D01*
X94685501Y-37703445D01*
X94730638Y-37699000D01*
X95369362Y-37699000D01*
X95414499Y-37703445D01*
X95414499Y-37703445D01*
G37*
G36*
X130084928Y-36801764D02*
G01*
X130106009Y-36808160D01*
X130125445Y-36818548D01*
X130142476Y-36832524D01*
X130156452Y-36849555D01*
X130166840Y-36868991D01*
X130173236Y-36890072D01*
X130176000Y-36918140D01*
X130176000Y-38731860D01*
X130173236Y-38759928D01*
X130166840Y-38781009D01*
X130156452Y-38800445D01*
X130142476Y-38817476D01*
X130125445Y-38831452D01*
X130106009Y-38841840D01*
X130084928Y-38848236D01*
X130056860Y-38851000D01*
X129593140Y-38851000D01*
X129565072Y-38848236D01*
X129543991Y-38841840D01*
X129524555Y-38831452D01*
X129507524Y-38817476D01*
X129493548Y-38800445D01*
X129483160Y-38781009D01*
X129476764Y-38759928D01*
X129474000Y-38731860D01*
X129474000Y-36918140D01*
X129476764Y-36890072D01*
X129483160Y-36868991D01*
X129493548Y-36849555D01*
X129507524Y-36832524D01*
X129524555Y-36818548D01*
X129543991Y-36808160D01*
X129565072Y-36801764D01*
X129593140Y-36799000D01*
X130056860Y-36799000D01*
X130084928Y-36801764D01*
X130084928Y-36801764D01*
G37*
G36*
X131354928Y-36801764D02*
G01*
X131376009Y-36808160D01*
X131395445Y-36818548D01*
X131412476Y-36832524D01*
X131426452Y-36849555D01*
X131436840Y-36868991D01*
X131443236Y-36890072D01*
X131446000Y-36918140D01*
X131446000Y-38731860D01*
X131443236Y-38759928D01*
X131436840Y-38781009D01*
X131426452Y-38800445D01*
X131412476Y-38817476D01*
X131395445Y-38831452D01*
X131376009Y-38841840D01*
X131354928Y-38848236D01*
X131326860Y-38851000D01*
X130863140Y-38851000D01*
X130835072Y-38848236D01*
X130813991Y-38841840D01*
X130794555Y-38831452D01*
X130777524Y-38817476D01*
X130763548Y-38800445D01*
X130753160Y-38781009D01*
X130746764Y-38759928D01*
X130744000Y-38731860D01*
X130744000Y-36918140D01*
X130746764Y-36890072D01*
X130753160Y-36868991D01*
X130763548Y-36849555D01*
X130777524Y-36832524D01*
X130794555Y-36818548D01*
X130813991Y-36808160D01*
X130835072Y-36801764D01*
X130863140Y-36799000D01*
X131326860Y-36799000D01*
X131354928Y-36801764D01*
X131354928Y-36801764D01*
G37*
G36*
X132624928Y-36801764D02*
G01*
X132646009Y-36808160D01*
X132665445Y-36818548D01*
X132682476Y-36832524D01*
X132696452Y-36849555D01*
X132706840Y-36868991D01*
X132713236Y-36890072D01*
X132716000Y-36918140D01*
X132716000Y-38731860D01*
X132713236Y-38759928D01*
X132706840Y-38781009D01*
X132696452Y-38800445D01*
X132682476Y-38817476D01*
X132665445Y-38831452D01*
X132646009Y-38841840D01*
X132624928Y-38848236D01*
X132596860Y-38851000D01*
X132133140Y-38851000D01*
X132105072Y-38848236D01*
X132083991Y-38841840D01*
X132064555Y-38831452D01*
X132047524Y-38817476D01*
X132033548Y-38800445D01*
X132023160Y-38781009D01*
X132016764Y-38759928D01*
X132014000Y-38731860D01*
X132014000Y-36918140D01*
X132016764Y-36890072D01*
X132023160Y-36868991D01*
X132033548Y-36849555D01*
X132047524Y-36832524D01*
X132064555Y-36818548D01*
X132083991Y-36808160D01*
X132105072Y-36801764D01*
X132133140Y-36799000D01*
X132596860Y-36799000D01*
X132624928Y-36801764D01*
X132624928Y-36801764D01*
G37*
G36*
X135164928Y-36801764D02*
G01*
X135186009Y-36808160D01*
X135205445Y-36818548D01*
X135222476Y-36832524D01*
X135236452Y-36849555D01*
X135246840Y-36868991D01*
X135253236Y-36890072D01*
X135256000Y-36918140D01*
X135256000Y-38731860D01*
X135253236Y-38759928D01*
X135246840Y-38781009D01*
X135236452Y-38800445D01*
X135222476Y-38817476D01*
X135205445Y-38831452D01*
X135186009Y-38841840D01*
X135164928Y-38848236D01*
X135136860Y-38851000D01*
X134673140Y-38851000D01*
X134645072Y-38848236D01*
X134623991Y-38841840D01*
X134604555Y-38831452D01*
X134587524Y-38817476D01*
X134573548Y-38800445D01*
X134563160Y-38781009D01*
X134556764Y-38759928D01*
X134554000Y-38731860D01*
X134554000Y-36918140D01*
X134556764Y-36890072D01*
X134563160Y-36868991D01*
X134573548Y-36849555D01*
X134587524Y-36832524D01*
X134604555Y-36818548D01*
X134623991Y-36808160D01*
X134645072Y-36801764D01*
X134673140Y-36799000D01*
X135136860Y-36799000D01*
X135164928Y-36801764D01*
X135164928Y-36801764D01*
G37*
G36*
X136434928Y-36801764D02*
G01*
X136456009Y-36808160D01*
X136475445Y-36818548D01*
X136492476Y-36832524D01*
X136506452Y-36849555D01*
X136516840Y-36868991D01*
X136523236Y-36890072D01*
X136526000Y-36918140D01*
X136526000Y-38731860D01*
X136523236Y-38759928D01*
X136516840Y-38781009D01*
X136506452Y-38800445D01*
X136492476Y-38817476D01*
X136475445Y-38831452D01*
X136456009Y-38841840D01*
X136434928Y-38848236D01*
X136406860Y-38851000D01*
X135943140Y-38851000D01*
X135915072Y-38848236D01*
X135893991Y-38841840D01*
X135874555Y-38831452D01*
X135857524Y-38817476D01*
X135843548Y-38800445D01*
X135833160Y-38781009D01*
X135826764Y-38759928D01*
X135824000Y-38731860D01*
X135824000Y-36918140D01*
X135826764Y-36890072D01*
X135833160Y-36868991D01*
X135843548Y-36849555D01*
X135857524Y-36832524D01*
X135874555Y-36818548D01*
X135893991Y-36808160D01*
X135915072Y-36801764D01*
X135943140Y-36799000D01*
X136406860Y-36799000D01*
X136434928Y-36801764D01*
X136434928Y-36801764D01*
G37*
G36*
X128814928Y-36801764D02*
G01*
X128836009Y-36808160D01*
X128855445Y-36818548D01*
X128872476Y-36832524D01*
X128886452Y-36849555D01*
X128896840Y-36868991D01*
X128903236Y-36890072D01*
X128906000Y-36918140D01*
X128906000Y-38731860D01*
X128903236Y-38759928D01*
X128896840Y-38781009D01*
X128886452Y-38800445D01*
X128872476Y-38817476D01*
X128855445Y-38831452D01*
X128836009Y-38841840D01*
X128814928Y-38848236D01*
X128786860Y-38851000D01*
X128323140Y-38851000D01*
X128295072Y-38848236D01*
X128273991Y-38841840D01*
X128254555Y-38831452D01*
X128237524Y-38817476D01*
X128223548Y-38800445D01*
X128213160Y-38781009D01*
X128206764Y-38759928D01*
X128204000Y-38731860D01*
X128204000Y-36918140D01*
X128206764Y-36890072D01*
X128213160Y-36868991D01*
X128223548Y-36849555D01*
X128237524Y-36832524D01*
X128254555Y-36818548D01*
X128273991Y-36808160D01*
X128295072Y-36801764D01*
X128323140Y-36799000D01*
X128786860Y-36799000D01*
X128814928Y-36801764D01*
X128814928Y-36801764D01*
G37*
G36*
X133894928Y-36801764D02*
G01*
X133916009Y-36808160D01*
X133935445Y-36818548D01*
X133952476Y-36832524D01*
X133966452Y-36849555D01*
X133976840Y-36868991D01*
X133983236Y-36890072D01*
X133986000Y-36918140D01*
X133986000Y-38731860D01*
X133983236Y-38759928D01*
X133976840Y-38781009D01*
X133966452Y-38800445D01*
X133952476Y-38817476D01*
X133935445Y-38831452D01*
X133916009Y-38841840D01*
X133894928Y-38848236D01*
X133866860Y-38851000D01*
X133403140Y-38851000D01*
X133375072Y-38848236D01*
X133353991Y-38841840D01*
X133334555Y-38831452D01*
X133317524Y-38817476D01*
X133303548Y-38800445D01*
X133293160Y-38781009D01*
X133286764Y-38759928D01*
X133284000Y-38731860D01*
X133284000Y-36918140D01*
X133286764Y-36890072D01*
X133293160Y-36868991D01*
X133303548Y-36849555D01*
X133317524Y-36832524D01*
X133334555Y-36818548D01*
X133353991Y-36808160D01*
X133375072Y-36801764D01*
X133403140Y-36799000D01*
X133866860Y-36799000D01*
X133894928Y-36801764D01*
X133894928Y-36801764D01*
G37*
G36*
X105814499Y-37553445D02*
G01*
X105851995Y-37564820D01*
X105886554Y-37583292D01*
X105916847Y-37608153D01*
X105941708Y-37638446D01*
X105960180Y-37673005D01*
X105971555Y-37710501D01*
X105976000Y-37755638D01*
X105976000Y-38494362D01*
X105971555Y-38539499D01*
X105960180Y-38576995D01*
X105941708Y-38611554D01*
X105916847Y-38641847D01*
X105886554Y-38666708D01*
X105851995Y-38685180D01*
X105814499Y-38696555D01*
X105769362Y-38701000D01*
X105130638Y-38701000D01*
X105085501Y-38696555D01*
X105048005Y-38685180D01*
X105013446Y-38666708D01*
X104983153Y-38641847D01*
X104958292Y-38611554D01*
X104939820Y-38576995D01*
X104928445Y-38539499D01*
X104924000Y-38494362D01*
X104924000Y-37755638D01*
X104928445Y-37710501D01*
X104939820Y-37673005D01*
X104958292Y-37638446D01*
X104983153Y-37608153D01*
X105013446Y-37583292D01*
X105048005Y-37564820D01*
X105085501Y-37553445D01*
X105130638Y-37549000D01*
X105769362Y-37549000D01*
X105814499Y-37553445D01*
X105814499Y-37553445D01*
G37*
G36*
X95414499Y-35953445D02*
G01*
X95451995Y-35964820D01*
X95486554Y-35983292D01*
X95516847Y-36008153D01*
X95541708Y-36038446D01*
X95560180Y-36073005D01*
X95571555Y-36110501D01*
X95576000Y-36155638D01*
X95576000Y-36894362D01*
X95571555Y-36939499D01*
X95560180Y-36976995D01*
X95541708Y-37011554D01*
X95516847Y-37041847D01*
X95486554Y-37066708D01*
X95451995Y-37085180D01*
X95414499Y-37096555D01*
X95369362Y-37101000D01*
X94730638Y-37101000D01*
X94685501Y-37096555D01*
X94648005Y-37085180D01*
X94613446Y-37066708D01*
X94583153Y-37041847D01*
X94558292Y-37011554D01*
X94539820Y-36976995D01*
X94528445Y-36939499D01*
X94524000Y-36894362D01*
X94524000Y-36155638D01*
X94528445Y-36110501D01*
X94539820Y-36073005D01*
X94558292Y-36038446D01*
X94583153Y-36008153D01*
X94613446Y-35983292D01*
X94648005Y-35964820D01*
X94685501Y-35953445D01*
X94730638Y-35949000D01*
X95369362Y-35949000D01*
X95414499Y-35953445D01*
X95414499Y-35953445D01*
G37*
G36*
X105814499Y-35803445D02*
G01*
X105851995Y-35814820D01*
X105886554Y-35833292D01*
X105916847Y-35858153D01*
X105941708Y-35888446D01*
X105960180Y-35923005D01*
X105971555Y-35960501D01*
X105976000Y-36005638D01*
X105976000Y-36744362D01*
X105971555Y-36789499D01*
X105960180Y-36826995D01*
X105941708Y-36861554D01*
X105916847Y-36891847D01*
X105886554Y-36916708D01*
X105851995Y-36935180D01*
X105814499Y-36946555D01*
X105769362Y-36951000D01*
X105130638Y-36951000D01*
X105085501Y-36946555D01*
X105048005Y-36935180D01*
X105013446Y-36916708D01*
X104983153Y-36891847D01*
X104958292Y-36861554D01*
X104939820Y-36826995D01*
X104928445Y-36789499D01*
X104924000Y-36744362D01*
X104924000Y-36005638D01*
X104928445Y-35960501D01*
X104939820Y-35923005D01*
X104958292Y-35888446D01*
X104983153Y-35858153D01*
X105013446Y-35833292D01*
X105048005Y-35814820D01*
X105085501Y-35803445D01*
X105130638Y-35799000D01*
X105769362Y-35799000D01*
X105814499Y-35803445D01*
X105814499Y-35803445D01*
G37*
G36*
X120214499Y-35153445D02*
G01*
X120251995Y-35164820D01*
X120286554Y-35183292D01*
X120316847Y-35208153D01*
X120341708Y-35238446D01*
X120360180Y-35273005D01*
X120371555Y-35310501D01*
X120376000Y-35355638D01*
X120376000Y-36094362D01*
X120371555Y-36139499D01*
X120360180Y-36176995D01*
X120341708Y-36211554D01*
X120316847Y-36241847D01*
X120286554Y-36266708D01*
X120251995Y-36285180D01*
X120214499Y-36296555D01*
X120169362Y-36301000D01*
X119530638Y-36301000D01*
X119485501Y-36296555D01*
X119448005Y-36285180D01*
X119413446Y-36266708D01*
X119383153Y-36241847D01*
X119358292Y-36211554D01*
X119339820Y-36176995D01*
X119328445Y-36139499D01*
X119324000Y-36094362D01*
X119324000Y-35355638D01*
X119328445Y-35310501D01*
X119339820Y-35273005D01*
X119358292Y-35238446D01*
X119383153Y-35208153D01*
X119413446Y-35183292D01*
X119448005Y-35164820D01*
X119485501Y-35153445D01*
X119530638Y-35149000D01*
X120169362Y-35149000D01*
X120214499Y-35153445D01*
X120214499Y-35153445D01*
G37*
G36*
X121914499Y-35153445D02*
G01*
X121951995Y-35164820D01*
X121986554Y-35183292D01*
X122016847Y-35208153D01*
X122041708Y-35238446D01*
X122060180Y-35273005D01*
X122071555Y-35310501D01*
X122076000Y-35355638D01*
X122076000Y-36094362D01*
X122071555Y-36139499D01*
X122060180Y-36176995D01*
X122041708Y-36211554D01*
X122016847Y-36241847D01*
X121986554Y-36266708D01*
X121951995Y-36285180D01*
X121914499Y-36296555D01*
X121869362Y-36301000D01*
X121230638Y-36301000D01*
X121185501Y-36296555D01*
X121148005Y-36285180D01*
X121113446Y-36266708D01*
X121083153Y-36241847D01*
X121058292Y-36211554D01*
X121039820Y-36176995D01*
X121028445Y-36139499D01*
X121024000Y-36094362D01*
X121024000Y-35355638D01*
X121028445Y-35310501D01*
X121039820Y-35273005D01*
X121058292Y-35238446D01*
X121083153Y-35208153D01*
X121113446Y-35183292D01*
X121148005Y-35164820D01*
X121185501Y-35153445D01*
X121230638Y-35149000D01*
X121869362Y-35149000D01*
X121914499Y-35153445D01*
X121914499Y-35153445D01*
G37*
G36*
X123514499Y-35153445D02*
G01*
X123551995Y-35164820D01*
X123586554Y-35183292D01*
X123616847Y-35208153D01*
X123641708Y-35238446D01*
X123660180Y-35273005D01*
X123671555Y-35310501D01*
X123676000Y-35355638D01*
X123676000Y-36094362D01*
X123671555Y-36139499D01*
X123660180Y-36176995D01*
X123641708Y-36211554D01*
X123616847Y-36241847D01*
X123586554Y-36266708D01*
X123551995Y-36285180D01*
X123514499Y-36296555D01*
X123469362Y-36301000D01*
X122830638Y-36301000D01*
X122785501Y-36296555D01*
X122748005Y-36285180D01*
X122713446Y-36266708D01*
X122683153Y-36241847D01*
X122658292Y-36211554D01*
X122639820Y-36176995D01*
X122628445Y-36139499D01*
X122624000Y-36094362D01*
X122624000Y-35355638D01*
X122628445Y-35310501D01*
X122639820Y-35273005D01*
X122658292Y-35238446D01*
X122683153Y-35208153D01*
X122713446Y-35183292D01*
X122748005Y-35164820D01*
X122785501Y-35153445D01*
X122830638Y-35149000D01*
X123469362Y-35149000D01*
X123514499Y-35153445D01*
X123514499Y-35153445D01*
G37*
G36*
X101251000Y-35501000D02*
G01*
X99149000Y-35501000D01*
X99149000Y-30899000D01*
X101251000Y-30899000D01*
X101251000Y-35501000D01*
X101251000Y-35501000D01*
G37*
G36*
X123514499Y-33403445D02*
G01*
X123551995Y-33414820D01*
X123586554Y-33433292D01*
X123616847Y-33458153D01*
X123641708Y-33488446D01*
X123660180Y-33523005D01*
X123671555Y-33560501D01*
X123676000Y-33605638D01*
X123676000Y-34344362D01*
X123671555Y-34389499D01*
X123660180Y-34426995D01*
X123641708Y-34461554D01*
X123616847Y-34491847D01*
X123586554Y-34516708D01*
X123551995Y-34535180D01*
X123514499Y-34546555D01*
X123469362Y-34551000D01*
X122830638Y-34551000D01*
X122785501Y-34546555D01*
X122748005Y-34535180D01*
X122713446Y-34516708D01*
X122683153Y-34491847D01*
X122658292Y-34461554D01*
X122639820Y-34426995D01*
X122628445Y-34389499D01*
X122624000Y-34344362D01*
X122624000Y-33605638D01*
X122628445Y-33560501D01*
X122639820Y-33523005D01*
X122658292Y-33488446D01*
X122683153Y-33458153D01*
X122713446Y-33433292D01*
X122748005Y-33414820D01*
X122785501Y-33403445D01*
X122830638Y-33399000D01*
X123469362Y-33399000D01*
X123514499Y-33403445D01*
X123514499Y-33403445D01*
G37*
G36*
X120214499Y-33403445D02*
G01*
X120251995Y-33414820D01*
X120286554Y-33433292D01*
X120316847Y-33458153D01*
X120341708Y-33488446D01*
X120360180Y-33523005D01*
X120371555Y-33560501D01*
X120376000Y-33605638D01*
X120376000Y-34344362D01*
X120371555Y-34389499D01*
X120360180Y-34426995D01*
X120341708Y-34461554D01*
X120316847Y-34491847D01*
X120286554Y-34516708D01*
X120251995Y-34535180D01*
X120214499Y-34546555D01*
X120169362Y-34551000D01*
X119530638Y-34551000D01*
X119485501Y-34546555D01*
X119448005Y-34535180D01*
X119413446Y-34516708D01*
X119383153Y-34491847D01*
X119358292Y-34461554D01*
X119339820Y-34426995D01*
X119328445Y-34389499D01*
X119324000Y-34344362D01*
X119324000Y-33605638D01*
X119328445Y-33560501D01*
X119339820Y-33523005D01*
X119358292Y-33488446D01*
X119383153Y-33458153D01*
X119413446Y-33433292D01*
X119448005Y-33414820D01*
X119485501Y-33403445D01*
X119530638Y-33399000D01*
X120169362Y-33399000D01*
X120214499Y-33403445D01*
X120214499Y-33403445D01*
G37*
G36*
X121914499Y-33403445D02*
G01*
X121951995Y-33414820D01*
X121986554Y-33433292D01*
X122016847Y-33458153D01*
X122041708Y-33488446D01*
X122060180Y-33523005D01*
X122071555Y-33560501D01*
X122076000Y-33605638D01*
X122076000Y-34344362D01*
X122071555Y-34389499D01*
X122060180Y-34426995D01*
X122041708Y-34461554D01*
X122016847Y-34491847D01*
X121986554Y-34516708D01*
X121951995Y-34535180D01*
X121914499Y-34546555D01*
X121869362Y-34551000D01*
X121230638Y-34551000D01*
X121185501Y-34546555D01*
X121148005Y-34535180D01*
X121113446Y-34516708D01*
X121083153Y-34491847D01*
X121058292Y-34461554D01*
X121039820Y-34426995D01*
X121028445Y-34389499D01*
X121024000Y-34344362D01*
X121024000Y-33605638D01*
X121028445Y-33560501D01*
X121039820Y-33523005D01*
X121058292Y-33488446D01*
X121083153Y-33458153D01*
X121113446Y-33433292D01*
X121148005Y-33414820D01*
X121185501Y-33403445D01*
X121230638Y-33399000D01*
X121869362Y-33399000D01*
X121914499Y-33403445D01*
X121914499Y-33403445D01*
G37*
G36*
X136434928Y-31851764D02*
G01*
X136456009Y-31858160D01*
X136475445Y-31868548D01*
X136492476Y-31882524D01*
X136506452Y-31899555D01*
X136516840Y-31918991D01*
X136523236Y-31940072D01*
X136526000Y-31968140D01*
X136526000Y-33781860D01*
X136523236Y-33809928D01*
X136516840Y-33831009D01*
X136506452Y-33850445D01*
X136492476Y-33867476D01*
X136475445Y-33881452D01*
X136456009Y-33891840D01*
X136434928Y-33898236D01*
X136406860Y-33901000D01*
X135943140Y-33901000D01*
X135915072Y-33898236D01*
X135893991Y-33891840D01*
X135874555Y-33881452D01*
X135857524Y-33867476D01*
X135843548Y-33850445D01*
X135833160Y-33831009D01*
X135826764Y-33809928D01*
X135824000Y-33781860D01*
X135824000Y-31968140D01*
X135826764Y-31940072D01*
X135833160Y-31918991D01*
X135843548Y-31899555D01*
X135857524Y-31882524D01*
X135874555Y-31868548D01*
X135893991Y-31858160D01*
X135915072Y-31851764D01*
X135943140Y-31849000D01*
X136406860Y-31849000D01*
X136434928Y-31851764D01*
X136434928Y-31851764D01*
G37*
G36*
X132624928Y-31851764D02*
G01*
X132646009Y-31858160D01*
X132665445Y-31868548D01*
X132682476Y-31882524D01*
X132696452Y-31899555D01*
X132706840Y-31918991D01*
X132713236Y-31940072D01*
X132716000Y-31968140D01*
X132716000Y-33781860D01*
X132713236Y-33809928D01*
X132706840Y-33831009D01*
X132696452Y-33850445D01*
X132682476Y-33867476D01*
X132665445Y-33881452D01*
X132646009Y-33891840D01*
X132624928Y-33898236D01*
X132596860Y-33901000D01*
X132133140Y-33901000D01*
X132105072Y-33898236D01*
X132083991Y-33891840D01*
X132064555Y-33881452D01*
X132047524Y-33867476D01*
X132033548Y-33850445D01*
X132023160Y-33831009D01*
X132016764Y-33809928D01*
X132014000Y-33781860D01*
X132014000Y-31968140D01*
X132016764Y-31940072D01*
X132023160Y-31918991D01*
X132033548Y-31899555D01*
X132047524Y-31882524D01*
X132064555Y-31868548D01*
X132083991Y-31858160D01*
X132105072Y-31851764D01*
X132133140Y-31849000D01*
X132596860Y-31849000D01*
X132624928Y-31851764D01*
X132624928Y-31851764D01*
G37*
G36*
X137704928Y-31851764D02*
G01*
X137726009Y-31858160D01*
X137745445Y-31868548D01*
X137762476Y-31882524D01*
X137776452Y-31899555D01*
X137786840Y-31918991D01*
X137793236Y-31940072D01*
X137796000Y-31968140D01*
X137796000Y-33781860D01*
X137793236Y-33809928D01*
X137786840Y-33831009D01*
X137776452Y-33850445D01*
X137762476Y-33867476D01*
X137745445Y-33881452D01*
X137726009Y-33891840D01*
X137704928Y-33898236D01*
X137676860Y-33901000D01*
X137213140Y-33901000D01*
X137185072Y-33898236D01*
X137163991Y-33891840D01*
X137144555Y-33881452D01*
X137127524Y-33867476D01*
X137113548Y-33850445D01*
X137103160Y-33831009D01*
X137096764Y-33809928D01*
X137094000Y-33781860D01*
X137094000Y-31968140D01*
X137096764Y-31940072D01*
X137103160Y-31918991D01*
X137113548Y-31899555D01*
X137127524Y-31882524D01*
X137144555Y-31868548D01*
X137163991Y-31858160D01*
X137185072Y-31851764D01*
X137213140Y-31849000D01*
X137676860Y-31849000D01*
X137704928Y-31851764D01*
X137704928Y-31851764D01*
G37*
G36*
X130084928Y-31851764D02*
G01*
X130106009Y-31858160D01*
X130125445Y-31868548D01*
X130142476Y-31882524D01*
X130156452Y-31899555D01*
X130166840Y-31918991D01*
X130173236Y-31940072D01*
X130176000Y-31968140D01*
X130176000Y-33781860D01*
X130173236Y-33809928D01*
X130166840Y-33831009D01*
X130156452Y-33850445D01*
X130142476Y-33867476D01*
X130125445Y-33881452D01*
X130106009Y-33891840D01*
X130084928Y-33898236D01*
X130056860Y-33901000D01*
X129593140Y-33901000D01*
X129565072Y-33898236D01*
X129543991Y-33891840D01*
X129524555Y-33881452D01*
X129507524Y-33867476D01*
X129493548Y-33850445D01*
X129483160Y-33831009D01*
X129476764Y-33809928D01*
X129474000Y-33781860D01*
X129474000Y-31968140D01*
X129476764Y-31940072D01*
X129483160Y-31918991D01*
X129493548Y-31899555D01*
X129507524Y-31882524D01*
X129524555Y-31868548D01*
X129543991Y-31858160D01*
X129565072Y-31851764D01*
X129593140Y-31849000D01*
X130056860Y-31849000D01*
X130084928Y-31851764D01*
X130084928Y-31851764D01*
G37*
G36*
X135164928Y-31851764D02*
G01*
X135186009Y-31858160D01*
X135205445Y-31868548D01*
X135222476Y-31882524D01*
X135236452Y-31899555D01*
X135246840Y-31918991D01*
X135253236Y-31940072D01*
X135256000Y-31968140D01*
X135256000Y-33781860D01*
X135253236Y-33809928D01*
X135246840Y-33831009D01*
X135236452Y-33850445D01*
X135222476Y-33867476D01*
X135205445Y-33881452D01*
X135186009Y-33891840D01*
X135164928Y-33898236D01*
X135136860Y-33901000D01*
X134673140Y-33901000D01*
X134645072Y-33898236D01*
X134623991Y-33891840D01*
X134604555Y-33881452D01*
X134587524Y-33867476D01*
X134573548Y-33850445D01*
X134563160Y-33831009D01*
X134556764Y-33809928D01*
X134554000Y-33781860D01*
X134554000Y-31968140D01*
X134556764Y-31940072D01*
X134563160Y-31918991D01*
X134573548Y-31899555D01*
X134587524Y-31882524D01*
X134604555Y-31868548D01*
X134623991Y-31858160D01*
X134645072Y-31851764D01*
X134673140Y-31849000D01*
X135136860Y-31849000D01*
X135164928Y-31851764D01*
X135164928Y-31851764D01*
G37*
G36*
X128814928Y-31851764D02*
G01*
X128836009Y-31858160D01*
X128855445Y-31868548D01*
X128872476Y-31882524D01*
X128886452Y-31899555D01*
X128896840Y-31918991D01*
X128903236Y-31940072D01*
X128906000Y-31968140D01*
X128906000Y-33781860D01*
X128903236Y-33809928D01*
X128896840Y-33831009D01*
X128886452Y-33850445D01*
X128872476Y-33867476D01*
X128855445Y-33881452D01*
X128836009Y-33891840D01*
X128814928Y-33898236D01*
X128786860Y-33901000D01*
X128323140Y-33901000D01*
X128295072Y-33898236D01*
X128273991Y-33891840D01*
X128254555Y-33881452D01*
X128237524Y-33867476D01*
X128223548Y-33850445D01*
X128213160Y-33831009D01*
X128206764Y-33809928D01*
X128204000Y-33781860D01*
X128204000Y-31968140D01*
X128206764Y-31940072D01*
X128213160Y-31918991D01*
X128223548Y-31899555D01*
X128237524Y-31882524D01*
X128254555Y-31868548D01*
X128273991Y-31858160D01*
X128295072Y-31851764D01*
X128323140Y-31849000D01*
X128786860Y-31849000D01*
X128814928Y-31851764D01*
X128814928Y-31851764D01*
G37*
G36*
X133894928Y-31851764D02*
G01*
X133916009Y-31858160D01*
X133935445Y-31868548D01*
X133952476Y-31882524D01*
X133966452Y-31899555D01*
X133976840Y-31918991D01*
X133983236Y-31940072D01*
X133986000Y-31968140D01*
X133986000Y-33781860D01*
X133983236Y-33809928D01*
X133976840Y-33831009D01*
X133966452Y-33850445D01*
X133952476Y-33867476D01*
X133935445Y-33881452D01*
X133916009Y-33891840D01*
X133894928Y-33898236D01*
X133866860Y-33901000D01*
X133403140Y-33901000D01*
X133375072Y-33898236D01*
X133353991Y-33891840D01*
X133334555Y-33881452D01*
X133317524Y-33867476D01*
X133303548Y-33850445D01*
X133293160Y-33831009D01*
X133286764Y-33809928D01*
X133284000Y-33781860D01*
X133284000Y-31968140D01*
X133286764Y-31940072D01*
X133293160Y-31918991D01*
X133303548Y-31899555D01*
X133317524Y-31882524D01*
X133334555Y-31868548D01*
X133353991Y-31858160D01*
X133375072Y-31851764D01*
X133403140Y-31849000D01*
X133866860Y-31849000D01*
X133894928Y-31851764D01*
X133894928Y-31851764D01*
G37*
G36*
X131354928Y-31851764D02*
G01*
X131376009Y-31858160D01*
X131395445Y-31868548D01*
X131412476Y-31882524D01*
X131426452Y-31899555D01*
X131436840Y-31918991D01*
X131443236Y-31940072D01*
X131446000Y-31968140D01*
X131446000Y-33781860D01*
X131443236Y-33809928D01*
X131436840Y-33831009D01*
X131426452Y-33850445D01*
X131412476Y-33867476D01*
X131395445Y-33881452D01*
X131376009Y-33891840D01*
X131354928Y-33898236D01*
X131326860Y-33901000D01*
X130863140Y-33901000D01*
X130835072Y-33898236D01*
X130813991Y-33891840D01*
X130794555Y-33881452D01*
X130777524Y-33867476D01*
X130763548Y-33850445D01*
X130753160Y-33831009D01*
X130746764Y-33809928D01*
X130744000Y-33781860D01*
X130744000Y-31968140D01*
X130746764Y-31940072D01*
X130753160Y-31918991D01*
X130763548Y-31899555D01*
X130777524Y-31882524D01*
X130794555Y-31868548D01*
X130813991Y-31858160D01*
X130835072Y-31851764D01*
X130863140Y-31849000D01*
X131326860Y-31849000D01*
X131354928Y-31851764D01*
X131354928Y-31851764D01*
G37*
G36*
X115226000Y-32551000D02*
G01*
X108974000Y-32551000D01*
X108974000Y-30849000D01*
X115226000Y-30849000D01*
X115226000Y-32551000D01*
X115226000Y-32551000D01*
G37*
G36*
X195198239Y-6717467D02*
G01*
X195512282Y-6779934D01*
X196103926Y-7025001D01*
X196636392Y-7380784D01*
X197089216Y-7833608D01*
X197444999Y-8366074D01*
X197584856Y-8703719D01*
X197690066Y-8957719D01*
X197815000Y-9585803D01*
X197815000Y-10226197D01*
X197752533Y-10540239D01*
X197690066Y-10854282D01*
X197444999Y-11445926D01*
X197089216Y-11978392D01*
X196636392Y-12431216D01*
X196103926Y-12786999D01*
X195512282Y-13032066D01*
X195198239Y-13094533D01*
X194884197Y-13157000D01*
X194243803Y-13157000D01*
X193929761Y-13094533D01*
X193615718Y-13032066D01*
X193024074Y-12786999D01*
X192491608Y-12431216D01*
X192038784Y-11978392D01*
X191683001Y-11445926D01*
X191437934Y-10854282D01*
X191375467Y-10540239D01*
X191313000Y-10226197D01*
X191313000Y-9585803D01*
X191437934Y-8957719D01*
X191543144Y-8703719D01*
X191683001Y-8366074D01*
X192038784Y-7833608D01*
X192491608Y-7380784D01*
X193024074Y-7025001D01*
X193615718Y-6779934D01*
X193929761Y-6717467D01*
X194243803Y-6655000D01*
X194884197Y-6655000D01*
X195198239Y-6717467D01*
X195198239Y-6717467D01*
G37*
G36*
X6730239Y-6463467D02*
G01*
X7044282Y-6525934D01*
X7635926Y-6771001D01*
X8168392Y-7126784D01*
X8621216Y-7579608D01*
X8976999Y-8112074D01*
X9182673Y-8608615D01*
X9222066Y-8703719D01*
X9347000Y-9331803D01*
X9347000Y-9972197D01*
X9317674Y-10119629D01*
X9222066Y-10600282D01*
X8976999Y-11191926D01*
X8621216Y-11724392D01*
X8168392Y-12177216D01*
X7635926Y-12532999D01*
X7044282Y-12778066D01*
X6730239Y-12840533D01*
X6416197Y-12903000D01*
X5775803Y-12903000D01*
X5461761Y-12840533D01*
X5147718Y-12778066D01*
X4556074Y-12532999D01*
X4023608Y-12177216D01*
X3570784Y-11724392D01*
X3215001Y-11191926D01*
X2969934Y-10600282D01*
X2874326Y-10119629D01*
X2845000Y-9972197D01*
X2845000Y-9331803D01*
X2969934Y-8703719D01*
X3009327Y-8608615D01*
X3215001Y-8112074D01*
X3570784Y-7579608D01*
X4023608Y-7126784D01*
X4556074Y-6771001D01*
X5147718Y-6525934D01*
X5461761Y-6463467D01*
X5775803Y-6401000D01*
X6416197Y-6401000D01*
X6730239Y-6463467D01*
X6730239Y-6463467D01*
G37*
M02*
