G04 #@! TF.GenerationSoftware,KiCad,Pcbnew,(5.1.4)-1*
G04 #@! TF.CreationDate,2019-10-18T18:31:52+09:00*
G04 #@! TF.ProjectId,AirCleaner,41697243-6c65-4616-9e65-722e6b696361,rev?*
G04 #@! TF.SameCoordinates,Original*
G04 #@! TF.FileFunction,Legend,Bot*
G04 #@! TF.FilePolarity,Positive*
%FSLAX46Y46*%
G04 Gerber Fmt 4.6, Leading zero omitted, Abs format (unit mm)*
G04 Created by KiCad (PCBNEW (5.1.4)-1) date 2019-10-18 18:31:52*
%MOMM*%
%LPD*%
G04 APERTURE LIST*
%ADD10C,0.120000*%
%ADD11C,0.381000*%
%ADD12C,0.150000*%
%ADD13C,0.074930*%
%ADD14C,0.076200*%
G04 APERTURE END LIST*
D10*
X122628733Y-54890000D02*
X122971267Y-54890000D01*
X122628733Y-55910000D02*
X122971267Y-55910000D01*
X143160000Y-62980000D02*
X143160000Y-61650000D01*
X141830000Y-62980000D02*
X143160000Y-62980000D01*
X143160000Y-60380000D02*
X143160000Y-57780000D01*
X140560000Y-60380000D02*
X143160000Y-60380000D01*
X140560000Y-62980000D02*
X140560000Y-60380000D01*
X143160000Y-57780000D02*
X135420000Y-57780000D01*
X140560000Y-62980000D02*
X135420000Y-62980000D01*
X135420000Y-62980000D02*
X135420000Y-57780000D01*
X97650000Y-44150000D02*
X97650000Y-31550000D01*
X102750000Y-44150000D02*
X97650000Y-44150000D01*
X102750000Y-31550000D02*
X102750000Y-44150000D01*
X94540000Y-37571267D02*
X94540000Y-37228733D01*
X95560000Y-37571267D02*
X95560000Y-37228733D01*
X95560000Y-40628733D02*
X95560000Y-40971267D01*
X94540000Y-40628733D02*
X94540000Y-40971267D01*
X38000000Y-39450000D02*
X21000000Y-39450000D01*
X21000000Y-59950000D02*
X21000000Y-39450000D01*
X38000000Y-59950000D02*
X21000000Y-59950000D01*
X38000000Y-59950000D02*
X38000000Y-39450000D01*
X93690000Y-60002064D02*
X93690000Y-58797936D01*
X95510000Y-60002064D02*
X95510000Y-58797936D01*
X96702064Y-52090000D02*
X95497936Y-52090000D01*
X96702064Y-53910000D02*
X95497936Y-53910000D01*
X122060000Y-35021267D02*
X122060000Y-34678733D01*
X121040000Y-35021267D02*
X121040000Y-34678733D01*
X105960000Y-37421267D02*
X105960000Y-37078733D01*
X104940000Y-37421267D02*
X104940000Y-37078733D01*
X119340000Y-35021267D02*
X119340000Y-34678733D01*
X120360000Y-35021267D02*
X120360000Y-34678733D01*
X122640000Y-35021267D02*
X122640000Y-34678733D01*
X123660000Y-35021267D02*
X123660000Y-34678733D01*
X113240000Y-57640000D02*
X115650000Y-57640000D01*
X113240000Y-60050000D02*
X113240000Y-57640000D01*
X121160000Y-63060000D02*
X113540000Y-63060000D01*
X121160000Y-58940000D02*
X121160000Y-63060000D01*
X120160000Y-57940000D02*
X121160000Y-58940000D01*
X113540000Y-57940000D02*
X120160000Y-57940000D01*
X113540000Y-63060000D02*
X113540000Y-57940000D01*
X123240000Y-63060000D02*
X123240000Y-57940000D01*
X123240000Y-57940000D02*
X132360000Y-57940000D01*
X132360000Y-57940000D02*
X133360000Y-58940000D01*
X133360000Y-58940000D02*
X133360000Y-63060000D01*
X133360000Y-63060000D02*
X123240000Y-63060000D01*
X122940000Y-60050000D02*
X122940000Y-57640000D01*
X122940000Y-57640000D02*
X125350000Y-57640000D01*
X43250000Y-64450000D02*
X41250000Y-64450000D01*
X91370000Y-64120000D02*
X91370000Y-36680000D01*
X38730000Y-64120000D02*
X91370000Y-64120000D01*
X38730000Y-36680000D02*
X91370000Y-36680000D01*
X38730000Y-64120000D02*
X38730000Y-36680000D01*
D11*
X97800740Y-57451260D02*
X102700400Y-57451260D01*
X97800740Y-57451260D02*
X97800740Y-55548800D01*
X97800740Y-55548800D02*
X102700400Y-55548800D01*
X97849000Y-62051200D02*
X102700400Y-62051200D01*
X97849000Y-62051200D02*
X97849000Y-60148740D01*
X97849000Y-60148740D02*
X102700400Y-60148740D01*
X109599040Y-62249320D02*
X109599040Y-55350680D01*
X109599040Y-55350680D02*
X102700400Y-55350680D01*
X102700400Y-55350680D02*
X102700400Y-62249320D01*
X102700400Y-62249320D02*
X109599040Y-62249320D01*
D12*
X108475000Y-39575000D02*
X108475000Y-39350000D01*
X115725000Y-39575000D02*
X115725000Y-39250000D01*
X115725000Y-32325000D02*
X115725000Y-32650000D01*
X108475000Y-32325000D02*
X108475000Y-32650000D01*
X108475000Y-39575000D02*
X108800000Y-39575000D01*
X108475000Y-32325000D02*
X108800000Y-32325000D01*
X115725000Y-32325000D02*
X115400000Y-32325000D01*
X115725000Y-39575000D02*
X115400000Y-39575000D01*
X108475000Y-39350000D02*
X107050000Y-39350000D01*
D10*
X127940000Y-35350000D02*
X127940000Y-31900000D01*
X127940000Y-35350000D02*
X127940000Y-37300000D01*
X138060000Y-35350000D02*
X138060000Y-33400000D01*
X138060000Y-35350000D02*
X138060000Y-37300000D01*
X138060000Y-50000000D02*
X138060000Y-51950000D01*
X138060000Y-50000000D02*
X138060000Y-48050000D01*
X127940000Y-50000000D02*
X127940000Y-51950000D01*
X127940000Y-50000000D02*
X127940000Y-46550000D01*
D12*
X123442857Y-57282380D02*
X123776190Y-56806190D01*
X124014285Y-57282380D02*
X124014285Y-56282380D01*
X123633333Y-56282380D01*
X123538095Y-56330000D01*
X123490476Y-56377619D01*
X123442857Y-56472857D01*
X123442857Y-56615714D01*
X123490476Y-56710952D01*
X123538095Y-56758571D01*
X123633333Y-56806190D01*
X124014285Y-56806190D01*
X122490476Y-57282380D02*
X123061904Y-57282380D01*
X122776190Y-57282380D02*
X122776190Y-56282380D01*
X122871428Y-56425238D01*
X122966666Y-56520476D01*
X123061904Y-56568095D01*
X122157142Y-56282380D02*
X121490476Y-56282380D01*
X121919047Y-57282380D01*
X143612380Y-60046666D02*
X144326666Y-60046666D01*
X144469523Y-59999047D01*
X144564761Y-59903809D01*
X144612380Y-59760952D01*
X144612380Y-59665714D01*
X143612380Y-60951428D02*
X143612380Y-60760952D01*
X143660000Y-60665714D01*
X143707619Y-60618095D01*
X143850476Y-60522857D01*
X144040952Y-60475238D01*
X144421904Y-60475238D01*
X144517142Y-60522857D01*
X144564761Y-60570476D01*
X144612380Y-60665714D01*
X144612380Y-60856190D01*
X144564761Y-60951428D01*
X144517142Y-60999047D01*
X144421904Y-61046666D01*
X144183809Y-61046666D01*
X144088571Y-60999047D01*
X144040952Y-60951428D01*
X143993333Y-60856190D01*
X143993333Y-60665714D01*
X144040952Y-60570476D01*
X144088571Y-60522857D01*
X144183809Y-60475238D01*
X103726190Y-36973809D02*
X104202380Y-36973809D01*
X103202380Y-36640476D02*
X103726190Y-36973809D01*
X103202380Y-37307142D01*
X104202380Y-38164285D02*
X104202380Y-37592857D01*
X104202380Y-37878571D02*
X103202380Y-37878571D01*
X103345238Y-37783333D01*
X103440476Y-37688095D01*
X103488095Y-37592857D01*
X96837142Y-36757142D02*
X96884761Y-36709523D01*
X96932380Y-36566666D01*
X96932380Y-36471428D01*
X96884761Y-36328571D01*
X96789523Y-36233333D01*
X96694285Y-36185714D01*
X96503809Y-36138095D01*
X96360952Y-36138095D01*
X96170476Y-36185714D01*
X96075238Y-36233333D01*
X95980000Y-36328571D01*
X95932380Y-36471428D01*
X95932380Y-36566666D01*
X95980000Y-36709523D01*
X96027619Y-36757142D01*
X96932380Y-37709523D02*
X96932380Y-37138095D01*
X96932380Y-37423809D02*
X95932380Y-37423809D01*
X96075238Y-37328571D01*
X96170476Y-37233333D01*
X96218095Y-37138095D01*
X96265714Y-38566666D02*
X96932380Y-38566666D01*
X95884761Y-38328571D02*
X96599047Y-38090476D01*
X96599047Y-38709523D01*
X93977142Y-40157142D02*
X94024761Y-40109523D01*
X94072380Y-39966666D01*
X94072380Y-39871428D01*
X94024761Y-39728571D01*
X93929523Y-39633333D01*
X93834285Y-39585714D01*
X93643809Y-39538095D01*
X93500952Y-39538095D01*
X93310476Y-39585714D01*
X93215238Y-39633333D01*
X93120000Y-39728571D01*
X93072380Y-39871428D01*
X93072380Y-39966666D01*
X93120000Y-40109523D01*
X93167619Y-40157142D01*
X94072380Y-41109523D02*
X94072380Y-40538095D01*
X94072380Y-40823809D02*
X93072380Y-40823809D01*
X93215238Y-40728571D01*
X93310476Y-40633333D01*
X93358095Y-40538095D01*
X93072380Y-41442857D02*
X93072380Y-42061904D01*
X93453333Y-41728571D01*
X93453333Y-41871428D01*
X93500952Y-41966666D01*
X93548571Y-42014285D01*
X93643809Y-42061904D01*
X93881904Y-42061904D01*
X93977142Y-42014285D01*
X94024761Y-41966666D01*
X94072380Y-41871428D01*
X94072380Y-41585714D01*
X94024761Y-41490476D01*
X93977142Y-41442857D01*
X40652380Y-56016666D02*
X41366666Y-56016666D01*
X41509523Y-55969047D01*
X41604761Y-55873809D01*
X41652380Y-55730952D01*
X41652380Y-55635714D01*
X41652380Y-57016666D02*
X41652380Y-56445238D01*
X41652380Y-56730952D02*
X40652380Y-56730952D01*
X40795238Y-56635714D01*
X40890476Y-56540476D01*
X40938095Y-56445238D01*
X96777142Y-59233333D02*
X96824761Y-59185714D01*
X96872380Y-59042857D01*
X96872380Y-58947619D01*
X96824761Y-58804761D01*
X96729523Y-58709523D01*
X96634285Y-58661904D01*
X96443809Y-58614285D01*
X96300952Y-58614285D01*
X96110476Y-58661904D01*
X96015238Y-58709523D01*
X95920000Y-58804761D01*
X95872380Y-58947619D01*
X95872380Y-59042857D01*
X95920000Y-59185714D01*
X95967619Y-59233333D01*
X96872380Y-60185714D02*
X96872380Y-59614285D01*
X96872380Y-59900000D02*
X95872380Y-59900000D01*
X96015238Y-59804761D01*
X96110476Y-59709523D01*
X96158095Y-59614285D01*
X96266666Y-51537142D02*
X96314285Y-51584761D01*
X96457142Y-51632380D01*
X96552380Y-51632380D01*
X96695238Y-51584761D01*
X96790476Y-51489523D01*
X96838095Y-51394285D01*
X96885714Y-51203809D01*
X96885714Y-51060952D01*
X96838095Y-50870476D01*
X96790476Y-50775238D01*
X96695238Y-50680000D01*
X96552380Y-50632380D01*
X96457142Y-50632380D01*
X96314285Y-50680000D01*
X96266666Y-50727619D01*
X95885714Y-50727619D02*
X95838095Y-50680000D01*
X95742857Y-50632380D01*
X95504761Y-50632380D01*
X95409523Y-50680000D01*
X95361904Y-50727619D01*
X95314285Y-50822857D01*
X95314285Y-50918095D01*
X95361904Y-51060952D01*
X95933333Y-51632380D01*
X95314285Y-51632380D01*
X123337142Y-34683333D02*
X123384761Y-34635714D01*
X123432380Y-34492857D01*
X123432380Y-34397619D01*
X123384761Y-34254761D01*
X123289523Y-34159523D01*
X123194285Y-34111904D01*
X123003809Y-34064285D01*
X122860952Y-34064285D01*
X122670476Y-34111904D01*
X122575238Y-34159523D01*
X122480000Y-34254761D01*
X122432380Y-34397619D01*
X122432380Y-34492857D01*
X122480000Y-34635714D01*
X122527619Y-34683333D01*
X122432380Y-35016666D02*
X122432380Y-35635714D01*
X122813333Y-35302380D01*
X122813333Y-35445238D01*
X122860952Y-35540476D01*
X122908571Y-35588095D01*
X123003809Y-35635714D01*
X123241904Y-35635714D01*
X123337142Y-35588095D01*
X123384761Y-35540476D01*
X123432380Y-35445238D01*
X123432380Y-35159523D01*
X123384761Y-35064285D01*
X123337142Y-35016666D01*
X107237142Y-37083333D02*
X107284761Y-37035714D01*
X107332380Y-36892857D01*
X107332380Y-36797619D01*
X107284761Y-36654761D01*
X107189523Y-36559523D01*
X107094285Y-36511904D01*
X106903809Y-36464285D01*
X106760952Y-36464285D01*
X106570476Y-36511904D01*
X106475238Y-36559523D01*
X106380000Y-36654761D01*
X106332380Y-36797619D01*
X106332380Y-36892857D01*
X106380000Y-37035714D01*
X106427619Y-37083333D01*
X106665714Y-37940476D02*
X107332380Y-37940476D01*
X106284761Y-37702380D02*
X106999047Y-37464285D01*
X106999047Y-38083333D01*
X121637142Y-34683333D02*
X121684761Y-34635714D01*
X121732380Y-34492857D01*
X121732380Y-34397619D01*
X121684761Y-34254761D01*
X121589523Y-34159523D01*
X121494285Y-34111904D01*
X121303809Y-34064285D01*
X121160952Y-34064285D01*
X120970476Y-34111904D01*
X120875238Y-34159523D01*
X120780000Y-34254761D01*
X120732380Y-34397619D01*
X120732380Y-34492857D01*
X120780000Y-34635714D01*
X120827619Y-34683333D01*
X120732380Y-35588095D02*
X120732380Y-35111904D01*
X121208571Y-35064285D01*
X121160952Y-35111904D01*
X121113333Y-35207142D01*
X121113333Y-35445238D01*
X121160952Y-35540476D01*
X121208571Y-35588095D01*
X121303809Y-35635714D01*
X121541904Y-35635714D01*
X121637142Y-35588095D01*
X121684761Y-35540476D01*
X121732380Y-35445238D01*
X121732380Y-35207142D01*
X121684761Y-35111904D01*
X121637142Y-35064285D01*
X124937142Y-34683333D02*
X124984761Y-34635714D01*
X125032380Y-34492857D01*
X125032380Y-34397619D01*
X124984761Y-34254761D01*
X124889523Y-34159523D01*
X124794285Y-34111904D01*
X124603809Y-34064285D01*
X124460952Y-34064285D01*
X124270476Y-34111904D01*
X124175238Y-34159523D01*
X124080000Y-34254761D01*
X124032380Y-34397619D01*
X124032380Y-34492857D01*
X124080000Y-34635714D01*
X124127619Y-34683333D01*
X124032380Y-35540476D02*
X124032380Y-35350000D01*
X124080000Y-35254761D01*
X124127619Y-35207142D01*
X124270476Y-35111904D01*
X124460952Y-35064285D01*
X124841904Y-35064285D01*
X124937142Y-35111904D01*
X124984761Y-35159523D01*
X125032380Y-35254761D01*
X125032380Y-35445238D01*
X124984761Y-35540476D01*
X124937142Y-35588095D01*
X124841904Y-35635714D01*
X124603809Y-35635714D01*
X124508571Y-35588095D01*
X124460952Y-35540476D01*
X124413333Y-35445238D01*
X124413333Y-35254761D01*
X124460952Y-35159523D01*
X124508571Y-35111904D01*
X124603809Y-35064285D01*
X117683333Y-63602380D02*
X117683333Y-64316666D01*
X117730952Y-64459523D01*
X117826190Y-64554761D01*
X117969047Y-64602380D01*
X118064285Y-64602380D01*
X117254761Y-63697619D02*
X117207142Y-63650000D01*
X117111904Y-63602380D01*
X116873809Y-63602380D01*
X116778571Y-63650000D01*
X116730952Y-63697619D01*
X116683333Y-63792857D01*
X116683333Y-63888095D01*
X116730952Y-64030952D01*
X117302380Y-64602380D01*
X116683333Y-64602380D01*
X128633333Y-63602380D02*
X128633333Y-64316666D01*
X128680952Y-64459523D01*
X128776190Y-64554761D01*
X128919047Y-64602380D01*
X129014285Y-64602380D01*
X128252380Y-63602380D02*
X127633333Y-63602380D01*
X127966666Y-63983333D01*
X127823809Y-63983333D01*
X127728571Y-64030952D01*
X127680952Y-64078571D01*
X127633333Y-64173809D01*
X127633333Y-64411904D01*
X127680952Y-64507142D01*
X127728571Y-64554761D01*
X127823809Y-64602380D01*
X128109523Y-64602380D01*
X128204761Y-64554761D01*
X128252380Y-64507142D01*
X65964285Y-65252380D02*
X65964285Y-64252380D01*
X65583333Y-64252380D01*
X65488095Y-64300000D01*
X65440476Y-64347619D01*
X65392857Y-64442857D01*
X65392857Y-64585714D01*
X65440476Y-64680952D01*
X65488095Y-64728571D01*
X65583333Y-64776190D01*
X65964285Y-64776190D01*
X65011904Y-65204761D02*
X64869047Y-65252380D01*
X64630952Y-65252380D01*
X64535714Y-65204761D01*
X64488095Y-65157142D01*
X64440476Y-65061904D01*
X64440476Y-64966666D01*
X64488095Y-64871428D01*
X64535714Y-64823809D01*
X64630952Y-64776190D01*
X64821428Y-64728571D01*
X64916666Y-64680952D01*
X64964285Y-64633333D01*
X65011904Y-64538095D01*
X65011904Y-64442857D01*
X64964285Y-64347619D01*
X64916666Y-64300000D01*
X64821428Y-64252380D01*
X64583333Y-64252380D01*
X64440476Y-64300000D01*
X63488095Y-65252380D02*
X64059523Y-65252380D01*
X63773809Y-65252380D02*
X63773809Y-64252380D01*
X63869047Y-64395238D01*
X63964285Y-64490476D01*
X64059523Y-64538095D01*
D13*
X109749867Y-58571641D02*
X109992498Y-58571641D01*
X110021042Y-58585914D01*
X110035315Y-58600186D01*
X110049587Y-58628731D01*
X110049587Y-58685820D01*
X110035315Y-58714365D01*
X110021042Y-58728638D01*
X109992498Y-58742910D01*
X109749867Y-58742910D01*
X110049587Y-59042630D02*
X110049587Y-58871361D01*
X110049587Y-58956996D02*
X109749867Y-58956996D01*
X109792684Y-58928451D01*
X109821229Y-58899906D01*
X109835501Y-58871361D01*
D14*
D13*
X104034867Y-58321875D02*
X104034867Y-58179151D01*
X103735147Y-58179151D01*
X103735147Y-58393237D02*
X103735147Y-58593050D01*
X104034867Y-58464599D01*
X103863599Y-58750046D02*
X103849326Y-58721501D01*
X103835054Y-58707229D01*
X103806509Y-58692957D01*
X103792237Y-58692957D01*
X103763692Y-58707229D01*
X103749420Y-58721501D01*
X103735147Y-58750046D01*
X103735147Y-58807136D01*
X103749420Y-58835680D01*
X103763692Y-58849953D01*
X103792237Y-58864225D01*
X103806509Y-58864225D01*
X103835054Y-58849953D01*
X103849326Y-58835680D01*
X103863599Y-58807136D01*
X103863599Y-58750046D01*
X103877871Y-58721501D01*
X103892143Y-58707229D01*
X103920688Y-58692957D01*
X103977778Y-58692957D01*
X104006322Y-58707229D01*
X104020595Y-58721501D01*
X104034867Y-58750046D01*
X104034867Y-58807136D01*
X104020595Y-58835680D01*
X104006322Y-58849953D01*
X103977778Y-58864225D01*
X103920688Y-58864225D01*
X103892143Y-58849953D01*
X103877871Y-58835680D01*
X103863599Y-58807136D01*
X103735147Y-59049766D02*
X103735147Y-59078311D01*
X103749420Y-59106856D01*
X103763692Y-59121128D01*
X103792237Y-59135400D01*
X103849326Y-59149673D01*
X103920688Y-59149673D01*
X103977778Y-59135400D01*
X104006322Y-59121128D01*
X104020595Y-59106856D01*
X104034867Y-59078311D01*
X104034867Y-59049766D01*
X104020595Y-59021221D01*
X104006322Y-59006949D01*
X103977778Y-58992677D01*
X103920688Y-58978404D01*
X103849326Y-58978404D01*
X103792237Y-58992677D01*
X103763692Y-59006949D01*
X103749420Y-59021221D01*
X103735147Y-59049766D01*
X103735147Y-59420848D02*
X103735147Y-59278124D01*
X103877871Y-59263852D01*
X103863599Y-59278124D01*
X103849326Y-59306669D01*
X103849326Y-59378031D01*
X103863599Y-59406576D01*
X103877871Y-59420848D01*
X103906416Y-59435120D01*
X103977778Y-59435120D01*
X104006322Y-59420848D01*
X104020595Y-59406576D01*
X104034867Y-59378031D01*
X104034867Y-59306669D01*
X104020595Y-59278124D01*
X104006322Y-59263852D01*
D14*
D12*
X112861904Y-41452380D02*
X112861904Y-42261904D01*
X112814285Y-42357142D01*
X112766666Y-42404761D01*
X112671428Y-42452380D01*
X112480952Y-42452380D01*
X112385714Y-42404761D01*
X112338095Y-42357142D01*
X112290476Y-42261904D01*
X112290476Y-41452380D01*
X111861904Y-41547619D02*
X111814285Y-41500000D01*
X111719047Y-41452380D01*
X111480952Y-41452380D01*
X111385714Y-41500000D01*
X111338095Y-41547619D01*
X111290476Y-41642857D01*
X111290476Y-41738095D01*
X111338095Y-41880952D01*
X111909523Y-42452380D01*
X111290476Y-42452380D01*
X126552380Y-34588095D02*
X127361904Y-34588095D01*
X127457142Y-34635714D01*
X127504761Y-34683333D01*
X127552380Y-34778571D01*
X127552380Y-34969047D01*
X127504761Y-35064285D01*
X127457142Y-35111904D01*
X127361904Y-35159523D01*
X126552380Y-35159523D01*
X126552380Y-35540476D02*
X126552380Y-36159523D01*
X126933333Y-35826190D01*
X126933333Y-35969047D01*
X126980952Y-36064285D01*
X127028571Y-36111904D01*
X127123809Y-36159523D01*
X127361904Y-36159523D01*
X127457142Y-36111904D01*
X127504761Y-36064285D01*
X127552380Y-35969047D01*
X127552380Y-35683333D01*
X127504761Y-35588095D01*
X127457142Y-35540476D01*
X126552380Y-49238095D02*
X127361904Y-49238095D01*
X127457142Y-49285714D01*
X127504761Y-49333333D01*
X127552380Y-49428571D01*
X127552380Y-49619047D01*
X127504761Y-49714285D01*
X127457142Y-49761904D01*
X127361904Y-49809523D01*
X126552380Y-49809523D01*
X126885714Y-50714285D02*
X127552380Y-50714285D01*
X126504761Y-50476190D02*
X127219047Y-50238095D01*
X127219047Y-50857142D01*
M02*
